<?xml version="1.0" encoding="utf-8" standalone="no"?>
<!DOCTYPE svg PUBLIC "-//W3C//DTD SVG 1.1//EN"
  "http://www.w3.org/Graphics/SVG/1.1/DTD/svg11.dtd">
<svg xmlns:xlink="http://www.w3.org/1999/xlink" width="1080pt" height="432pt" viewBox="0 0 1080 432" xmlns="http://www.w3.org/2000/svg" version="1.1">
 <metadata>
  <rdf:RDF xmlns:dc="http://purl.org/dc/elements/1.1/" xmlns:cc="http://creativecommons.org/ns#" xmlns:rdf="http://www.w3.org/1999/02/22-rdf-syntax-ns#">
   <cc:Work>
    <dc:type rdf:resource="http://purl.org/dc/dcmitype/StillImage"/>
    <dc:date>2025-05-27T18:09:08.378412</dc:date>
    <dc:format>image/svg+xml</dc:format>
    <dc:creator>
     <cc:Agent>
      <dc:title>Matplotlib v3.7.2, https://matplotlib.org/</dc:title>
     </cc:Agent>
    </dc:creator>
   </cc:Work>
  </rdf:RDF>
 </metadata>
 <defs>
  <style type="text/css">*{stroke-linejoin: round; stroke-linecap: butt}</style>
 </defs>
 <g id="figure_1">
  <g id="patch_1">
   <path d="M 0 432 
L 1080 432 
L 1080 0 
L 0 0 
z
" style="fill: #ffffff"/>
  </g>
  <g id="axes_1">
   <g id="patch_2">
    <path d="M 110.16 349.92 
L 517.129957 349.92 
L 517.129957 47.52 
L 110.16 47.52 
z
" style="fill: #ffffff"/>
   </g>
   <g id="matplotlib.axis_1">
    <g id="xtick_1">
     <g id="text_1">
      <!-- $\mathdefault{10^{4}}$ -->
      <g style="fill: #262626" transform="translate(126.115169 392.754847) scale(0.3762 -0.3762)">
       <defs>
        <path id="TimesNewRomanPSMT-31" d="M 750 3822 
L 1781 4325 
L 1884 4325 
L 1884 747 
Q 1884 391 1914 303 
Q 1944 216 2037 169 
Q 2131 122 2419 116 
L 2419 0 
L 825 0 
L 825 116 
Q 1125 122 1212 167 
Q 1300 213 1334 289 
Q 1369 366 1369 747 
L 1369 3034 
Q 1369 3497 1338 3628 
Q 1316 3728 1258 3775 
Q 1200 3822 1119 3822 
Q 1003 3822 797 3725 
L 750 3822 
z
" transform="scale(0.015625)"/>
        <path id="TimesNewRomanPSMT-30" d="M 231 2094 
Q 231 2819 450 3342 
Q 669 3866 1031 4122 
Q 1313 4325 1613 4325 
Q 2100 4325 2488 3828 
Q 2972 3213 2972 2159 
Q 2972 1422 2759 906 
Q 2547 391 2217 158 
Q 1888 -75 1581 -75 
Q 975 -75 572 641 
Q 231 1244 231 2094 
z
M 844 2016 
Q 844 1141 1059 588 
Q 1238 122 1591 122 
Q 1759 122 1940 273 
Q 2122 425 2216 781 
Q 2359 1319 2359 2297 
Q 2359 3022 2209 3506 
Q 2097 3866 1919 4016 
Q 1791 4119 1609 4119 
Q 1397 4119 1231 3928 
Q 1006 3669 925 3112 
Q 844 2556 844 2016 
z
" transform="scale(0.015625)"/>
        <path id="TimesNewRomanPSMT-34" d="M 2978 1563 
L 2978 1119 
L 2409 1119 
L 2409 0 
L 1894 0 
L 1894 1119 
L 100 1119 
L 100 1519 
L 2066 4325 
L 2409 4325 
L 2409 1563 
L 2978 1563 
z
M 1894 1563 
L 1894 3666 
L 406 1563 
L 1894 1563 
z
" transform="scale(0.015625)"/>
       </defs>
       <use xlink:href="#TimesNewRomanPSMT-31" transform="translate(0 0.582813)"/>
       <use xlink:href="#TimesNewRomanPSMT-30" transform="translate(50 0.582813)"/>
       <use xlink:href="#TimesNewRomanPSMT-34" transform="translate(101.502813 60.695312) scale(0.7)"/>
      </g>
     </g>
    </g>
    <g id="xtick_2">
     <g id="text_2">
      <!-- $\mathdefault{10^{5}}$ -->
      <g style="fill: #262626" transform="translate(213.476517 392.378647) scale(0.3762 -0.3762)">
       <defs>
        <path id="TimesNewRomanPSMT-35" d="M 2778 4238 
L 2534 3706 
L 1259 3706 
L 981 3138 
Q 1809 3016 2294 2522 
Q 2709 2097 2709 1522 
Q 2709 1188 2573 903 
Q 2438 619 2231 419 
Q 2025 219 1772 97 
Q 1413 -75 1034 -75 
Q 653 -75 479 54 
Q 306 184 306 341 
Q 306 428 378 495 
Q 450 563 559 563 
Q 641 563 702 538 
Q 763 513 909 409 
Q 1144 247 1384 247 
Q 1750 247 2026 523 
Q 2303 800 2303 1197 
Q 2303 1581 2056 1914 
Q 1809 2247 1375 2428 
Q 1034 2569 447 2591 
L 1259 4238 
L 2778 4238 
z
" transform="scale(0.015625)"/>
       </defs>
       <use xlink:href="#TimesNewRomanPSMT-31" transform="translate(0 0.534375)"/>
       <use xlink:href="#TimesNewRomanPSMT-30" transform="translate(50 0.534375)"/>
       <use xlink:href="#TimesNewRomanPSMT-35" transform="translate(101.502813 60.646875) scale(0.7)"/>
      </g>
     </g>
    </g>
    <g id="xtick_3">
     <g id="text_3">
      <!-- $\mathdefault{10^{6}}$ -->
      <g style="fill: #262626" transform="translate(300.837865 392.754847) scale(0.3762 -0.3762)">
       <defs>
        <path id="TimesNewRomanPSMT-36" d="M 2869 4325 
L 2869 4209 
Q 2456 4169 2195 4045 
Q 1934 3922 1679 3669 
Q 1425 3416 1258 3105 
Q 1091 2794 978 2366 
Q 1428 2675 1881 2675 
Q 2316 2675 2634 2325 
Q 2953 1975 2953 1425 
Q 2953 894 2631 456 
Q 2244 -75 1606 -75 
Q 1172 -75 869 213 
Q 275 772 275 1663 
Q 275 2231 503 2743 
Q 731 3256 1154 3653 
Q 1578 4050 1965 4187 
Q 2353 4325 2688 4325 
L 2869 4325 
z
M 925 2138 
Q 869 1716 869 1456 
Q 869 1156 980 804 
Q 1091 453 1309 247 
Q 1469 100 1697 100 
Q 1969 100 2183 356 
Q 2397 613 2397 1088 
Q 2397 1622 2184 2012 
Q 1972 2403 1581 2403 
Q 1463 2403 1327 2353 
Q 1191 2303 925 2138 
z
" transform="scale(0.015625)"/>
       </defs>
       <use xlink:href="#TimesNewRomanPSMT-31" transform="translate(0 0.582813)"/>
       <use xlink:href="#TimesNewRomanPSMT-30" transform="translate(50 0.582813)"/>
       <use xlink:href="#TimesNewRomanPSMT-36" transform="translate(101.502813 60.695312) scale(0.7)"/>
      </g>
     </g>
    </g>
    <g id="xtick_4">
     <g id="text_4">
      <!-- $\mathdefault{10^{7}}$ -->
      <g style="fill: #262626" transform="translate(388.199212 392.378647) scale(0.3762 -0.3762)">
       <defs>
        <path id="TimesNewRomanPSMT-37" d="M 644 4238 
L 2916 4238 
L 2916 4119 
L 1503 -88 
L 1153 -88 
L 2419 3728 
L 1253 3728 
Q 900 3728 750 3644 
Q 488 3500 328 3200 
L 238 3234 
L 644 4238 
z
" transform="scale(0.015625)"/>
       </defs>
       <use xlink:href="#TimesNewRomanPSMT-31" transform="translate(0 0.534375)"/>
       <use xlink:href="#TimesNewRomanPSMT-30" transform="translate(50 0.534375)"/>
       <use xlink:href="#TimesNewRomanPSMT-37" transform="translate(101.502813 60.646875) scale(0.7)"/>
      </g>
     </g>
    </g>
    <g id="xtick_5">
     <g id="text_5">
      <!-- $\mathdefault{10^{8}}$ -->
      <g style="fill: #262626" transform="translate(475.56056 392.754847) scale(0.3762 -0.3762)">
       <defs>
        <path id="TimesNewRomanPSMT-38" d="M 1228 2134 
Q 725 2547 579 2797 
Q 434 3047 434 3316 
Q 434 3728 753 4026 
Q 1072 4325 1600 4325 
Q 2113 4325 2425 4047 
Q 2738 3769 2738 3413 
Q 2738 3175 2569 2928 
Q 2400 2681 1866 2347 
Q 2416 1922 2594 1678 
Q 2831 1359 2831 1006 
Q 2831 559 2490 242 
Q 2150 -75 1597 -75 
Q 994 -75 656 303 
Q 388 606 388 966 
Q 388 1247 577 1523 
Q 766 1800 1228 2134 
z
M 1719 2469 
Q 2094 2806 2194 3001 
Q 2294 3197 2294 3444 
Q 2294 3772 2109 3958 
Q 1925 4144 1606 4144 
Q 1288 4144 1088 3959 
Q 888 3775 888 3528 
Q 888 3366 970 3203 
Q 1053 3041 1206 2894 
L 1719 2469 
z
M 1375 2016 
Q 1116 1797 991 1539 
Q 866 1281 866 981 
Q 866 578 1086 336 
Q 1306 94 1647 94 
Q 1984 94 2187 284 
Q 2391 475 2391 747 
Q 2391 972 2272 1150 
Q 2050 1481 1375 2016 
z
" transform="scale(0.015625)"/>
       </defs>
       <use xlink:href="#TimesNewRomanPSMT-31" transform="translate(0 0.582813)"/>
       <use xlink:href="#TimesNewRomanPSMT-30" transform="translate(50 0.582813)"/>
       <use xlink:href="#TimesNewRomanPSMT-38" transform="translate(101.502813 60.695312) scale(0.7)"/>
      </g>
     </g>
    </g>
    <g id="text_6">
     <!-- #entries -->
     <g style="fill: #262626" transform="translate(250.965604 428.82525) scale(0.396 -0.396)">
      <defs>
       <path id="TimesNewRomanPSMT-23" d="M 359 -88 
L 650 1334 
L 116 1334 
L 116 1591 
L 700 1591 
L 916 2663 
L 116 2663 
L 116 2913 
L 975 2913 
L 1259 4334 
L 1519 4334 
L 1234 2913 
L 2288 2913 
L 2591 4334 
L 2850 4334 
L 2553 2913 
L 3084 2913 
L 3084 2663 
L 2506 2663 
L 2288 1591 
L 3084 1591 
L 3084 1334 
L 2234 1334 
L 1944 -88 
L 1691 -88 
L 1975 1334 
L 916 1334 
L 619 -88 
L 359 -88 
z
M 963 1591 
L 2022 1591 
L 2247 2663 
L 1181 2663 
L 963 1591 
z
" transform="scale(0.015625)"/>
       <path id="TimesNewRomanPSMT-65" d="M 681 1784 
Q 678 1147 991 784 
Q 1303 422 1725 422 
Q 2006 422 2214 576 
Q 2422 731 2563 1106 
L 2659 1044 
Q 2594 616 2278 264 
Q 1963 -88 1488 -88 
Q 972 -88 605 314 
Q 238 716 238 1394 
Q 238 2128 614 2539 
Q 991 2950 1559 2950 
Q 2041 2950 2350 2633 
Q 2659 2316 2659 1784 
L 681 1784 
z
M 681 1966 
L 2006 1966 
Q 1991 2241 1941 2353 
Q 1863 2528 1708 2628 
Q 1553 2728 1384 2728 
Q 1125 2728 920 2526 
Q 716 2325 681 1966 
z
" transform="scale(0.015625)"/>
       <path id="TimesNewRomanPSMT-6e" d="M 1034 2341 
Q 1538 2947 1994 2947 
Q 2228 2947 2397 2830 
Q 2566 2713 2666 2444 
Q 2734 2256 2734 1869 
L 2734 647 
Q 2734 375 2778 278 
Q 2813 200 2889 156 
Q 2966 113 3172 113 
L 3172 0 
L 1756 0 
L 1756 113 
L 1816 113 
Q 2016 113 2095 173 
Q 2175 234 2206 353 
Q 2219 400 2219 647 
L 2219 1819 
Q 2219 2209 2117 2386 
Q 2016 2563 1775 2563 
Q 1403 2563 1034 2156 
L 1034 647 
Q 1034 356 1069 288 
Q 1113 197 1189 155 
Q 1266 113 1500 113 
L 1500 0 
L 84 0 
L 84 113 
L 147 113 
Q 366 113 442 223 
Q 519 334 519 647 
L 519 1709 
Q 519 2225 495 2337 
Q 472 2450 423 2490 
Q 375 2531 294 2531 
Q 206 2531 84 2484 
L 38 2597 
L 900 2947 
L 1034 2947 
L 1034 2341 
z
" transform="scale(0.015625)"/>
       <path id="TimesNewRomanPSMT-74" d="M 1031 3803 
L 1031 2863 
L 1700 2863 
L 1700 2644 
L 1031 2644 
L 1031 788 
Q 1031 509 1111 412 
Q 1191 316 1316 316 
Q 1419 316 1516 380 
Q 1613 444 1666 569 
L 1788 569 
Q 1678 263 1478 108 
Q 1278 -47 1066 -47 
Q 922 -47 784 33 
Q 647 113 581 261 
Q 516 409 516 719 
L 516 2644 
L 63 2644 
L 63 2747 
Q 234 2816 414 2980 
Q 594 3144 734 3369 
Q 806 3488 934 3803 
L 1031 3803 
z
" transform="scale(0.015625)"/>
       <path id="TimesNewRomanPSMT-72" d="M 1038 2947 
L 1038 2303 
Q 1397 2947 1775 2947 
Q 1947 2947 2059 2842 
Q 2172 2738 2172 2600 
Q 2172 2478 2090 2393 
Q 2009 2309 1897 2309 
Q 1788 2309 1652 2417 
Q 1516 2525 1450 2525 
Q 1394 2525 1328 2463 
Q 1188 2334 1038 2041 
L 1038 669 
Q 1038 431 1097 309 
Q 1138 225 1241 169 
Q 1344 113 1538 113 
L 1538 0 
L 72 0 
L 72 113 
Q 291 113 397 181 
Q 475 231 506 341 
Q 522 394 522 644 
L 522 1753 
Q 522 2253 501 2348 
Q 481 2444 426 2487 
Q 372 2531 291 2531 
Q 194 2531 72 2484 
L 41 2597 
L 906 2947 
L 1038 2947 
z
" transform="scale(0.015625)"/>
       <path id="TimesNewRomanPSMT-69" d="M 928 4444 
Q 1059 4444 1151 4351 
Q 1244 4259 1244 4128 
Q 1244 3997 1151 3903 
Q 1059 3809 928 3809 
Q 797 3809 703 3903 
Q 609 3997 609 4128 
Q 609 4259 701 4351 
Q 794 4444 928 4444 
z
M 1188 2947 
L 1188 647 
Q 1188 378 1227 289 
Q 1266 200 1342 156 
Q 1419 113 1622 113 
L 1622 0 
L 231 0 
L 231 113 
Q 441 113 512 153 
Q 584 194 626 287 
Q 669 381 669 647 
L 669 1750 
Q 669 2216 641 2353 
Q 619 2453 572 2492 
Q 525 2531 444 2531 
Q 356 2531 231 2484 
L 188 2597 
L 1050 2947 
L 1188 2947 
z
" transform="scale(0.015625)"/>
       <path id="TimesNewRomanPSMT-73" d="M 2050 2947 
L 2050 1972 
L 1947 1972 
Q 1828 2431 1642 2597 
Q 1456 2763 1169 2763 
Q 950 2763 815 2647 
Q 681 2531 681 2391 
Q 681 2216 781 2091 
Q 878 1963 1175 1819 
L 1631 1597 
Q 2266 1288 2266 781 
Q 2266 391 1970 151 
Q 1675 -88 1309 -88 
Q 1047 -88 709 6 
Q 606 38 541 38 
Q 469 38 428 -44 
L 325 -44 
L 325 978 
L 428 978 
Q 516 541 762 319 
Q 1009 97 1316 97 
Q 1531 97 1667 223 
Q 1803 350 1803 528 
Q 1803 744 1651 891 
Q 1500 1038 1047 1263 
Q 594 1488 453 1669 
Q 313 1847 313 2119 
Q 313 2472 555 2709 
Q 797 2947 1181 2947 
Q 1350 2947 1591 2875 
Q 1750 2828 1803 2828 
Q 1853 2828 1881 2850 
Q 1909 2872 1947 2947 
L 2050 2947 
z
" transform="scale(0.015625)"/>
      </defs>
      <use xlink:href="#TimesNewRomanPSMT-23"/>
      <use xlink:href="#TimesNewRomanPSMT-65" x="50"/>
      <use xlink:href="#TimesNewRomanPSMT-6e" x="94.384766"/>
      <use xlink:href="#TimesNewRomanPSMT-74" x="144.384766"/>
      <use xlink:href="#TimesNewRomanPSMT-72" x="172.167969"/>
      <use xlink:href="#TimesNewRomanPSMT-69" x="205.46875"/>
      <use xlink:href="#TimesNewRomanPSMT-65" x="233.251953"/>
      <use xlink:href="#TimesNewRomanPSMT-73" x="277.636719"/>
     </g>
    </g>
   </g>
   <g id="matplotlib.axis_2">
    <g id="ytick_1">
     <g id="text_7">
      <!-- 0 -->
      <g style="fill: #262626" transform="translate(81.85 362.981194) scale(0.3762 -0.3762)">
       <use xlink:href="#TimesNewRomanPSMT-30"/>
      </g>
     </g>
    </g>
    <g id="ytick_2">
     <g id="text_8">
      <!-- 10 -->
      <g style="fill: #262626" transform="translate(63.04 276.581194) scale(0.3762 -0.3762)">
       <use xlink:href="#TimesNewRomanPSMT-31"/>
       <use xlink:href="#TimesNewRomanPSMT-30" x="50"/>
      </g>
     </g>
    </g>
    <g id="ytick_3">
     <g id="text_9">
      <!-- 20 -->
      <g style="fill: #262626" transform="translate(63.04 190.181194) scale(0.3762 -0.3762)">
       <defs>
        <path id="TimesNewRomanPSMT-32" d="M 2934 816 
L 2638 0 
L 138 0 
L 138 116 
Q 1241 1122 1691 1759 
Q 2141 2397 2141 2925 
Q 2141 3328 1894 3587 
Q 1647 3847 1303 3847 
Q 991 3847 742 3664 
Q 494 3481 375 3128 
L 259 3128 
Q 338 3706 661 4015 
Q 984 4325 1469 4325 
Q 1984 4325 2329 3994 
Q 2675 3663 2675 3213 
Q 2675 2891 2525 2569 
Q 2294 2063 1775 1497 
Q 997 647 803 472 
L 1909 472 
Q 2247 472 2383 497 
Q 2519 522 2628 598 
Q 2738 675 2819 816 
L 2934 816 
z
" transform="scale(0.015625)"/>
       </defs>
       <use xlink:href="#TimesNewRomanPSMT-32"/>
       <use xlink:href="#TimesNewRomanPSMT-30" x="50"/>
      </g>
     </g>
    </g>
    <g id="ytick_4">
     <g id="text_10">
      <!-- 30 -->
      <g style="fill: #262626" transform="translate(63.04 103.781194) scale(0.3762 -0.3762)">
       <defs>
        <path id="TimesNewRomanPSMT-33" d="M 325 3431 
Q 506 3859 782 4092 
Q 1059 4325 1472 4325 
Q 1981 4325 2253 3994 
Q 2459 3747 2459 3466 
Q 2459 3003 1878 2509 
Q 2269 2356 2469 2072 
Q 2669 1788 2669 1403 
Q 2669 853 2319 450 
Q 1863 -75 997 -75 
Q 569 -75 414 31 
Q 259 138 259 259 
Q 259 350 332 419 
Q 406 488 509 488 
Q 588 488 669 463 
Q 722 447 909 348 
Q 1097 250 1169 231 
Q 1284 197 1416 197 
Q 1734 197 1970 444 
Q 2206 691 2206 1028 
Q 2206 1275 2097 1509 
Q 2016 1684 1919 1775 
Q 1784 1900 1550 2001 
Q 1316 2103 1072 2103 
L 972 2103 
L 972 2197 
Q 1219 2228 1467 2375 
Q 1716 2522 1828 2728 
Q 1941 2934 1941 3181 
Q 1941 3503 1739 3701 
Q 1538 3900 1238 3900 
Q 753 3900 428 3381 
L 325 3431 
z
" transform="scale(0.015625)"/>
       </defs>
       <use xlink:href="#TimesNewRomanPSMT-33"/>
       <use xlink:href="#TimesNewRomanPSMT-30" x="50"/>
      </g>
     </g>
    </g>
    <g id="text_11">
     <!-- memory (bits/entry) -->
     <g style="fill: #262626" transform="translate(50.495062 368.613281) rotate(-90) scale(0.396 -0.396)">
      <defs>
       <path id="TimesNewRomanPS-BoldMT-6d" d="M 1428 2922 
L 1428 2538 
Q 1669 2800 1873 2904 
Q 2078 3009 2322 3009 
Q 2603 3009 2793 2878 
Q 2984 2747 3088 2478 
Q 3338 2759 3567 2884 
Q 3797 3009 4047 3009 
Q 4350 3009 4529 2870 
Q 4709 2731 4779 2517 
Q 4850 2303 4850 1834 
L 4850 638 
Q 4850 300 4911 219 
Q 4972 138 5166 113 
L 5166 0 
L 3656 0 
L 3656 113 
Q 3834 128 3919 250 
Q 3975 334 3975 638 
L 3975 1894 
Q 3975 2284 3944 2390 
Q 3913 2497 3845 2548 
Q 3778 2600 3688 2600 
Q 3553 2600 3415 2501 
Q 3278 2403 3138 2206 
L 3138 638 
Q 3138 322 3191 241 
Q 3263 125 3466 113 
L 3466 0 
L 1953 0 
L 1953 113 
Q 2075 119 2145 173 
Q 2216 228 2239 304 
Q 2263 381 2263 638 
L 2263 1894 
Q 2263 2291 2231 2391 
Q 2200 2491 2126 2547 
Q 2053 2603 1969 2603 
Q 1844 2603 1741 2538 
Q 1594 2441 1428 2206 
L 1428 638 
Q 1428 328 1489 229 
Q 1550 131 1744 113 
L 1744 0 
L 238 0 
L 238 113 
Q 422 131 500 231 
Q 553 300 553 638 
L 553 2288 
Q 553 2619 492 2700 
Q 431 2781 238 2806 
L 238 2922 
L 1428 2922 
z
" transform="scale(0.015625)"/>
       <path id="TimesNewRomanPS-BoldMT-65" d="M 2691 1566 
L 1088 1566 
Q 1116 984 1397 647 
Q 1613 388 1916 388 
Q 2103 388 2256 492 
Q 2409 597 2584 869 
L 2691 800 
Q 2453 316 2165 114 
Q 1878 -88 1500 -88 
Q 850 -88 516 413 
Q 247 816 247 1413 
Q 247 2144 642 2576 
Q 1038 3009 1569 3009 
Q 2013 3009 2339 2645 
Q 2666 2281 2691 1566 
z
M 1922 1775 
Q 1922 2278 1867 2465 
Q 1813 2653 1697 2750 
Q 1631 2806 1522 2806 
Q 1359 2806 1256 2647 
Q 1072 2369 1072 1884 
L 1072 1775 
L 1922 1775 
z
" transform="scale(0.015625)"/>
       <path id="TimesNewRomanPS-BoldMT-6f" d="M 1594 3009 
Q 1975 3009 2303 2812 
Q 2631 2616 2801 2253 
Q 2972 1891 2972 1459 
Q 2972 838 2656 419 
Q 2275 -88 1603 -88 
Q 944 -88 587 375 
Q 231 838 231 1447 
Q 231 2075 595 2542 
Q 959 3009 1594 3009 
z
M 1606 2788 
Q 1447 2788 1333 2667 
Q 1219 2547 1183 2192 
Q 1147 1838 1147 1206 
Q 1147 872 1191 581 
Q 1225 359 1337 243 
Q 1450 128 1594 128 
Q 1734 128 1828 206 
Q 1950 313 1991 503 
Q 2053 800 2053 1703 
Q 2053 2234 1993 2432 
Q 1934 2631 1819 2722 
Q 1738 2788 1606 2788 
z
" transform="scale(0.015625)"/>
       <path id="TimesNewRomanPS-BoldMT-72" d="M 1428 2922 
L 1428 2259 
Q 1719 2713 1937 2861 
Q 2156 3009 2359 3009 
Q 2534 3009 2639 2901 
Q 2744 2794 2744 2597 
Q 2744 2388 2642 2272 
Q 2541 2156 2397 2156 
Q 2231 2156 2109 2262 
Q 1988 2369 1966 2381 
Q 1934 2400 1894 2400 
Q 1803 2400 1722 2331 
Q 1594 2225 1528 2028 
Q 1428 1725 1428 1359 
L 1428 688 
L 1431 513 
Q 1431 334 1453 284 
Q 1491 200 1564 161 
Q 1638 122 1813 113 
L 1813 0 
L 234 0 
L 234 113 
Q 425 128 492 217 
Q 559 306 559 688 
L 559 2303 
Q 559 2553 534 2622 
Q 503 2709 443 2750 
Q 384 2791 234 2806 
L 234 2922 
L 1428 2922 
z
" transform="scale(0.015625)"/>
       <path id="TimesNewRomanPS-BoldMT-79" d="M 1556 -119 
L 613 2047 
Q 400 2538 298 2650 
Q 197 2763 53 2806 
L 53 2922 
L 1606 2922 
L 1606 2806 
Q 1453 2800 1390 2747 
Q 1328 2694 1328 2619 
Q 1328 2500 1484 2150 
L 1984 1006 
L 2325 1891 
Q 2509 2363 2509 2547 
Q 2509 2663 2432 2731 
Q 2356 2800 2163 2806 
L 2163 2922 
L 3141 2922 
L 3141 2806 
Q 2997 2791 2906 2695 
Q 2816 2600 2603 2047 
L 1769 -119 
Q 1453 -931 1300 -1119 
Q 1084 -1381 759 -1381 
Q 500 -1381 339 -1232 
Q 178 -1084 178 -875 
Q 178 -694 289 -575 
Q 400 -456 563 -456 
Q 719 -456 814 -556 
Q 909 -656 913 -866 
Q 916 -984 941 -1019 
Q 966 -1053 1013 -1053 
Q 1088 -1053 1172 -963 
Q 1297 -831 1466 -363 
L 1556 -119 
z
" transform="scale(0.015625)"/>
       <path id="TimesNewRomanPS-BoldMT-20" transform="scale(0.015625)"/>
       <path id="TimesNewRomanPS-BoldMT-28" d="M 2056 4334 
L 2056 4191 
Q 1731 3978 1578 3775 
Q 1366 3494 1247 3053 
Q 1097 2506 1097 1525 
Q 1097 600 1233 87 
Q 1369 -425 1603 -741 
Q 1766 -959 2056 -1125 
L 2056 -1281 
Q 1303 -1028 779 -248 
Q 256 531 256 1544 
Q 256 2544 778 3314 
Q 1300 4084 2056 4334 
z
" transform="scale(0.015625)"/>
       <path id="TimesNewRomanPS-BoldMT-62" d="M 1347 4238 
L 1347 2628 
Q 1716 3009 2153 3009 
Q 2453 3009 2718 2832 
Q 2984 2656 3134 2331 
Q 3284 2006 3284 1581 
Q 3284 1103 3093 712 
Q 2903 322 2584 117 
Q 2266 -88 1856 -88 
Q 1619 -88 1434 -12 
Q 1250 63 1072 231 
L 588 -84 
L 481 -84 
L 481 3631 
Q 481 3884 459 3944 
Q 428 4031 361 4073 
Q 294 4116 134 4122 
L 134 4238 
L 1347 4238 
z
M 1347 2350 
L 1347 1050 
Q 1347 653 1366 544 
Q 1397 359 1515 245 
Q 1634 131 1819 131 
Q 1978 131 2092 222 
Q 2206 313 2282 581 
Q 2359 850 2359 1550 
Q 2359 2222 2191 2472 
Q 2069 2653 1863 2653 
Q 1594 2653 1347 2350 
z
" transform="scale(0.015625)"/>
       <path id="TimesNewRomanPS-BoldMT-69" d="M 919 4338 
Q 1122 4338 1262 4195 
Q 1403 4053 1403 3853 
Q 1403 3653 1261 3512 
Q 1119 3372 919 3372 
Q 719 3372 578 3512 
Q 438 3653 438 3853 
Q 438 4053 578 4195 
Q 719 4338 919 4338 
z
M 1356 2922 
L 1356 606 
Q 1356 297 1428 211 
Q 1500 125 1709 113 
L 1709 0 
L 131 0 
L 131 113 
Q 325 119 419 225 
Q 481 297 481 606 
L 481 2313 
Q 481 2622 409 2708 
Q 338 2794 131 2806 
L 131 2922 
L 1356 2922 
z
" transform="scale(0.015625)"/>
       <path id="TimesNewRomanPS-BoldMT-74" d="M 1375 3991 
L 1375 2922 
L 2069 2922 
L 2069 2613 
L 1375 2613 
L 1375 809 
Q 1375 556 1398 482 
Q 1422 409 1481 364 
Q 1541 319 1591 319 
Q 1794 319 1975 628 
L 2069 559 
Q 1816 -41 1247 -41 
Q 969 -41 776 114 
Q 584 269 531 459 
Q 500 566 500 1034 
L 500 2613 
L 119 2613 
L 119 2722 
Q 513 3000 789 3306 
Q 1066 3613 1272 3991 
L 1375 3991 
z
" transform="scale(0.015625)"/>
       <path id="TimesNewRomanPS-BoldMT-73" d="M 2063 3003 
L 2109 2006 
L 2003 2006 
Q 1813 2450 1608 2612 
Q 1403 2775 1200 2775 
Q 1072 2775 981 2689 
Q 891 2603 891 2491 
Q 891 2406 953 2328 
Q 1053 2200 1512 1889 
Q 1972 1578 2117 1361 
Q 2263 1144 2263 875 
Q 2263 631 2141 397 
Q 2019 163 1797 37 
Q 1575 -88 1306 -88 
Q 1097 -88 747 44 
Q 653 78 619 78 
Q 516 78 447 -78 
L 344 -78 
L 294 972 
L 400 972 
Q 541 559 786 353 
Q 1031 147 1250 147 
Q 1400 147 1495 239 
Q 1591 331 1591 463 
Q 1591 613 1497 722 
Q 1403 831 1078 1053 
Q 600 1384 459 1559 
Q 253 1816 253 2125 
Q 253 2463 486 2736 
Q 719 3009 1159 3009 
Q 1397 3009 1619 2894 
Q 1703 2847 1756 2847 
Q 1813 2847 1847 2870 
Q 1881 2894 1956 3003 
L 2063 3003 
z
" transform="scale(0.015625)"/>
       <path id="TimesNewRomanPS-BoldMT-2f" d="M 1797 4334 
L 406 -97 
L 6 -97 
L 1403 4334 
L 1797 4334 
z
" transform="scale(0.015625)"/>
       <path id="TimesNewRomanPS-BoldMT-6e" d="M 1409 2922 
L 1409 2544 
Q 1634 2788 1840 2898 
Q 2047 3009 2284 3009 
Q 2569 3009 2756 2851 
Q 2944 2694 3006 2459 
Q 3056 2281 3056 1775 
L 3056 638 
Q 3056 300 3117 217 
Q 3178 134 3372 113 
L 3372 0 
L 1894 0 
L 1894 113 
Q 2059 134 2131 250 
Q 2181 328 2181 638 
L 2181 1938 
Q 2181 2297 2153 2390 
Q 2125 2484 2058 2536 
Q 1991 2588 1909 2588 
Q 1641 2588 1409 2203 
L 1409 638 
Q 1409 309 1470 221 
Q 1531 134 1697 113 
L 1697 0 
L 219 0 
L 219 113 
Q 403 131 481 231 
Q 534 300 534 638 
L 534 2288 
Q 534 2619 473 2700 
Q 413 2781 219 2806 
L 219 2922 
L 1409 2922 
z
" transform="scale(0.015625)"/>
       <path id="TimesNewRomanPS-BoldMT-29" d="M 78 -1281 
L 78 -1138 
Q 403 -922 556 -719 
Q 766 -438 888 0 
Q 1038 550 1038 1531 
Q 1038 2456 902 2967 
Q 766 3478 531 3794 
Q 369 4013 78 4178 
L 78 4334 
Q 831 4081 1354 3301 
Q 1878 2522 1878 1509 
Q 1878 513 1354 -257 
Q 831 -1028 78 -1281 
z
" transform="scale(0.015625)"/>
      </defs>
      <use xlink:href="#TimesNewRomanPS-BoldMT-6d"/>
      <use xlink:href="#TimesNewRomanPS-BoldMT-65" x="83.300781"/>
      <use xlink:href="#TimesNewRomanPS-BoldMT-6d" x="127.685547"/>
      <use xlink:href="#TimesNewRomanPS-BoldMT-6f" x="210.986328"/>
      <use xlink:href="#TimesNewRomanPS-BoldMT-72" x="260.986328"/>
      <use xlink:href="#TimesNewRomanPS-BoldMT-79" x="305.371094"/>
      <use xlink:href="#TimesNewRomanPS-BoldMT-20" x="355.371094"/>
      <use xlink:href="#TimesNewRomanPS-BoldMT-28" x="380.371094"/>
      <use xlink:href="#TimesNewRomanPS-BoldMT-62" x="413.671875"/>
      <use xlink:href="#TimesNewRomanPS-BoldMT-69" x="469.287109"/>
      <use xlink:href="#TimesNewRomanPS-BoldMT-74" x="497.070312"/>
      <use xlink:href="#TimesNewRomanPS-BoldMT-73" x="530.371094"/>
      <use xlink:href="#TimesNewRomanPS-BoldMT-2f" x="569.287109"/>
      <use xlink:href="#TimesNewRomanPS-BoldMT-65" x="597.070312"/>
      <use xlink:href="#TimesNewRomanPS-BoldMT-6e" x="641.455078"/>
      <use xlink:href="#TimesNewRomanPS-BoldMT-74" x="697.070312"/>
      <use xlink:href="#TimesNewRomanPS-BoldMT-72" x="730.371094"/>
      <use xlink:href="#TimesNewRomanPS-BoldMT-79" x="774.755859"/>
      <use xlink:href="#TimesNewRomanPS-BoldMT-29" x="824.755859"/>
     </g>
    </g>
   </g>
   <g id="line2d_1">
    <path d="M 117.986345 311.328576 
L 119.569939 312.906154 
L 120.350951 277.400678 
L 144.019014 311.057366 
L 145.599807 275.366563 
L 170.844639 311.593651 
L 172.422083 276.388934 
L 195.301701 309.687754 
L 198.45716 275.876842 
L 222.125726 310.241318 
L 225.281467 276.896189 
L 248.160673 309.964838 
L 252.105477 279.026122 
L 274.985026 309.283488 
L 278.140851 277.399901 
L 300.231454 309.40704 
L 304.176136 278.321443 
L 327.055755 309.808627 
L 331.000567 278.041248 
L 353.880034 309.97607 
L 357.035905 277.824557 
L 379.915454 309.620707 
L 383.071329 277.715347 
L 405.950904 309.789101 
L 409.895639 278.006083 
L 431.986348 309.578803 
L 435.931107 277.842269 
L 458.810612 309.790224 
L 461.966422 277.8624 
L 484.846074 309.72577 
L 488.790808 278.021462 
L 509.303612 307.978243 
" clip-path="url(#p381827aeed)" style="fill: none; stroke: #006400; stroke-opacity: 0.9; stroke-width: 1.5; stroke-linecap: round"/>
    <defs>
     <path id="m1f4782564b" d="M 0 6.5 
C 1.72382 6.5 3.377269 5.815119 4.596194 4.596194 
C 5.815119 3.377269 6.5 1.72382 6.5 0 
C 6.5 -1.72382 5.815119 -3.377269 4.596194 -4.596194 
C 3.377269 -5.815119 1.72382 -6.5 0 -6.5 
C -1.72382 -6.5 -3.377269 -5.815119 -4.596194 -4.596194 
C -5.815119 -3.377269 -6.5 -1.72382 -6.5 0 
C -6.5 1.72382 -5.815119 3.377269 -4.596194 4.596194 
C -3.377269 5.815119 -1.72382 6.5 0 6.5 
z
" style="stroke: #006400; stroke-opacity: 0.9"/>
    </defs>
    <g clip-path="url(#p381827aeed)">
     <use xlink:href="#m1f4782564b" x="117.986345" y="311.328576" style="fill-opacity: 0; stroke: #006400; stroke-opacity: 0.9"/>
     <use xlink:href="#m1f4782564b" x="119.569939" y="312.906154" style="fill-opacity: 0; stroke: #006400; stroke-opacity: 0.9"/>
     <use xlink:href="#m1f4782564b" x="120.350951" y="277.400678" style="fill-opacity: 0; stroke: #006400; stroke-opacity: 0.9"/>
     <use xlink:href="#m1f4782564b" x="144.019014" y="311.057366" style="fill-opacity: 0; stroke: #006400; stroke-opacity: 0.9"/>
     <use xlink:href="#m1f4782564b" x="145.599807" y="275.366563" style="fill-opacity: 0; stroke: #006400; stroke-opacity: 0.9"/>
     <use xlink:href="#m1f4782564b" x="170.844639" y="311.593651" style="fill-opacity: 0; stroke: #006400; stroke-opacity: 0.9"/>
     <use xlink:href="#m1f4782564b" x="172.422083" y="276.388934" style="fill-opacity: 0; stroke: #006400; stroke-opacity: 0.9"/>
     <use xlink:href="#m1f4782564b" x="195.301701" y="309.687754" style="fill-opacity: 0; stroke: #006400; stroke-opacity: 0.9"/>
     <use xlink:href="#m1f4782564b" x="198.45716" y="275.876842" style="fill-opacity: 0; stroke: #006400; stroke-opacity: 0.9"/>
     <use xlink:href="#m1f4782564b" x="222.125726" y="310.241318" style="fill-opacity: 0; stroke: #006400; stroke-opacity: 0.9"/>
     <use xlink:href="#m1f4782564b" x="225.281467" y="276.896189" style="fill-opacity: 0; stroke: #006400; stroke-opacity: 0.9"/>
     <use xlink:href="#m1f4782564b" x="248.160673" y="309.964838" style="fill-opacity: 0; stroke: #006400; stroke-opacity: 0.9"/>
     <use xlink:href="#m1f4782564b" x="252.105477" y="279.026122" style="fill-opacity: 0; stroke: #006400; stroke-opacity: 0.9"/>
     <use xlink:href="#m1f4782564b" x="274.985026" y="309.283488" style="fill-opacity: 0; stroke: #006400; stroke-opacity: 0.9"/>
     <use xlink:href="#m1f4782564b" x="278.140851" y="277.399901" style="fill-opacity: 0; stroke: #006400; stroke-opacity: 0.9"/>
     <use xlink:href="#m1f4782564b" x="300.231454" y="309.40704" style="fill-opacity: 0; stroke: #006400; stroke-opacity: 0.9"/>
     <use xlink:href="#m1f4782564b" x="304.176136" y="278.321443" style="fill-opacity: 0; stroke: #006400; stroke-opacity: 0.9"/>
     <use xlink:href="#m1f4782564b" x="327.055755" y="309.808627" style="fill-opacity: 0; stroke: #006400; stroke-opacity: 0.9"/>
     <use xlink:href="#m1f4782564b" x="331.000567" y="278.041248" style="fill-opacity: 0; stroke: #006400; stroke-opacity: 0.9"/>
     <use xlink:href="#m1f4782564b" x="353.880034" y="309.97607" style="fill-opacity: 0; stroke: #006400; stroke-opacity: 0.9"/>
     <use xlink:href="#m1f4782564b" x="357.035905" y="277.824557" style="fill-opacity: 0; stroke: #006400; stroke-opacity: 0.9"/>
     <use xlink:href="#m1f4782564b" x="379.915454" y="309.620707" style="fill-opacity: 0; stroke: #006400; stroke-opacity: 0.9"/>
     <use xlink:href="#m1f4782564b" x="383.071329" y="277.715347" style="fill-opacity: 0; stroke: #006400; stroke-opacity: 0.9"/>
     <use xlink:href="#m1f4782564b" x="405.950904" y="309.789101" style="fill-opacity: 0; stroke: #006400; stroke-opacity: 0.9"/>
     <use xlink:href="#m1f4782564b" x="409.895639" y="278.006083" style="fill-opacity: 0; stroke: #006400; stroke-opacity: 0.9"/>
     <use xlink:href="#m1f4782564b" x="431.986348" y="309.578803" style="fill-opacity: 0; stroke: #006400; stroke-opacity: 0.9"/>
     <use xlink:href="#m1f4782564b" x="435.931107" y="277.842269" style="fill-opacity: 0; stroke: #006400; stroke-opacity: 0.9"/>
     <use xlink:href="#m1f4782564b" x="458.810612" y="309.790224" style="fill-opacity: 0; stroke: #006400; stroke-opacity: 0.9"/>
     <use xlink:href="#m1f4782564b" x="461.966422" y="277.8624" style="fill-opacity: 0; stroke: #006400; stroke-opacity: 0.9"/>
     <use xlink:href="#m1f4782564b" x="484.846074" y="309.72577" style="fill-opacity: 0; stroke: #006400; stroke-opacity: 0.9"/>
     <use xlink:href="#m1f4782564b" x="488.790808" y="278.021462" style="fill-opacity: 0; stroke: #006400; stroke-opacity: 0.9"/>
     <use xlink:href="#m1f4782564b" x="509.303612" y="307.978243" style="fill-opacity: 0; stroke: #006400; stroke-opacity: 0.9"/>
    </g>
   </g>
   <g id="line2d_2">
    <path d="M 425.651921 -1 
L 428.041455 23.398848 
L 441.453713 120.629952 
L 454.865919 188.907552 
L 467.489095 234.477504 
L 480.901316 268.853645 
L 494.313447 292.989139 
L 506.936614 305.693914 
" clip-path="url(#p381827aeed)" style="fill: none; stroke: #00008b; stroke-opacity: 0.9; stroke-width: 1.5; stroke-linecap: round"/>
    <defs>
     <path id="m85c1516bdd" d="M 0 -6.5 
L -1.459341 -2.00861 
L -6.181867 -2.00861 
L -2.361263 0.767221 
L -3.820604 5.25861 
L -0 2.482779 
L 3.820604 5.25861 
L 2.361263 0.767221 
L 6.181867 -2.00861 
L 1.459341 -2.00861 
z
" style="stroke: #00008b; stroke-opacity: 0.9; stroke-linejoin: bevel"/>
    </defs>
    <g clip-path="url(#p381827aeed)">
     <use xlink:href="#m85c1516bdd" x="425.651921" y="-1" style="fill-opacity: 0; stroke: #00008b; stroke-opacity: 0.9; stroke-linejoin: bevel"/>
     <use xlink:href="#m85c1516bdd" x="428.041455" y="23.398848" style="fill-opacity: 0; stroke: #00008b; stroke-opacity: 0.9; stroke-linejoin: bevel"/>
     <use xlink:href="#m85c1516bdd" x="441.453713" y="120.629952" style="fill-opacity: 0; stroke: #00008b; stroke-opacity: 0.9; stroke-linejoin: bevel"/>
     <use xlink:href="#m85c1516bdd" x="454.865919" y="188.907552" style="fill-opacity: 0; stroke: #00008b; stroke-opacity: 0.9; stroke-linejoin: bevel"/>
     <use xlink:href="#m85c1516bdd" x="467.489095" y="234.477504" style="fill-opacity: 0; stroke: #00008b; stroke-opacity: 0.9; stroke-linejoin: bevel"/>
     <use xlink:href="#m85c1516bdd" x="480.901316" y="268.853645" style="fill-opacity: 0; stroke: #00008b; stroke-opacity: 0.9; stroke-linejoin: bevel"/>
     <use xlink:href="#m85c1516bdd" x="494.313447" y="292.989139" style="fill-opacity: 0; stroke: #00008b; stroke-opacity: 0.9; stroke-linejoin: bevel"/>
     <use xlink:href="#m85c1516bdd" x="506.936614" y="305.693914" style="fill-opacity: 0; stroke: #00008b; stroke-opacity: 0.9; stroke-linejoin: bevel"/>
    </g>
   </g>
   <g id="line2d_3">
    <path d="M 117.986345 200.17152 
L 143.127727 272.727302 
L 143.234822 198.130752 
L 169.423676 273.805834 
L 170.054603 201.267936 
L 195.722062 274.347648 
L 196.090773 200.773728 
L 222.019839 274.617302 
L 222.125726 200.004768 
L 248.317006 274.750358 
L 248.949761 202.200192 
L 274.017901 273.625949 
L 274.196089 198.1152 
L 299.709628 272.43121 
L 300.231454 197.093952 
L 325.391058 271.178582 
L 325.477835 192.81456 
L 351.062127 269.874806 
L 351.513245 191.731104 
L 376.72271 268.522474 
L 376.759671 187.288416 
L 402.372442 267.121238 
L 402.795095 186.159168 
L 428.021419 265.693046 
L 428.041455 181.55664 
L 453.669609 264.237898 
L 454.076933 180.38592 
L 479.317317 262.756224 
L 479.323401 175.620096 
L 504.964645 261.24768 
L 505.358902 174.407904 
" clip-path="url(#p381827aeed)" style="fill: none; stroke: #000000; stroke-opacity: 0.9; stroke-width: 1.5; stroke-linecap: round"/>
    <defs>
     <path id="mce5036a9a0" d="M -6.5 6.5 
L 6.5 6.5 
L 6.5 -6.5 
L -6.5 -6.5 
z
" style="stroke: #000000; stroke-opacity: 0.9; stroke-linejoin: miter"/>
    </defs>
    <g clip-path="url(#p381827aeed)">
     <use xlink:href="#mce5036a9a0" x="117.986345" y="200.17152" style="fill-opacity: 0; stroke: #000000; stroke-opacity: 0.9; stroke-linejoin: miter"/>
     <use xlink:href="#mce5036a9a0" x="143.127727" y="272.727302" style="fill-opacity: 0; stroke: #000000; stroke-opacity: 0.9; stroke-linejoin: miter"/>
     <use xlink:href="#mce5036a9a0" x="143.234822" y="198.130752" style="fill-opacity: 0; stroke: #000000; stroke-opacity: 0.9; stroke-linejoin: miter"/>
     <use xlink:href="#mce5036a9a0" x="169.423676" y="273.805834" style="fill-opacity: 0; stroke: #000000; stroke-opacity: 0.9; stroke-linejoin: miter"/>
     <use xlink:href="#mce5036a9a0" x="170.054603" y="201.267936" style="fill-opacity: 0; stroke: #000000; stroke-opacity: 0.9; stroke-linejoin: miter"/>
     <use xlink:href="#mce5036a9a0" x="195.722062" y="274.347648" style="fill-opacity: 0; stroke: #000000; stroke-opacity: 0.9; stroke-linejoin: miter"/>
     <use xlink:href="#mce5036a9a0" x="196.090773" y="200.773728" style="fill-opacity: 0; stroke: #000000; stroke-opacity: 0.9; stroke-linejoin: miter"/>
     <use xlink:href="#mce5036a9a0" x="222.019839" y="274.617302" style="fill-opacity: 0; stroke: #000000; stroke-opacity: 0.9; stroke-linejoin: miter"/>
     <use xlink:href="#mce5036a9a0" x="222.125726" y="200.004768" style="fill-opacity: 0; stroke: #000000; stroke-opacity: 0.9; stroke-linejoin: miter"/>
     <use xlink:href="#mce5036a9a0" x="248.317006" y="274.750358" style="fill-opacity: 0; stroke: #000000; stroke-opacity: 0.9; stroke-linejoin: miter"/>
     <use xlink:href="#mce5036a9a0" x="248.949761" y="202.200192" style="fill-opacity: 0; stroke: #000000; stroke-opacity: 0.9; stroke-linejoin: miter"/>
     <use xlink:href="#mce5036a9a0" x="274.017901" y="273.625949" style="fill-opacity: 0; stroke: #000000; stroke-opacity: 0.9; stroke-linejoin: miter"/>
     <use xlink:href="#mce5036a9a0" x="274.196089" y="198.1152" style="fill-opacity: 0; stroke: #000000; stroke-opacity: 0.9; stroke-linejoin: miter"/>
     <use xlink:href="#mce5036a9a0" x="299.709628" y="272.43121" style="fill-opacity: 0; stroke: #000000; stroke-opacity: 0.9; stroke-linejoin: miter"/>
     <use xlink:href="#mce5036a9a0" x="300.231454" y="197.093952" style="fill-opacity: 0; stroke: #000000; stroke-opacity: 0.9; stroke-linejoin: miter"/>
     <use xlink:href="#mce5036a9a0" x="325.391058" y="271.178582" style="fill-opacity: 0; stroke: #000000; stroke-opacity: 0.9; stroke-linejoin: miter"/>
     <use xlink:href="#mce5036a9a0" x="325.477835" y="192.81456" style="fill-opacity: 0; stroke: #000000; stroke-opacity: 0.9; stroke-linejoin: miter"/>
     <use xlink:href="#mce5036a9a0" x="351.062127" y="269.874806" style="fill-opacity: 0; stroke: #000000; stroke-opacity: 0.9; stroke-linejoin: miter"/>
     <use xlink:href="#mce5036a9a0" x="351.513245" y="191.731104" style="fill-opacity: 0; stroke: #000000; stroke-opacity: 0.9; stroke-linejoin: miter"/>
     <use xlink:href="#mce5036a9a0" x="376.72271" y="268.522474" style="fill-opacity: 0; stroke: #000000; stroke-opacity: 0.9; stroke-linejoin: miter"/>
     <use xlink:href="#mce5036a9a0" x="376.759671" y="187.288416" style="fill-opacity: 0; stroke: #000000; stroke-opacity: 0.9; stroke-linejoin: miter"/>
     <use xlink:href="#mce5036a9a0" x="402.372442" y="267.121238" style="fill-opacity: 0; stroke: #000000; stroke-opacity: 0.9; stroke-linejoin: miter"/>
     <use xlink:href="#mce5036a9a0" x="402.795095" y="186.159168" style="fill-opacity: 0; stroke: #000000; stroke-opacity: 0.9; stroke-linejoin: miter"/>
     <use xlink:href="#mce5036a9a0" x="428.021419" y="265.693046" style="fill-opacity: 0; stroke: #000000; stroke-opacity: 0.9; stroke-linejoin: miter"/>
     <use xlink:href="#mce5036a9a0" x="428.041455" y="181.55664" style="fill-opacity: 0; stroke: #000000; stroke-opacity: 0.9; stroke-linejoin: miter"/>
     <use xlink:href="#mce5036a9a0" x="453.669609" y="264.237898" style="fill-opacity: 0; stroke: #000000; stroke-opacity: 0.9; stroke-linejoin: miter"/>
     <use xlink:href="#mce5036a9a0" x="454.076933" y="180.38592" style="fill-opacity: 0; stroke: #000000; stroke-opacity: 0.9; stroke-linejoin: miter"/>
     <use xlink:href="#mce5036a9a0" x="479.317317" y="262.756224" style="fill-opacity: 0; stroke: #000000; stroke-opacity: 0.9; stroke-linejoin: miter"/>
     <use xlink:href="#mce5036a9a0" x="479.323401" y="175.620096" style="fill-opacity: 0; stroke: #000000; stroke-opacity: 0.9; stroke-linejoin: miter"/>
     <use xlink:href="#mce5036a9a0" x="504.964645" y="261.24768" style="fill-opacity: 0; stroke: #000000; stroke-opacity: 0.9; stroke-linejoin: miter"/>
     <use xlink:href="#mce5036a9a0" x="505.358902" y="174.407904" style="fill-opacity: 0; stroke: #000000; stroke-opacity: 0.9; stroke-linejoin: miter"/>
    </g>
   </g>
   <g id="line2d_4">
    <path d="M 117.986345 160.339392 
L 143.414256 250.81488 
L 144.810648 160.60464 
L 169.811694 247.398624 
L 170.054603 156.370176 
L 196.231729 247.858272 
L 196.879139 159.165216 
L 222.661562 248.276448 
L 224.492111 155.33856 
L 245.793916 238.93488 
L 249.738624 148.420512 
L 275.534447 236.587392 
L 275.774002 146.88 
L 301.992877 236.877696 
L 302.598269 149.491008 
L 328.281637 236.577888 
L 328.633635 147.828672 
L 354.577801 236.272032 
L 354.668976 146.124864 
L 380.86628 235.913472 
L 383.860287 138.564 
L 407.165453 235.567008 
L 407.528794 122.689728 
L 431.197371 228.150432 
L 433.564088 120.378528 
L 454.865919 218.99376 
L 460.388599 122.802912 
L 479.323401 212.037696 
L 486.423975 120.470976 
L 503.780994 204.706656 
" clip-path="url(#p381827aeed)" style="fill: none; stroke: #8b0000; stroke-opacity: 0.9; stroke-width: 1.5; stroke-linecap: round"/>
    <defs>
     <path id="m59921fa40f" d="M -0 9.192388 
L 9.192388 0 
L 0 -9.192388 
L -9.192388 -0 
z
" style="stroke: #8b0000; stroke-opacity: 0.9; stroke-linejoin: miter"/>
    </defs>
    <g clip-path="url(#p381827aeed)">
     <use xlink:href="#m59921fa40f" x="117.986345" y="160.339392" style="fill-opacity: 0; stroke: #8b0000; stroke-opacity: 0.9; stroke-linejoin: miter"/>
     <use xlink:href="#m59921fa40f" x="143.414256" y="250.81488" style="fill-opacity: 0; stroke: #8b0000; stroke-opacity: 0.9; stroke-linejoin: miter"/>
     <use xlink:href="#m59921fa40f" x="144.810648" y="160.60464" style="fill-opacity: 0; stroke: #8b0000; stroke-opacity: 0.9; stroke-linejoin: miter"/>
     <use xlink:href="#m59921fa40f" x="169.811694" y="247.398624" style="fill-opacity: 0; stroke: #8b0000; stroke-opacity: 0.9; stroke-linejoin: miter"/>
     <use xlink:href="#m59921fa40f" x="170.054603" y="156.370176" style="fill-opacity: 0; stroke: #8b0000; stroke-opacity: 0.9; stroke-linejoin: miter"/>
     <use xlink:href="#m59921fa40f" x="196.231729" y="247.858272" style="fill-opacity: 0; stroke: #8b0000; stroke-opacity: 0.9; stroke-linejoin: miter"/>
     <use xlink:href="#m59921fa40f" x="196.879139" y="159.165216" style="fill-opacity: 0; stroke: #8b0000; stroke-opacity: 0.9; stroke-linejoin: miter"/>
     <use xlink:href="#m59921fa40f" x="222.661562" y="248.276448" style="fill-opacity: 0; stroke: #8b0000; stroke-opacity: 0.9; stroke-linejoin: miter"/>
     <use xlink:href="#m59921fa40f" x="224.492111" y="155.33856" style="fill-opacity: 0; stroke: #8b0000; stroke-opacity: 0.9; stroke-linejoin: miter"/>
     <use xlink:href="#m59921fa40f" x="245.793916" y="238.93488" style="fill-opacity: 0; stroke: #8b0000; stroke-opacity: 0.9; stroke-linejoin: miter"/>
     <use xlink:href="#m59921fa40f" x="249.738624" y="148.420512" style="fill-opacity: 0; stroke: #8b0000; stroke-opacity: 0.9; stroke-linejoin: miter"/>
     <use xlink:href="#m59921fa40f" x="275.534447" y="236.587392" style="fill-opacity: 0; stroke: #8b0000; stroke-opacity: 0.9; stroke-linejoin: miter"/>
     <use xlink:href="#m59921fa40f" x="275.774002" y="146.88" style="fill-opacity: 0; stroke: #8b0000; stroke-opacity: 0.9; stroke-linejoin: miter"/>
     <use xlink:href="#m59921fa40f" x="301.992877" y="236.877696" style="fill-opacity: 0; stroke: #8b0000; stroke-opacity: 0.9; stroke-linejoin: miter"/>
     <use xlink:href="#m59921fa40f" x="302.598269" y="149.491008" style="fill-opacity: 0; stroke: #8b0000; stroke-opacity: 0.9; stroke-linejoin: miter"/>
     <use xlink:href="#m59921fa40f" x="328.281637" y="236.577888" style="fill-opacity: 0; stroke: #8b0000; stroke-opacity: 0.9; stroke-linejoin: miter"/>
     <use xlink:href="#m59921fa40f" x="328.633635" y="147.828672" style="fill-opacity: 0; stroke: #8b0000; stroke-opacity: 0.9; stroke-linejoin: miter"/>
     <use xlink:href="#m59921fa40f" x="354.577801" y="236.272032" style="fill-opacity: 0; stroke: #8b0000; stroke-opacity: 0.9; stroke-linejoin: miter"/>
     <use xlink:href="#m59921fa40f" x="354.668976" y="146.124864" style="fill-opacity: 0; stroke: #8b0000; stroke-opacity: 0.9; stroke-linejoin: miter"/>
     <use xlink:href="#m59921fa40f" x="380.86628" y="235.913472" style="fill-opacity: 0; stroke: #8b0000; stroke-opacity: 0.9; stroke-linejoin: miter"/>
     <use xlink:href="#m59921fa40f" x="383.860287" y="138.564" style="fill-opacity: 0; stroke: #8b0000; stroke-opacity: 0.9; stroke-linejoin: miter"/>
     <use xlink:href="#m59921fa40f" x="407.165453" y="235.567008" style="fill-opacity: 0; stroke: #8b0000; stroke-opacity: 0.9; stroke-linejoin: miter"/>
     <use xlink:href="#m59921fa40f" x="407.528794" y="122.689728" style="fill-opacity: 0; stroke: #8b0000; stroke-opacity: 0.9; stroke-linejoin: miter"/>
     <use xlink:href="#m59921fa40f" x="431.197371" y="228.150432" style="fill-opacity: 0; stroke: #8b0000; stroke-opacity: 0.9; stroke-linejoin: miter"/>
     <use xlink:href="#m59921fa40f" x="433.564088" y="120.378528" style="fill-opacity: 0; stroke: #8b0000; stroke-opacity: 0.9; stroke-linejoin: miter"/>
     <use xlink:href="#m59921fa40f" x="454.865919" y="218.99376" style="fill-opacity: 0; stroke: #8b0000; stroke-opacity: 0.9; stroke-linejoin: miter"/>
     <use xlink:href="#m59921fa40f" x="460.388599" y="122.802912" style="fill-opacity: 0; stroke: #8b0000; stroke-opacity: 0.9; stroke-linejoin: miter"/>
     <use xlink:href="#m59921fa40f" x="479.323401" y="212.037696" style="fill-opacity: 0; stroke: #8b0000; stroke-opacity: 0.9; stroke-linejoin: miter"/>
     <use xlink:href="#m59921fa40f" x="486.423975" y="120.470976" style="fill-opacity: 0; stroke: #8b0000; stroke-opacity: 0.9; stroke-linejoin: miter"/>
     <use xlink:href="#m59921fa40f" x="503.780994" y="204.706656" style="fill-opacity: 0; stroke: #8b0000; stroke-opacity: 0.9; stroke-linejoin: miter"/>
    </g>
   </g>
   <g id="line2d_5">
    <path d="M 117.986345 56.832192 
L 143.127727 198.838368 
L 143.234822 70.180992 
L 169.423676 209.646144 
L 170.054603 93.513312 
L 195.722062 219.566592 
L 196.090773 110.530656 
L 222.020448 229.056768 
L 222.125726 127.378656 
L 248.31853 238.33872 
L 248.949761 148.506048 
L 274.616763 247.52304 
L 274.985026 165.202848 
L 300.915149 256.660704 
L 301.020353 182.097504 
L 327.213269 265.775126 
L 327.84477 202.315968 
L 353.510474 274.877194 
L 353.880034 219.311712 
L 379.805051 283.970189 
L 379.915454 236.546784 
L 406.088626 293.046077 
L 406.739834 255.99888 
L 432.335914 302.082048 
L 432.775286 273.360528 
L 458.484111 311.040864 
L 458.810612 290.967552 
L 484.515423 319.978944 
L 484.846074 308.822976 
L 509.303612 328.349894 
" clip-path="url(#p381827aeed)" style="fill: none; stroke: #4b0082; stroke-opacity: 0.9; stroke-width: 1.5; stroke-linecap: round"/>
    <defs>
     <path id="m14b8fb4271" d="M -0 6.5 
L 6.5 -6.5 
L -6.5 -6.5 
z
" style="stroke: #4b0082; stroke-opacity: 0.9; stroke-linejoin: miter"/>
    </defs>
    <g clip-path="url(#p381827aeed)">
     <use xlink:href="#m14b8fb4271" x="117.986345" y="56.832192" style="fill-opacity: 0; stroke: #4b0082; stroke-opacity: 0.9; stroke-linejoin: miter"/>
     <use xlink:href="#m14b8fb4271" x="143.127727" y="198.838368" style="fill-opacity: 0; stroke: #4b0082; stroke-opacity: 0.9; stroke-linejoin: miter"/>
     <use xlink:href="#m14b8fb4271" x="143.234822" y="70.180992" style="fill-opacity: 0; stroke: #4b0082; stroke-opacity: 0.9; stroke-linejoin: miter"/>
     <use xlink:href="#m14b8fb4271" x="169.423676" y="209.646144" style="fill-opacity: 0; stroke: #4b0082; stroke-opacity: 0.9; stroke-linejoin: miter"/>
     <use xlink:href="#m14b8fb4271" x="170.054603" y="93.513312" style="fill-opacity: 0; stroke: #4b0082; stroke-opacity: 0.9; stroke-linejoin: miter"/>
     <use xlink:href="#m14b8fb4271" x="195.722062" y="219.566592" style="fill-opacity: 0; stroke: #4b0082; stroke-opacity: 0.9; stroke-linejoin: miter"/>
     <use xlink:href="#m14b8fb4271" x="196.090773" y="110.530656" style="fill-opacity: 0; stroke: #4b0082; stroke-opacity: 0.9; stroke-linejoin: miter"/>
     <use xlink:href="#m14b8fb4271" x="222.020448" y="229.056768" style="fill-opacity: 0; stroke: #4b0082; stroke-opacity: 0.9; stroke-linejoin: miter"/>
     <use xlink:href="#m14b8fb4271" x="222.125726" y="127.378656" style="fill-opacity: 0; stroke: #4b0082; stroke-opacity: 0.9; stroke-linejoin: miter"/>
     <use xlink:href="#m14b8fb4271" x="248.31853" y="238.33872" style="fill-opacity: 0; stroke: #4b0082; stroke-opacity: 0.9; stroke-linejoin: miter"/>
     <use xlink:href="#m14b8fb4271" x="248.949761" y="148.506048" style="fill-opacity: 0; stroke: #4b0082; stroke-opacity: 0.9; stroke-linejoin: miter"/>
     <use xlink:href="#m14b8fb4271" x="274.616763" y="247.52304" style="fill-opacity: 0; stroke: #4b0082; stroke-opacity: 0.9; stroke-linejoin: miter"/>
     <use xlink:href="#m14b8fb4271" x="274.985026" y="165.202848" style="fill-opacity: 0; stroke: #4b0082; stroke-opacity: 0.9; stroke-linejoin: miter"/>
     <use xlink:href="#m14b8fb4271" x="300.915149" y="256.660704" style="fill-opacity: 0; stroke: #4b0082; stroke-opacity: 0.9; stroke-linejoin: miter"/>
     <use xlink:href="#m14b8fb4271" x="301.020353" y="182.097504" style="fill-opacity: 0; stroke: #4b0082; stroke-opacity: 0.9; stroke-linejoin: miter"/>
     <use xlink:href="#m14b8fb4271" x="327.213269" y="265.775126" style="fill-opacity: 0; stroke: #4b0082; stroke-opacity: 0.9; stroke-linejoin: miter"/>
     <use xlink:href="#m14b8fb4271" x="327.84477" y="202.315968" style="fill-opacity: 0; stroke: #4b0082; stroke-opacity: 0.9; stroke-linejoin: miter"/>
     <use xlink:href="#m14b8fb4271" x="353.510474" y="274.877194" style="fill-opacity: 0; stroke: #4b0082; stroke-opacity: 0.9; stroke-linejoin: miter"/>
     <use xlink:href="#m14b8fb4271" x="353.880034" y="219.311712" style="fill-opacity: 0; stroke: #4b0082; stroke-opacity: 0.9; stroke-linejoin: miter"/>
     <use xlink:href="#m14b8fb4271" x="379.805051" y="283.970189" style="fill-opacity: 0; stroke: #4b0082; stroke-opacity: 0.9; stroke-linejoin: miter"/>
     <use xlink:href="#m14b8fb4271" x="379.915454" y="236.546784" style="fill-opacity: 0; stroke: #4b0082; stroke-opacity: 0.9; stroke-linejoin: miter"/>
     <use xlink:href="#m14b8fb4271" x="406.088626" y="293.046077" style="fill-opacity: 0; stroke: #4b0082; stroke-opacity: 0.9; stroke-linejoin: miter"/>
     <use xlink:href="#m14b8fb4271" x="406.739834" y="255.99888" style="fill-opacity: 0; stroke: #4b0082; stroke-opacity: 0.9; stroke-linejoin: miter"/>
     <use xlink:href="#m14b8fb4271" x="432.335914" y="302.082048" style="fill-opacity: 0; stroke: #4b0082; stroke-opacity: 0.9; stroke-linejoin: miter"/>
     <use xlink:href="#m14b8fb4271" x="432.775286" y="273.360528" style="fill-opacity: 0; stroke: #4b0082; stroke-opacity: 0.9; stroke-linejoin: miter"/>
     <use xlink:href="#m14b8fb4271" x="458.484111" y="311.040864" style="fill-opacity: 0; stroke: #4b0082; stroke-opacity: 0.9; stroke-linejoin: miter"/>
     <use xlink:href="#m14b8fb4271" x="458.810612" y="290.967552" style="fill-opacity: 0; stroke: #4b0082; stroke-opacity: 0.9; stroke-linejoin: miter"/>
     <use xlink:href="#m14b8fb4271" x="484.515423" y="319.978944" style="fill-opacity: 0; stroke: #4b0082; stroke-opacity: 0.9; stroke-linejoin: miter"/>
     <use xlink:href="#m14b8fb4271" x="484.846074" y="308.822976" style="fill-opacity: 0; stroke: #4b0082; stroke-opacity: 0.9; stroke-linejoin: miter"/>
     <use xlink:href="#m14b8fb4271" x="509.303612" y="328.349894" style="fill-opacity: 0; stroke: #4b0082; stroke-opacity: 0.9; stroke-linejoin: miter"/>
    </g>
   </g>
   <g id="patch_3">
    <path d="M 110.16 349.92 
L 110.16 47.52 
" style="fill: none; stroke: #cccccc; stroke-width: 1.25; stroke-linejoin: miter; stroke-linecap: square"/>
   </g>
   <g id="patch_4">
    <path d="M 110.16 349.92 
L 517.129957 349.92 
" style="fill: none; stroke: #cccccc; stroke-width: 1.25; stroke-linejoin: miter; stroke-linecap: square"/>
   </g>
   <g id="legend_1">
    <g id="line2d_6">
     <path d="M 38.22975 14.94 
L 77.82975 14.94 
L 117.42975 14.94 
" style="fill: none; stroke: #006400; stroke-opacity: 0.9; stroke-width: 1.5; stroke-linecap: round"/>
     <g>
      <use xlink:href="#m1f4782564b" x="77.82975" y="14.94" style="fill-opacity: 0; stroke: #006400; stroke-opacity: 0.9"/>
     </g>
    </g>
    <g id="text_12">
     <!-- Sphinx -->
     <g style="fill: #262626" transform="translate(123.76575 28.8) scale(0.396 -0.396)">
      <defs>
       <path id="TimesNewRomanPSMT-53" d="M 2934 4334 
L 2934 2869 
L 2819 2869 
Q 2763 3291 2617 3541 
Q 2472 3791 2203 3937 
Q 1934 4084 1647 4084 
Q 1322 4084 1109 3886 
Q 897 3688 897 3434 
Q 897 3241 1031 3081 
Q 1225 2847 1953 2456 
Q 2547 2138 2764 1967 
Q 2981 1797 3098 1565 
Q 3216 1334 3216 1081 
Q 3216 600 2842 251 
Q 2469 -97 1881 -97 
Q 1697 -97 1534 -69 
Q 1438 -53 1133 45 
Q 828 144 747 144 
Q 669 144 623 97 
Q 578 50 556 -97 
L 441 -97 
L 441 1356 
L 556 1356 
Q 638 900 775 673 
Q 913 447 1195 297 
Q 1478 147 1816 147 
Q 2206 147 2432 353 
Q 2659 559 2659 841 
Q 2659 997 2573 1156 
Q 2488 1316 2306 1453 
Q 2184 1547 1640 1851 
Q 1097 2156 867 2337 
Q 638 2519 519 2737 
Q 400 2956 400 3219 
Q 400 3675 750 4004 
Q 1100 4334 1641 4334 
Q 1978 4334 2356 4169 
Q 2531 4091 2603 4091 
Q 2684 4091 2736 4139 
Q 2788 4188 2819 4334 
L 2934 4334 
z
" transform="scale(0.015625)"/>
       <path id="TimesNewRomanPSMT-70" d="M -6 2578 
L 875 2934 
L 994 2934 
L 994 2266 
Q 1216 2644 1439 2795 
Q 1663 2947 1909 2947 
Q 2341 2947 2628 2609 
Q 2981 2197 2981 1534 
Q 2981 794 2556 309 
Q 2206 -88 1675 -88 
Q 1444 -88 1275 -22 
Q 1150 25 994 166 
L 994 -706 
Q 994 -1000 1030 -1079 
Q 1066 -1159 1155 -1206 
Q 1244 -1253 1478 -1253 
L 1478 -1369 
L -22 -1369 
L -22 -1253 
L 56 -1253 
Q 228 -1256 350 -1188 
Q 409 -1153 442 -1076 
Q 475 -1000 475 -688 
L 475 2019 
Q 475 2297 450 2372 
Q 425 2447 370 2484 
Q 316 2522 222 2522 
Q 147 2522 31 2478 
L -6 2578 
z
M 994 2081 
L 994 1013 
Q 994 666 1022 556 
Q 1066 375 1236 237 
Q 1406 100 1666 100 
Q 1978 100 2172 344 
Q 2425 663 2425 1241 
Q 2425 1897 2138 2250 
Q 1938 2494 1663 2494 
Q 1513 2494 1366 2419 
Q 1253 2363 994 2081 
z
" transform="scale(0.015625)"/>
       <path id="TimesNewRomanPSMT-68" d="M 1041 4444 
L 1041 2350 
Q 1388 2731 1591 2839 
Q 1794 2947 1997 2947 
Q 2241 2947 2416 2812 
Q 2591 2678 2675 2391 
Q 2734 2191 2734 1659 
L 2734 647 
Q 2734 375 2778 275 
Q 2809 200 2884 156 
Q 2959 113 3159 113 
L 3159 0 
L 1753 0 
L 1753 113 
L 1819 113 
Q 2019 113 2097 173 
Q 2175 234 2206 353 
Q 2216 403 2216 647 
L 2216 1659 
Q 2216 2128 2167 2275 
Q 2119 2422 2012 2495 
Q 1906 2569 1756 2569 
Q 1603 2569 1437 2487 
Q 1272 2406 1041 2159 
L 1041 647 
Q 1041 353 1073 281 
Q 1106 209 1195 161 
Q 1284 113 1503 113 
L 1503 0 
L 84 0 
L 84 113 
Q 275 113 384 172 
Q 447 203 484 290 
Q 522 378 522 647 
L 522 3238 
Q 522 3728 498 3840 
Q 475 3953 426 3993 
Q 378 4034 297 4034 
Q 231 4034 84 3984 
L 41 4094 
L 897 4444 
L 1041 4444 
z
" transform="scale(0.015625)"/>
       <path id="TimesNewRomanPSMT-78" d="M 84 2863 
L 1431 2863 
L 1431 2747 
Q 1303 2747 1251 2703 
Q 1200 2659 1200 2588 
Q 1200 2513 1309 2356 
Q 1344 2306 1413 2200 
L 1616 1875 
L 1850 2200 
Q 2075 2509 2075 2591 
Q 2075 2656 2022 2701 
Q 1969 2747 1850 2747 
L 1850 2863 
L 2819 2863 
L 2819 2747 
Q 2666 2738 2553 2663 
Q 2400 2556 2134 2200 
L 1744 1678 
L 2456 653 
Q 2719 275 2831 198 
Q 2944 122 3122 113 
L 3122 0 
L 1772 0 
L 1772 113 
Q 1913 113 1991 175 
Q 2050 219 2050 291 
Q 2050 363 1850 653 
L 1431 1266 
L 972 653 
Q 759 369 759 316 
Q 759 241 829 180 
Q 900 119 1041 113 
L 1041 0 
L 106 0 
L 106 113 
Q 219 128 303 191 
Q 422 281 703 653 
L 1303 1450 
L 759 2238 
Q 528 2575 401 2661 
Q 275 2747 84 2747 
L 84 2863 
z
" transform="scale(0.015625)"/>
      </defs>
      <use xlink:href="#TimesNewRomanPSMT-53"/>
      <use xlink:href="#TimesNewRomanPSMT-70" x="55.615234"/>
      <use xlink:href="#TimesNewRomanPSMT-68" x="105.615234"/>
      <use xlink:href="#TimesNewRomanPSMT-69" x="155.615234"/>
      <use xlink:href="#TimesNewRomanPSMT-6e" x="183.398438"/>
      <use xlink:href="#TimesNewRomanPSMT-78" x="233.398438"/>
     </g>
    </g>
    <g id="line2d_7">
     <path d="M 259.748437 14.94 
L 299.348437 14.94 
L 338.948437 14.94 
" style="fill: none; stroke: #000000; stroke-opacity: 0.9; stroke-width: 1.5; stroke-linecap: round"/>
     <g>
      <use xlink:href="#mce5036a9a0" x="299.348437" y="14.94" style="fill-opacity: 0; stroke: #000000; stroke-opacity: 0.9; stroke-linejoin: miter"/>
     </g>
    </g>
    <g id="text_13">
     <!-- Aleph -->
     <g style="fill: #262626" transform="translate(345.284437 28.8) scale(0.396 -0.396)">
      <defs>
       <path id="TimesNewRomanPSMT-41" d="M 2928 1419 
L 1288 1419 
L 1000 750 
Q 894 503 894 381 
Q 894 284 986 211 
Q 1078 138 1384 116 
L 1384 0 
L 50 0 
L 50 116 
Q 316 163 394 238 
Q 553 388 747 847 
L 2238 4334 
L 2347 4334 
L 3822 809 
Q 4000 384 4145 257 
Q 4291 131 4550 116 
L 4550 0 
L 2878 0 
L 2878 116 
Q 3131 128 3220 200 
Q 3309 272 3309 375 
Q 3309 513 3184 809 
L 2928 1419 
z
M 2841 1650 
L 2122 3363 
L 1384 1650 
L 2841 1650 
z
" transform="scale(0.015625)"/>
       <path id="TimesNewRomanPSMT-6c" d="M 1184 4444 
L 1184 647 
Q 1184 378 1223 290 
Q 1263 203 1344 158 
Q 1425 113 1647 113 
L 1647 0 
L 244 0 
L 244 113 
Q 441 113 512 153 
Q 584 194 625 287 
Q 666 381 666 647 
L 666 3247 
Q 666 3731 644 3842 
Q 622 3953 573 3993 
Q 525 4034 450 4034 
Q 369 4034 244 3984 
L 191 4094 
L 1044 4444 
L 1184 4444 
z
" transform="scale(0.015625)"/>
      </defs>
      <use xlink:href="#TimesNewRomanPSMT-41"/>
      <use xlink:href="#TimesNewRomanPSMT-6c" x="72.216797"/>
      <use xlink:href="#TimesNewRomanPSMT-65" x="100"/>
      <use xlink:href="#TimesNewRomanPSMT-70" x="144.384766"/>
      <use xlink:href="#TimesNewRomanPSMT-68" x="194.384766"/>
     </g>
    </g>
    <g id="line2d_8">
     <path d="M 465.823125 14.94 
L 505.423125 14.94 
L 545.023125 14.94 
" style="fill: none; stroke: #8b0000; stroke-opacity: 0.9; stroke-width: 1.5; stroke-linecap: round"/>
     <g>
      <use xlink:href="#m59921fa40f" x="505.423125" y="14.94" style="fill-opacity: 0; stroke: #8b0000; stroke-opacity: 0.9; stroke-linejoin: miter"/>
     </g>
    </g>
    <g id="text_14">
     <!-- Adaptive Aleph -->
     <g style="fill: #262626" transform="translate(551.359125 28.8) scale(0.396 -0.396)">
      <defs>
       <path id="TimesNewRomanPSMT-64" d="M 2222 322 
Q 2013 103 1813 7 
Q 1613 -88 1381 -88 
Q 913 -88 563 304 
Q 213 697 213 1313 
Q 213 1928 600 2439 
Q 988 2950 1597 2950 
Q 1975 2950 2222 2709 
L 2222 3238 
Q 2222 3728 2198 3840 
Q 2175 3953 2125 3993 
Q 2075 4034 2000 4034 
Q 1919 4034 1784 3984 
L 1744 4094 
L 2597 4444 
L 2738 4444 
L 2738 1134 
Q 2738 631 2761 520 
Q 2784 409 2836 365 
Q 2888 322 2956 322 
Q 3041 322 3181 375 
L 3216 266 
L 2366 -88 
L 2222 -88 
L 2222 322 
z
M 2222 541 
L 2222 2016 
Q 2203 2228 2109 2403 
Q 2016 2578 1861 2667 
Q 1706 2756 1559 2756 
Q 1284 2756 1069 2509 
Q 784 2184 784 1559 
Q 784 928 1059 592 
Q 1334 256 1672 256 
Q 1956 256 2222 541 
z
" transform="scale(0.015625)"/>
       <path id="TimesNewRomanPSMT-61" d="M 1822 413 
Q 1381 72 1269 19 
Q 1100 -59 909 -59 
Q 613 -59 420 144 
Q 228 347 228 678 
Q 228 888 322 1041 
Q 450 1253 767 1440 
Q 1084 1628 1822 1897 
L 1822 2009 
Q 1822 2438 1686 2597 
Q 1550 2756 1291 2756 
Q 1094 2756 978 2650 
Q 859 2544 859 2406 
L 866 2225 
Q 866 2081 792 2003 
Q 719 1925 600 1925 
Q 484 1925 411 2006 
Q 338 2088 338 2228 
Q 338 2497 613 2722 
Q 888 2947 1384 2947 
Q 1766 2947 2009 2819 
Q 2194 2722 2281 2516 
Q 2338 2381 2338 1966 
L 2338 994 
Q 2338 584 2353 492 
Q 2369 400 2405 369 
Q 2441 338 2488 338 
Q 2538 338 2575 359 
Q 2641 400 2828 588 
L 2828 413 
Q 2478 -56 2159 -56 
Q 2006 -56 1915 50 
Q 1825 156 1822 413 
z
M 1822 616 
L 1822 1706 
Q 1350 1519 1213 1441 
Q 966 1303 859 1153 
Q 753 1003 753 825 
Q 753 600 887 451 
Q 1022 303 1197 303 
Q 1434 303 1822 616 
z
" transform="scale(0.015625)"/>
       <path id="TimesNewRomanPSMT-76" d="M 53 2863 
L 1400 2863 
L 1400 2747 
L 1313 2747 
Q 1191 2747 1127 2687 
Q 1063 2628 1063 2528 
Q 1063 2419 1128 2269 
L 1794 688 
L 2463 2328 
Q 2534 2503 2534 2594 
Q 2534 2638 2509 2666 
Q 2475 2713 2422 2730 
Q 2369 2747 2206 2747 
L 2206 2863 
L 3141 2863 
L 3141 2747 
Q 2978 2734 2916 2681 
Q 2806 2588 2719 2369 
L 1703 -88 
L 1575 -88 
L 553 2328 
Q 484 2497 421 2570 
Q 359 2644 263 2694 
Q 209 2722 53 2747 
L 53 2863 
z
" transform="scale(0.015625)"/>
       <path id="TimesNewRomanPSMT-20" transform="scale(0.015625)"/>
      </defs>
      <use xlink:href="#TimesNewRomanPSMT-41"/>
      <use xlink:href="#TimesNewRomanPSMT-64" x="72.216797"/>
      <use xlink:href="#TimesNewRomanPSMT-61" x="122.216797"/>
      <use xlink:href="#TimesNewRomanPSMT-70" x="166.601562"/>
      <use xlink:href="#TimesNewRomanPSMT-74" x="216.601562"/>
      <use xlink:href="#TimesNewRomanPSMT-69" x="244.384766"/>
      <use xlink:href="#TimesNewRomanPSMT-76" x="272.167969"/>
      <use xlink:href="#TimesNewRomanPSMT-65" x="322.167969"/>
      <use xlink:href="#TimesNewRomanPSMT-20" x="366.552734"/>
      <use xlink:href="#TimesNewRomanPSMT-41" x="386.052734"/>
      <use xlink:href="#TimesNewRomanPSMT-6c" x="458.269531"/>
      <use xlink:href="#TimesNewRomanPSMT-65" x="486.052734"/>
      <use xlink:href="#TimesNewRomanPSMT-70" x="530.4375"/>
      <use xlink:href="#TimesNewRomanPSMT-68" x="580.4375"/>
     </g>
    </g>
    <g id="line2d_9">
     <path d="M 824.778562 14.94 
L 864.378562 14.94 
L 903.978562 14.94 
" style="fill: none; stroke: #4b0082; stroke-opacity: 0.9; stroke-width: 1.5; stroke-linecap: round"/>
     <g>
      <use xlink:href="#m14b8fb4271" x="864.378562" y="14.94" style="fill-opacity: 0; stroke: #4b0082; stroke-opacity: 0.9; stroke-linejoin: miter"/>
     </g>
    </g>
    <g id="text_15">
     <!-- RSQF -->
     <g style="fill: #262626" transform="translate(910.314562 28.8) scale(0.396 -0.396)">
      <defs>
       <path id="TimesNewRomanPSMT-52" d="M 4325 0 
L 3194 0 
L 1759 1981 
Q 1600 1975 1500 1975 
Q 1459 1975 1412 1976 
Q 1366 1978 1316 1981 
L 1316 750 
Q 1316 350 1403 253 
Q 1522 116 1759 116 
L 1925 116 
L 1925 0 
L 109 0 
L 109 116 
L 269 116 
Q 538 116 653 291 
Q 719 388 719 750 
L 719 3488 
Q 719 3888 631 3984 
Q 509 4122 269 4122 
L 109 4122 
L 109 4238 
L 1653 4238 
Q 2328 4238 2648 4139 
Q 2969 4041 3192 3777 
Q 3416 3513 3416 3147 
Q 3416 2756 3161 2468 
Q 2906 2181 2372 2063 
L 3247 847 
Q 3547 428 3762 290 
Q 3978 153 4325 116 
L 4325 0 
z
M 1316 2178 
Q 1375 2178 1419 2176 
Q 1463 2175 1491 2175 
Q 2097 2175 2405 2437 
Q 2713 2700 2713 3106 
Q 2713 3503 2464 3751 
Q 2216 4000 1806 4000 
Q 1625 4000 1316 3941 
L 1316 2178 
z
" transform="scale(0.015625)"/>
       <path id="TimesNewRomanPSMT-51" d="M 2819 -47 
Q 3138 -597 3508 -856 
Q 3878 -1116 4350 -1153 
L 4350 -1253 
Q 3919 -1238 3428 -1080 
Q 2938 -922 2498 -642 
Q 2059 -363 1741 -47 
Q 1291 134 1028 338 
Q 647 641 436 1083 
Q 225 1525 225 2128 
Q 225 3078 840 3706 
Q 1456 4334 2331 4334 
Q 3163 4334 3770 3704 
Q 4378 3075 4378 2116 
Q 4378 1338 3945 750 
Q 3513 163 2819 -47 
z
M 2294 4094 
Q 1725 4094 1378 3688 
Q 941 3178 941 2128 
Q 941 1100 1384 544 
Q 1728 116 2294 116 
Q 2881 116 3241 544 
Q 3663 1050 3663 2038 
Q 3663 2797 3431 3316 
Q 3253 3716 2958 3905 
Q 2663 4094 2294 4094 
z
" transform="scale(0.015625)"/>
       <path id="TimesNewRomanPSMT-46" d="M 1309 4006 
L 1309 2341 
L 2081 2341 
Q 2347 2341 2470 2458 
Q 2594 2575 2634 2922 
L 2750 2922 
L 2750 1488 
L 2634 1488 
Q 2631 1734 2570 1850 
Q 2509 1966 2401 2023 
Q 2294 2081 2081 2081 
L 1309 2081 
L 1309 750 
Q 1309 428 1350 325 
Q 1381 247 1481 191 
Q 1619 116 1769 116 
L 1922 116 
L 1922 0 
L 103 0 
L 103 116 
L 253 116 
Q 516 116 634 269 
Q 709 369 709 750 
L 709 3488 
Q 709 3809 669 3913 
Q 638 3991 541 4047 
Q 406 4122 253 4122 
L 103 4122 
L 103 4238 
L 3256 4238 
L 3297 3306 
L 3188 3306 
Q 3106 3603 2998 3742 
Q 2891 3881 2733 3943 
Q 2575 4006 2244 4006 
L 1309 4006 
z
" transform="scale(0.015625)"/>
      </defs>
      <use xlink:href="#TimesNewRomanPSMT-52"/>
      <use xlink:href="#TimesNewRomanPSMT-53" x="66.699219"/>
      <use xlink:href="#TimesNewRomanPSMT-51" x="122.314453"/>
      <use xlink:href="#TimesNewRomanPSMT-46" x="194.53125"/>
     </g>
    </g>
   </g>
  </g>
  <g id="axes_2">
   <g id="patch_5">
    <path d="M 651.430043 349.92 
L 1058.4 349.92 
L 1058.4 47.52 
L 651.430043 47.52 
z
" style="fill: #ffffff"/>
   </g>
   <g id="matplotlib.axis_3">
    <g id="xtick_6">
     <g id="text_16">
      <!-- $\mathdefault{10^{4}}$ -->
      <g style="fill: #262626" transform="translate(674.154084 392.754847) scale(0.3762 -0.3762)">
       <use xlink:href="#TimesNewRomanPSMT-31" transform="translate(0 0.582813)"/>
       <use xlink:href="#TimesNewRomanPSMT-30" transform="translate(50 0.582813)"/>
       <use xlink:href="#TimesNewRomanPSMT-34" transform="translate(101.502813 60.695312) scale(0.7)"/>
      </g>
     </g>
    </g>
    <g id="xtick_7">
     <g id="text_17">
      <!-- $\mathdefault{10^{5}}$ -->
      <g style="fill: #262626" transform="translate(760.815949 392.378647) scale(0.3762 -0.3762)">
       <use xlink:href="#TimesNewRomanPSMT-31" transform="translate(0 0.534375)"/>
       <use xlink:href="#TimesNewRomanPSMT-30" transform="translate(50 0.534375)"/>
       <use xlink:href="#TimesNewRomanPSMT-35" transform="translate(101.502813 60.646875) scale(0.7)"/>
      </g>
     </g>
    </g>
    <g id="xtick_8">
     <g id="text_18">
      <!-- $\mathdefault{10^{6}}$ -->
      <g style="fill: #262626" transform="translate(847.477814 392.754847) scale(0.3762 -0.3762)">
       <use xlink:href="#TimesNewRomanPSMT-31" transform="translate(0 0.582813)"/>
       <use xlink:href="#TimesNewRomanPSMT-30" transform="translate(50 0.582813)"/>
       <use xlink:href="#TimesNewRomanPSMT-36" transform="translate(101.502813 60.695312) scale(0.7)"/>
      </g>
     </g>
    </g>
    <g id="xtick_9">
     <g id="text_19">
      <!-- $\mathdefault{10^{7}}$ -->
      <g style="fill: #262626" transform="translate(934.139679 392.378647) scale(0.3762 -0.3762)">
       <use xlink:href="#TimesNewRomanPSMT-31" transform="translate(0 0.534375)"/>
       <use xlink:href="#TimesNewRomanPSMT-30" transform="translate(50 0.534375)"/>
       <use xlink:href="#TimesNewRomanPSMT-37" transform="translate(101.502813 60.646875) scale(0.7)"/>
      </g>
     </g>
    </g>
    <g id="xtick_10">
     <g id="text_20">
      <!-- $\mathdefault{10^{8}}$ -->
      <g style="fill: #262626" transform="translate(1020.801545 392.754847) scale(0.3762 -0.3762)">
       <use xlink:href="#TimesNewRomanPSMT-31" transform="translate(0 0.582813)"/>
       <use xlink:href="#TimesNewRomanPSMT-30" transform="translate(50 0.582813)"/>
       <use xlink:href="#TimesNewRomanPSMT-38" transform="translate(101.502813 60.695312) scale(0.7)"/>
      </g>
     </g>
    </g>
    <g id="text_21">
     <!-- #entries -->
     <g style="fill: #262626" transform="translate(792.235646 428.82525) scale(0.396 -0.396)">
      <use xlink:href="#TimesNewRomanPSMT-23"/>
      <use xlink:href="#TimesNewRomanPSMT-65" x="50"/>
      <use xlink:href="#TimesNewRomanPSMT-6e" x="94.384766"/>
      <use xlink:href="#TimesNewRomanPSMT-74" x="144.384766"/>
      <use xlink:href="#TimesNewRomanPSMT-72" x="172.167969"/>
      <use xlink:href="#TimesNewRomanPSMT-69" x="205.46875"/>
      <use xlink:href="#TimesNewRomanPSMT-65" x="233.251953"/>
      <use xlink:href="#TimesNewRomanPSMT-73" x="277.636719"/>
     </g>
    </g>
   </g>
   <g id="matplotlib.axis_4">
    <g id="ytick_5">
     <g id="text_22">
      <!-- $\mathdefault{0}$ -->
      <g style="fill: #262626" transform="translate(623.120043 349.235739) scale(0.3762 -0.3762)">
       <use xlink:href="#TimesNewRomanPSMT-30" transform="translate(0 0.421875)"/>
      </g>
     </g>
    </g>
    <g id="ytick_6">
     <g id="text_23">
      <!-- $\mathdefault{10^{-6}}$ -->
      <g style="fill: #262626" transform="translate(573.837843 309.334895) scale(0.3762 -0.3762)">
       <defs>
        <path id="TimesNewRomanPSMT-2212" d="M 3484 2000 
L 116 2000 
L 116 2256 
L 3484 2256 
L 3484 2000 
z
" transform="scale(0.015625)"/>
       </defs>
       <use xlink:href="#TimesNewRomanPSMT-31" transform="translate(0 0.582813)"/>
       <use xlink:href="#TimesNewRomanPSMT-30" transform="translate(50 0.582813)"/>
       <use xlink:href="#TimesNewRomanPSMT-2212" transform="translate(101.502813 60.695312) scale(0.7)"/>
       <use xlink:href="#TimesNewRomanPSMT-36" transform="translate(140.980352 60.695312) scale(0.7)"/>
      </g>
     </g>
    </g>
    <g id="ytick_7">
     <g id="text_24">
      <!-- $\mathdefault{10^{-5}}$ -->
      <g style="fill: #262626" transform="translate(573.837843 269.990429) scale(0.3762 -0.3762)">
       <use xlink:href="#TimesNewRomanPSMT-31" transform="translate(0 0.534375)"/>
       <use xlink:href="#TimesNewRomanPSMT-30" transform="translate(50 0.534375)"/>
       <use xlink:href="#TimesNewRomanPSMT-2212" transform="translate(101.502813 60.646875) scale(0.7)"/>
       <use xlink:href="#TimesNewRomanPSMT-35" transform="translate(140.980352 60.646875) scale(0.7)"/>
      </g>
     </g>
    </g>
    <g id="ytick_8">
     <g id="text_25">
      <!-- $\mathdefault{10^{-4}}$ -->
      <g style="fill: #262626" transform="translate(573.837843 231.022163) scale(0.3762 -0.3762)">
       <use xlink:href="#TimesNewRomanPSMT-31" transform="translate(0 0.582813)"/>
       <use xlink:href="#TimesNewRomanPSMT-30" transform="translate(50 0.582813)"/>
       <use xlink:href="#TimesNewRomanPSMT-2212" transform="translate(101.502813 60.695312) scale(0.7)"/>
       <use xlink:href="#TimesNewRomanPSMT-34" transform="translate(140.980352 60.695312) scale(0.7)"/>
      </g>
     </g>
    </g>
    <g id="ytick_9">
     <g id="text_26">
      <!-- $\mathdefault{10^{-3}}$ -->
      <g style="fill: #262626" transform="translate(573.837843 191.865796) scale(0.3762 -0.3762)">
       <use xlink:href="#TimesNewRomanPSMT-31" transform="translate(0 0.582813)"/>
       <use xlink:href="#TimesNewRomanPSMT-30" transform="translate(50 0.582813)"/>
       <use xlink:href="#TimesNewRomanPSMT-2212" transform="translate(101.502813 60.695312) scale(0.7)"/>
       <use xlink:href="#TimesNewRomanPSMT-33" transform="translate(140.980352 60.695312) scale(0.7)"/>
      </g>
     </g>
    </g>
    <g id="ytick_10">
     <g id="text_27">
      <!-- $\mathdefault{10^{-2}}$ -->
      <g style="fill: #262626" transform="translate(573.837843 152.70943) scale(0.3762 -0.3762)">
       <use xlink:href="#TimesNewRomanPSMT-31" transform="translate(0 0.582813)"/>
       <use xlink:href="#TimesNewRomanPSMT-30" transform="translate(50 0.582813)"/>
       <use xlink:href="#TimesNewRomanPSMT-2212" transform="translate(101.502813 60.695312) scale(0.7)"/>
       <use xlink:href="#TimesNewRomanPSMT-32" transform="translate(140.980352 60.695312) scale(0.7)"/>
      </g>
     </g>
    </g>
    <g id="ytick_11">
     <g id="text_28">
      <!-- $\mathdefault{10^{-1}}$ -->
      <g style="fill: #262626" transform="translate(573.837843 113.553064) scale(0.3762 -0.3762)">
       <use xlink:href="#TimesNewRomanPSMT-31" transform="translate(0 0.582813)"/>
       <use xlink:href="#TimesNewRomanPSMT-30" transform="translate(50 0.582813)"/>
       <use xlink:href="#TimesNewRomanPSMT-2212" transform="translate(101.502813 60.695312) scale(0.7)"/>
       <use xlink:href="#TimesNewRomanPSMT-31" transform="translate(140.980352 60.695312) scale(0.7)"/>
      </g>
     </g>
    </g>
    <g id="ytick_12">
     <g id="text_29">
      <!-- $\mathdefault{10^{0}}$ -->
      <g style="fill: #262626" transform="translate(588.885843 74.396697) scale(0.3762 -0.3762)">
       <use xlink:href="#TimesNewRomanPSMT-31" transform="translate(0 0.582813)"/>
       <use xlink:href="#TimesNewRomanPSMT-30" transform="translate(50 0.582813)"/>
       <use xlink:href="#TimesNewRomanPSMT-30" transform="translate(101.502813 60.695312) scale(0.7)"/>
      </g>
     </g>
    </g>
    <g id="text_30">
     <!-- false positive rate -->
     <g style="fill: #262626" transform="translate(561.367155 346.0815) rotate(-90) scale(0.396 -0.396)">
      <defs>
       <path id="TimesNewRomanPS-BoldMT-66" d="M 1497 2616 
L 1497 588 
Q 1497 294 1559 219 
Q 1659 103 1928 113 
L 1928 0 
L 206 0 
L 206 113 
Q 403 116 486 158 
Q 569 200 600 275 
Q 631 350 631 588 
L 631 2616 
L 206 2616 
L 206 2922 
L 631 2922 
L 631 3138 
L 628 3284 
Q 628 3734 958 4034 
Q 1288 4334 1850 4334 
Q 2234 4334 2420 4190 
Q 2606 4047 2606 3872 
Q 2606 3731 2490 3628 
Q 2375 3525 2184 3525 
Q 2022 3525 1926 3609 
Q 1831 3694 1831 3797 
Q 1831 3825 1850 3913 
Q 1863 3966 1863 4013 
Q 1863 4078 1825 4109 
Q 1775 4156 1703 4156 
Q 1613 4156 1552 4081 
Q 1491 4006 1491 3841 
L 1497 3294 
L 1497 2922 
L 1928 2922 
L 1928 2616 
L 1497 2616 
z
" transform="scale(0.015625)"/>
       <path id="TimesNewRomanPS-BoldMT-61" d="M 1828 431 
Q 1294 -41 869 -41 
Q 619 -41 453 123 
Q 288 288 288 534 
Q 288 869 575 1136 
Q 863 1403 1828 1847 
L 1828 2141 
Q 1828 2472 1792 2558 
Q 1756 2644 1656 2708 
Q 1556 2772 1431 2772 
Q 1228 2772 1097 2681 
Q 1016 2625 1016 2550 
Q 1016 2484 1103 2388 
Q 1222 2253 1222 2128 
Q 1222 1975 1108 1867 
Q 994 1759 809 1759 
Q 613 1759 480 1878 
Q 347 1997 347 2156 
Q 347 2381 525 2586 
Q 703 2791 1022 2900 
Q 1341 3009 1684 3009 
Q 2100 3009 2342 2832 
Q 2584 2656 2656 2450 
Q 2700 2319 2700 1847 
L 2700 713 
Q 2700 513 2715 461 
Q 2731 409 2762 384 
Q 2794 359 2834 359 
Q 2916 359 3000 475 
L 3094 400 
Q 2938 169 2770 64 
Q 2603 -41 2391 -41 
Q 2141 -41 2000 76 
Q 1859 194 1828 431 
z
M 1828 659 
L 1828 1638 
Q 1450 1416 1266 1163 
Q 1144 994 1144 822 
Q 1144 678 1247 569 
Q 1325 484 1466 484 
Q 1622 484 1828 659 
z
" transform="scale(0.015625)"/>
       <path id="TimesNewRomanPS-BoldMT-6c" d="M 1359 4238 
L 1359 606 
Q 1359 297 1431 211 
Q 1503 125 1713 113 
L 1713 0 
L 134 0 
L 134 113 
Q 328 119 422 225 
Q 484 297 484 606 
L 484 3631 
Q 484 3938 412 4023 
Q 341 4109 134 4122 
L 134 4238 
L 1359 4238 
z
" transform="scale(0.015625)"/>
       <path id="TimesNewRomanPS-BoldMT-70" d="M 1347 297 
L 1347 -791 
Q 1347 -1016 1383 -1097 
Q 1419 -1178 1494 -1215 
Q 1569 -1253 1788 -1253 
L 1788 -1369 
L 122 -1369 
L 122 -1253 
Q 316 -1247 409 -1144 
Q 472 -1072 472 -772 
L 472 2313 
Q 472 2622 400 2708 
Q 328 2794 122 2806 
L 122 2922 
L 1347 2922 
L 1347 2538 
Q 1500 2763 1659 2863 
Q 1888 3009 2156 3009 
Q 2478 3009 2742 2806 
Q 3006 2603 3143 2245 
Q 3281 1888 3281 1475 
Q 3281 1031 3139 664 
Q 2997 297 2726 104 
Q 2456 -88 2125 -88 
Q 1884 -88 1675 19 
Q 1519 100 1347 297 
z
M 1347 613 
Q 1616 231 1922 231 
Q 2091 231 2200 409 
Q 2363 672 2363 1409 
Q 2363 2166 2184 2444 
Q 2066 2628 1866 2628 
Q 1550 2628 1347 2172 
L 1347 613 
z
" transform="scale(0.015625)"/>
       <path id="TimesNewRomanPS-BoldMT-76" d="M 1534 -88 
L 550 2178 
Q 372 2588 272 2697 
Q 200 2778 59 2806 
L 59 2922 
L 1613 2922 
L 1613 2806 
Q 1466 2806 1413 2753 
Q 1338 2684 1338 2591 
Q 1338 2475 1475 2156 
L 1956 1059 
L 2341 2006 
Q 2506 2413 2506 2581 
Q 2506 2678 2436 2739 
Q 2366 2800 2188 2806 
L 2188 2922 
L 3144 2922 
L 3144 2806 
Q 3006 2788 2918 2703 
Q 2831 2619 2656 2206 
L 1681 -88 
L 1534 -88 
z
" transform="scale(0.015625)"/>
      </defs>
      <use xlink:href="#TimesNewRomanPS-BoldMT-66"/>
      <use xlink:href="#TimesNewRomanPS-BoldMT-61" x="33.300781"/>
      <use xlink:href="#TimesNewRomanPS-BoldMT-6c" x="83.300781"/>
      <use xlink:href="#TimesNewRomanPS-BoldMT-73" x="111.083984"/>
      <use xlink:href="#TimesNewRomanPS-BoldMT-65" x="150"/>
      <use xlink:href="#TimesNewRomanPS-BoldMT-20" x="194.384766"/>
      <use xlink:href="#TimesNewRomanPS-BoldMT-70" x="219.384766"/>
      <use xlink:href="#TimesNewRomanPS-BoldMT-6f" x="275"/>
      <use xlink:href="#TimesNewRomanPS-BoldMT-73" x="325"/>
      <use xlink:href="#TimesNewRomanPS-BoldMT-69" x="363.916016"/>
      <use xlink:href="#TimesNewRomanPS-BoldMT-74" x="391.699219"/>
      <use xlink:href="#TimesNewRomanPS-BoldMT-69" x="425"/>
      <use xlink:href="#TimesNewRomanPS-BoldMT-76" x="452.783203"/>
      <use xlink:href="#TimesNewRomanPS-BoldMT-65" x="502.783203"/>
      <use xlink:href="#TimesNewRomanPS-BoldMT-20" x="547.167969"/>
      <use xlink:href="#TimesNewRomanPS-BoldMT-72" x="572.167969"/>
      <use xlink:href="#TimesNewRomanPS-BoldMT-61" x="616.552734"/>
      <use xlink:href="#TimesNewRomanPS-BoldMT-74" x="666.552734"/>
      <use xlink:href="#TimesNewRomanPS-BoldMT-65" x="699.853516"/>
     </g>
    </g>
   </g>
   <g id="line2d_10">
    <path d="M 659.256388 336.174545 
L 685.866599 336.174545 
L 711.694131 336.174545 
L 737.519851 336.174545 
L 764.129365 336.174545 
L 789.956541 336.174545 
L 815.783314 336.174545 
L 842.39274 336.174545 
L 868.219696 336.174545 
L 894.046688 336.174545 
L 920.656181 336.174545 
L 946.483137 336.174545 
L 973.092786 336.174545 
L 998.919617 336.174545 
L 1024.746614 336.174545 
L 1050.573655 336.174545 
" clip-path="url(#p7505dd4feb)" style="fill: none; stroke: #006400; stroke-opacity: 0.9; stroke-width: 1.5; stroke-linecap: round"/>
    <g clip-path="url(#p7505dd4feb)">
     <use xlink:href="#m1f4782564b" x="659.256388" y="336.174545" style="fill-opacity: 0; stroke: #006400; stroke-opacity: 0.9"/>
     <use xlink:href="#m1f4782564b" x="685.866599" y="336.174545" style="fill-opacity: 0; stroke: #006400; stroke-opacity: 0.9"/>
     <use xlink:href="#m1f4782564b" x="711.694131" y="336.174545" style="fill-opacity: 0; stroke: #006400; stroke-opacity: 0.9"/>
     <use xlink:href="#m1f4782564b" x="737.519851" y="336.174545" style="fill-opacity: 0; stroke: #006400; stroke-opacity: 0.9"/>
     <use xlink:href="#m1f4782564b" x="764.129365" y="336.174545" style="fill-opacity: 0; stroke: #006400; stroke-opacity: 0.9"/>
     <use xlink:href="#m1f4782564b" x="789.956541" y="336.174545" style="fill-opacity: 0; stroke: #006400; stroke-opacity: 0.9"/>
     <use xlink:href="#m1f4782564b" x="815.783314" y="336.174545" style="fill-opacity: 0; stroke: #006400; stroke-opacity: 0.9"/>
     <use xlink:href="#m1f4782564b" x="842.39274" y="336.174545" style="fill-opacity: 0; stroke: #006400; stroke-opacity: 0.9"/>
     <use xlink:href="#m1f4782564b" x="868.219696" y="336.174545" style="fill-opacity: 0; stroke: #006400; stroke-opacity: 0.9"/>
     <use xlink:href="#m1f4782564b" x="894.046688" y="336.174545" style="fill-opacity: 0; stroke: #006400; stroke-opacity: 0.9"/>
     <use xlink:href="#m1f4782564b" x="920.656181" y="336.174545" style="fill-opacity: 0; stroke: #006400; stroke-opacity: 0.9"/>
     <use xlink:href="#m1f4782564b" x="946.483137" y="336.174545" style="fill-opacity: 0; stroke: #006400; stroke-opacity: 0.9"/>
     <use xlink:href="#m1f4782564b" x="973.092786" y="336.174545" style="fill-opacity: 0; stroke: #006400; stroke-opacity: 0.9"/>
     <use xlink:href="#m1f4782564b" x="998.919617" y="336.174545" style="fill-opacity: 0; stroke: #006400; stroke-opacity: 0.9"/>
     <use xlink:href="#m1f4782564b" x="1024.746614" y="336.174545" style="fill-opacity: 0; stroke: #006400; stroke-opacity: 0.9"/>
     <use xlink:href="#m1f4782564b" x="1050.573655" y="336.174545" style="fill-opacity: 0; stroke: #006400; stroke-opacity: 0.9"/>
    </g>
   </g>
   <g id="line2d_11">
    <path d="M 659.256388 336.174545 
L 685.866599 336.174545 
L 711.694131 336.174545 
L 737.519851 336.174545 
L 764.129365 336.174545 
L 789.956541 336.174545 
L 815.783314 336.174545 
L 842.39274 336.174545 
L 868.219696 336.174545 
L 894.046688 336.174545 
L 920.656181 336.174545 
L 946.483137 336.174545 
L 973.092786 336.174545 
L 998.919617 336.174545 
L 1024.746614 336.174545 
L 1050.573655 336.174545 
" clip-path="url(#p7505dd4feb)" style="fill: none; stroke: #b8860b; stroke-opacity: 0.9; stroke-width: 1.5; stroke-linecap: round"/>
    <defs>
     <path id="mae44b9f71f" d="M 0 -6.5 
L -6.5 6.5 
L 6.5 6.5 
z
" style="stroke: #b8860b; stroke-opacity: 0.9; stroke-linejoin: miter"/>
    </defs>
    <g clip-path="url(#p7505dd4feb)">
     <use xlink:href="#mae44b9f71f" x="659.256388" y="336.174545" style="fill-opacity: 0; stroke: #b8860b; stroke-opacity: 0.9; stroke-linejoin: miter"/>
     <use xlink:href="#mae44b9f71f" x="685.866599" y="336.174545" style="fill-opacity: 0; stroke: #b8860b; stroke-opacity: 0.9; stroke-linejoin: miter"/>
     <use xlink:href="#mae44b9f71f" x="711.694131" y="336.174545" style="fill-opacity: 0; stroke: #b8860b; stroke-opacity: 0.9; stroke-linejoin: miter"/>
     <use xlink:href="#mae44b9f71f" x="737.519851" y="336.174545" style="fill-opacity: 0; stroke: #b8860b; stroke-opacity: 0.9; stroke-linejoin: miter"/>
     <use xlink:href="#mae44b9f71f" x="764.129365" y="336.174545" style="fill-opacity: 0; stroke: #b8860b; stroke-opacity: 0.9; stroke-linejoin: miter"/>
     <use xlink:href="#mae44b9f71f" x="789.956541" y="336.174545" style="fill-opacity: 0; stroke: #b8860b; stroke-opacity: 0.9; stroke-linejoin: miter"/>
     <use xlink:href="#mae44b9f71f" x="815.783314" y="336.174545" style="fill-opacity: 0; stroke: #b8860b; stroke-opacity: 0.9; stroke-linejoin: miter"/>
     <use xlink:href="#mae44b9f71f" x="842.39274" y="336.174545" style="fill-opacity: 0; stroke: #b8860b; stroke-opacity: 0.9; stroke-linejoin: miter"/>
     <use xlink:href="#mae44b9f71f" x="868.219696" y="336.174545" style="fill-opacity: 0; stroke: #b8860b; stroke-opacity: 0.9; stroke-linejoin: miter"/>
     <use xlink:href="#mae44b9f71f" x="894.046688" y="336.174545" style="fill-opacity: 0; stroke: #b8860b; stroke-opacity: 0.9; stroke-linejoin: miter"/>
     <use xlink:href="#mae44b9f71f" x="920.656181" y="336.174545" style="fill-opacity: 0; stroke: #b8860b; stroke-opacity: 0.9; stroke-linejoin: miter"/>
     <use xlink:href="#mae44b9f71f" x="946.483137" y="336.174545" style="fill-opacity: 0; stroke: #b8860b; stroke-opacity: 0.9; stroke-linejoin: miter"/>
     <use xlink:href="#mae44b9f71f" x="973.092786" y="336.174545" style="fill-opacity: 0; stroke: #b8860b; stroke-opacity: 0.9; stroke-linejoin: miter"/>
     <use xlink:href="#mae44b9f71f" x="998.919617" y="336.174545" style="fill-opacity: 0; stroke: #b8860b; stroke-opacity: 0.9; stroke-linejoin: miter"/>
     <use xlink:href="#mae44b9f71f" x="1024.746614" y="336.174545" style="fill-opacity: 0; stroke: #b8860b; stroke-opacity: 0.9; stroke-linejoin: miter"/>
     <use xlink:href="#mae44b9f71f" x="1050.573655" y="336.174545" style="fill-opacity: 0; stroke: #b8860b; stroke-opacity: 0.9; stroke-linejoin: miter"/>
    </g>
   </g>
   <g id="line2d_12">
    <path d="M 659.256388 336.174545 
L 685.866599 336.174545 
L 711.694131 336.174545 
L 737.519851 336.174545 
L 764.129365 336.174545 
L 789.956541 336.174545 
L 815.783314 336.174545 
L 842.39274 336.174545 
L 868.219696 336.174545 
L 894.046688 336.174545 
L 920.656181 336.174545 
L 946.483137 336.174545 
L 973.092786 336.174545 
L 998.919617 336.174545 
L 1024.746614 336.174545 
L 1050.573655 336.174545 
" clip-path="url(#p7505dd4feb)" style="fill: none; stroke: #00008b; stroke-opacity: 0.9; stroke-width: 1.5; stroke-linecap: round"/>
    <g clip-path="url(#p7505dd4feb)">
     <use xlink:href="#m85c1516bdd" x="659.256388" y="336.174545" style="fill-opacity: 0; stroke: #00008b; stroke-opacity: 0.9; stroke-linejoin: bevel"/>
     <use xlink:href="#m85c1516bdd" x="685.866599" y="336.174545" style="fill-opacity: 0; stroke: #00008b; stroke-opacity: 0.9; stroke-linejoin: bevel"/>
     <use xlink:href="#m85c1516bdd" x="711.694131" y="336.174545" style="fill-opacity: 0; stroke: #00008b; stroke-opacity: 0.9; stroke-linejoin: bevel"/>
     <use xlink:href="#m85c1516bdd" x="737.519851" y="336.174545" style="fill-opacity: 0; stroke: #00008b; stroke-opacity: 0.9; stroke-linejoin: bevel"/>
     <use xlink:href="#m85c1516bdd" x="764.129365" y="336.174545" style="fill-opacity: 0; stroke: #00008b; stroke-opacity: 0.9; stroke-linejoin: bevel"/>
     <use xlink:href="#m85c1516bdd" x="789.956541" y="336.174545" style="fill-opacity: 0; stroke: #00008b; stroke-opacity: 0.9; stroke-linejoin: bevel"/>
     <use xlink:href="#m85c1516bdd" x="815.783314" y="336.174545" style="fill-opacity: 0; stroke: #00008b; stroke-opacity: 0.9; stroke-linejoin: bevel"/>
     <use xlink:href="#m85c1516bdd" x="842.39274" y="336.174545" style="fill-opacity: 0; stroke: #00008b; stroke-opacity: 0.9; stroke-linejoin: bevel"/>
     <use xlink:href="#m85c1516bdd" x="868.219696" y="336.174545" style="fill-opacity: 0; stroke: #00008b; stroke-opacity: 0.9; stroke-linejoin: bevel"/>
     <use xlink:href="#m85c1516bdd" x="894.046688" y="336.174545" style="fill-opacity: 0; stroke: #00008b; stroke-opacity: 0.9; stroke-linejoin: bevel"/>
     <use xlink:href="#m85c1516bdd" x="920.656181" y="336.174545" style="fill-opacity: 0; stroke: #00008b; stroke-opacity: 0.9; stroke-linejoin: bevel"/>
     <use xlink:href="#m85c1516bdd" x="946.483137" y="336.174545" style="fill-opacity: 0; stroke: #00008b; stroke-opacity: 0.9; stroke-linejoin: bevel"/>
     <use xlink:href="#m85c1516bdd" x="973.092786" y="336.174545" style="fill-opacity: 0; stroke: #00008b; stroke-opacity: 0.9; stroke-linejoin: bevel"/>
     <use xlink:href="#m85c1516bdd" x="998.919617" y="336.174545" style="fill-opacity: 0; stroke: #00008b; stroke-opacity: 0.9; stroke-linejoin: bevel"/>
     <use xlink:href="#m85c1516bdd" x="1024.746614" y="336.174545" style="fill-opacity: 0; stroke: #00008b; stroke-opacity: 0.9; stroke-linejoin: bevel"/>
     <use xlink:href="#m85c1516bdd" x="1050.573655" y="336.174545" style="fill-opacity: 0; stroke: #00008b; stroke-opacity: 0.9; stroke-linejoin: bevel"/>
    </g>
   </g>
   <g id="line2d_13">
    <path d="M 665.159797 117.534247 
L 691.242783 110.641329 
L 717.328186 105.750271 
L 743.416006 101.955638 
L 769.503223 98.855463 
L 795.589835 96.234545 
L 821.084948 94.231725 
L 846.570967 92.500598 
L 872.046772 90.98545 
L 897.512298 89.645794 
L 922.967424 88.4521 
L 948.411783 87.381596 
L 973.855395 86.412496 
L 999.298226 85.530596 
L 1024.740579 84.72476 
L 1050.182554 83.985705 
" clip-path="url(#p7505dd4feb)" style="fill: none; stroke: #000000; stroke-opacity: 0.9; stroke-width: 1.5; stroke-linecap: round"/>
    <g clip-path="url(#p7505dd4feb)">
     <use xlink:href="#mce5036a9a0" x="665.159797" y="117.534247" style="fill-opacity: 0; stroke: #000000; stroke-opacity: 0.9; stroke-linejoin: miter"/>
     <use xlink:href="#mce5036a9a0" x="691.242783" y="110.641329" style="fill-opacity: 0; stroke: #000000; stroke-opacity: 0.9; stroke-linejoin: miter"/>
     <use xlink:href="#mce5036a9a0" x="717.328186" y="105.750271" style="fill-opacity: 0; stroke: #000000; stroke-opacity: 0.9; stroke-linejoin: miter"/>
     <use xlink:href="#mce5036a9a0" x="743.416006" y="101.955638" style="fill-opacity: 0; stroke: #000000; stroke-opacity: 0.9; stroke-linejoin: miter"/>
     <use xlink:href="#mce5036a9a0" x="769.503223" y="98.855463" style="fill-opacity: 0; stroke: #000000; stroke-opacity: 0.9; stroke-linejoin: miter"/>
     <use xlink:href="#mce5036a9a0" x="795.589835" y="96.234545" style="fill-opacity: 0; stroke: #000000; stroke-opacity: 0.9; stroke-linejoin: miter"/>
     <use xlink:href="#mce5036a9a0" x="821.084948" y="94.231725" style="fill-opacity: 0; stroke: #000000; stroke-opacity: 0.9; stroke-linejoin: miter"/>
     <use xlink:href="#mce5036a9a0" x="846.570967" y="92.500598" style="fill-opacity: 0; stroke: #000000; stroke-opacity: 0.9; stroke-linejoin: miter"/>
     <use xlink:href="#mce5036a9a0" x="872.046772" y="90.98545" style="fill-opacity: 0; stroke: #000000; stroke-opacity: 0.9; stroke-linejoin: miter"/>
     <use xlink:href="#mce5036a9a0" x="897.512298" y="89.645794" style="fill-opacity: 0; stroke: #000000; stroke-opacity: 0.9; stroke-linejoin: miter"/>
     <use xlink:href="#mce5036a9a0" x="922.967424" y="88.4521" style="fill-opacity: 0; stroke: #000000; stroke-opacity: 0.9; stroke-linejoin: miter"/>
     <use xlink:href="#mce5036a9a0" x="948.411783" y="87.381596" style="fill-opacity: 0; stroke: #000000; stroke-opacity: 0.9; stroke-linejoin: miter"/>
     <use xlink:href="#mce5036a9a0" x="973.855395" y="86.412496" style="fill-opacity: 0; stroke: #000000; stroke-opacity: 0.9; stroke-linejoin: miter"/>
     <use xlink:href="#mce5036a9a0" x="999.298226" y="85.530596" style="fill-opacity: 0; stroke: #000000; stroke-opacity: 0.9; stroke-linejoin: miter"/>
     <use xlink:href="#mce5036a9a0" x="1024.740579" y="84.72476" style="fill-opacity: 0; stroke: #000000; stroke-opacity: 0.9; stroke-linejoin: miter"/>
     <use xlink:href="#mce5036a9a0" x="1050.182554" y="83.985705" style="fill-opacity: 0; stroke: #000000; stroke-opacity: 0.9; stroke-linejoin: miter"/>
    </g>
   </g>
   <g id="line2d_14">
    <path d="M 659.256388 336.174545 
L 685.866599 336.174545 
L 711.694131 336.174545 
L 737.519851 336.174545 
L 764.129365 336.174545 
L 789.956541 336.174545 
L 815.783314 336.174545 
L 842.39274 336.174545 
L 868.219696 336.174545 
L 894.046688 336.174545 
L 920.656181 336.174545 
L 946.483137 336.174545 
L 973.092786 336.174545 
L 998.919617 336.174545 
L 1024.746614 336.174545 
L 1050.573655 336.174545 
" clip-path="url(#p7505dd4feb)" style="fill: none; stroke: #8b0000; stroke-opacity: 0.9; stroke-width: 1.5; stroke-linecap: round"/>
    <g clip-path="url(#p7505dd4feb)">
     <use xlink:href="#m59921fa40f" x="659.256388" y="336.174545" style="fill-opacity: 0; stroke: #8b0000; stroke-opacity: 0.9; stroke-linejoin: miter"/>
     <use xlink:href="#m59921fa40f" x="685.866599" y="336.174545" style="fill-opacity: 0; stroke: #8b0000; stroke-opacity: 0.9; stroke-linejoin: miter"/>
     <use xlink:href="#m59921fa40f" x="711.694131" y="336.174545" style="fill-opacity: 0; stroke: #8b0000; stroke-opacity: 0.9; stroke-linejoin: miter"/>
     <use xlink:href="#m59921fa40f" x="737.519851" y="336.174545" style="fill-opacity: 0; stroke: #8b0000; stroke-opacity: 0.9; stroke-linejoin: miter"/>
     <use xlink:href="#m59921fa40f" x="764.129365" y="336.174545" style="fill-opacity: 0; stroke: #8b0000; stroke-opacity: 0.9; stroke-linejoin: miter"/>
     <use xlink:href="#m59921fa40f" x="789.956541" y="336.174545" style="fill-opacity: 0; stroke: #8b0000; stroke-opacity: 0.9; stroke-linejoin: miter"/>
     <use xlink:href="#m59921fa40f" x="815.783314" y="336.174545" style="fill-opacity: 0; stroke: #8b0000; stroke-opacity: 0.9; stroke-linejoin: miter"/>
     <use xlink:href="#m59921fa40f" x="842.39274" y="336.174545" style="fill-opacity: 0; stroke: #8b0000; stroke-opacity: 0.9; stroke-linejoin: miter"/>
     <use xlink:href="#m59921fa40f" x="868.219696" y="336.174545" style="fill-opacity: 0; stroke: #8b0000; stroke-opacity: 0.9; stroke-linejoin: miter"/>
     <use xlink:href="#m59921fa40f" x="894.046688" y="336.174545" style="fill-opacity: 0; stroke: #8b0000; stroke-opacity: 0.9; stroke-linejoin: miter"/>
     <use xlink:href="#m59921fa40f" x="920.656181" y="336.174545" style="fill-opacity: 0; stroke: #8b0000; stroke-opacity: 0.9; stroke-linejoin: miter"/>
     <use xlink:href="#m59921fa40f" x="946.483137" y="336.174545" style="fill-opacity: 0; stroke: #8b0000; stroke-opacity: 0.9; stroke-linejoin: miter"/>
     <use xlink:href="#m59921fa40f" x="973.092786" y="336.174545" style="fill-opacity: 0; stroke: #8b0000; stroke-opacity: 0.9; stroke-linejoin: miter"/>
     <use xlink:href="#m59921fa40f" x="998.919617" y="336.174545" style="fill-opacity: 0; stroke: #8b0000; stroke-opacity: 0.9; stroke-linejoin: miter"/>
     <use xlink:href="#m59921fa40f" x="1024.746614" y="336.174545" style="fill-opacity: 0; stroke: #8b0000; stroke-opacity: 0.9; stroke-linejoin: miter"/>
     <use xlink:href="#m59921fa40f" x="1050.573655" y="336.174545" style="fill-opacity: 0; stroke: #8b0000; stroke-opacity: 0.9; stroke-linejoin: miter"/>
    </g>
   </g>
   <g id="line2d_15">
    <path d="M 659.256388 238.073973 
L 685.866599 226.050702 
L 711.694131 214.381084 
L 737.519851 202.712233 
L 764.129365 190.68931 
L 789.956541 179.019843 
L 815.783314 167.350511 
L 842.39274 155.32764 
L 868.219696 143.658259 
L 894.046688 131.988949 
L 920.656181 119.965918 
L 946.483137 108.29653 
L 973.092786 96.273542 
L 998.919617 84.604163 
L 1024.746614 72.934816 
L 1050.573655 61.265455 
" clip-path="url(#p7505dd4feb)" style="fill: none; stroke: #4b0082; stroke-opacity: 0.9; stroke-width: 1.5; stroke-linecap: round"/>
    <g clip-path="url(#p7505dd4feb)">
     <use xlink:href="#m14b8fb4271" x="659.256388" y="238.073973" style="fill-opacity: 0; stroke: #4b0082; stroke-opacity: 0.9; stroke-linejoin: miter"/>
     <use xlink:href="#m14b8fb4271" x="685.866599" y="226.050702" style="fill-opacity: 0; stroke: #4b0082; stroke-opacity: 0.9; stroke-linejoin: miter"/>
     <use xlink:href="#m14b8fb4271" x="711.694131" y="214.381084" style="fill-opacity: 0; stroke: #4b0082; stroke-opacity: 0.9; stroke-linejoin: miter"/>
     <use xlink:href="#m14b8fb4271" x="737.519851" y="202.712233" style="fill-opacity: 0; stroke: #4b0082; stroke-opacity: 0.9; stroke-linejoin: miter"/>
     <use xlink:href="#m14b8fb4271" x="764.129365" y="190.68931" style="fill-opacity: 0; stroke: #4b0082; stroke-opacity: 0.9; stroke-linejoin: miter"/>
     <use xlink:href="#m14b8fb4271" x="789.956541" y="179.019843" style="fill-opacity: 0; stroke: #4b0082; stroke-opacity: 0.9; stroke-linejoin: miter"/>
     <use xlink:href="#m14b8fb4271" x="815.783314" y="167.350511" style="fill-opacity: 0; stroke: #4b0082; stroke-opacity: 0.9; stroke-linejoin: miter"/>
     <use xlink:href="#m14b8fb4271" x="842.39274" y="155.32764" style="fill-opacity: 0; stroke: #4b0082; stroke-opacity: 0.9; stroke-linejoin: miter"/>
     <use xlink:href="#m14b8fb4271" x="868.219696" y="143.658259" style="fill-opacity: 0; stroke: #4b0082; stroke-opacity: 0.9; stroke-linejoin: miter"/>
     <use xlink:href="#m14b8fb4271" x="894.046688" y="131.988949" style="fill-opacity: 0; stroke: #4b0082; stroke-opacity: 0.9; stroke-linejoin: miter"/>
     <use xlink:href="#m14b8fb4271" x="920.656181" y="119.965918" style="fill-opacity: 0; stroke: #4b0082; stroke-opacity: 0.9; stroke-linejoin: miter"/>
     <use xlink:href="#m14b8fb4271" x="946.483137" y="108.29653" style="fill-opacity: 0; stroke: #4b0082; stroke-opacity: 0.9; stroke-linejoin: miter"/>
     <use xlink:href="#m14b8fb4271" x="973.092786" y="96.273542" style="fill-opacity: 0; stroke: #4b0082; stroke-opacity: 0.9; stroke-linejoin: miter"/>
     <use xlink:href="#m14b8fb4271" x="998.919617" y="84.604163" style="fill-opacity: 0; stroke: #4b0082; stroke-opacity: 0.9; stroke-linejoin: miter"/>
     <use xlink:href="#m14b8fb4271" x="1024.746614" y="72.934816" style="fill-opacity: 0; stroke: #4b0082; stroke-opacity: 0.9; stroke-linejoin: miter"/>
     <use xlink:href="#m14b8fb4271" x="1050.573655" y="61.265455" style="fill-opacity: 0; stroke: #4b0082; stroke-opacity: 0.9; stroke-linejoin: miter"/>
    </g>
   </g>
   <g id="patch_6">
    <path d="M 651.430043 349.92 
L 651.430043 47.52 
" style="fill: none; stroke: #cccccc; stroke-width: 1.25; stroke-linejoin: miter; stroke-linecap: square"/>
   </g>
   <g id="patch_7">
    <path d="M 651.430043 349.92 
L 1058.4 349.92 
" style="fill: none; stroke: #cccccc; stroke-width: 1.25; stroke-linejoin: miter; stroke-linecap: square"/>
   </g>
  </g>
  <g id="legend_2">
   <g id="line2d_16">
    <path d="M 38.22975 14.94 
L 77.82975 14.94 
L 117.42975 14.94 
" style="fill: none; stroke: #006400; stroke-opacity: 0.9; stroke-width: 1.5; stroke-linecap: round"/>
    <g>
     <use xlink:href="#m1f4782564b" x="77.82975" y="14.94" style="fill-opacity: 0; stroke: #006400; stroke-opacity: 0.9"/>
    </g>
   </g>
   <g id="text_31">
    <!-- Sphinx -->
    <g style="fill: #262626" transform="translate(123.76575 28.8) scale(0.396 -0.396)">
     <use xlink:href="#TimesNewRomanPSMT-53"/>
     <use xlink:href="#TimesNewRomanPSMT-70" x="55.615234"/>
     <use xlink:href="#TimesNewRomanPSMT-68" x="105.615234"/>
     <use xlink:href="#TimesNewRomanPSMT-69" x="155.615234"/>
     <use xlink:href="#TimesNewRomanPSMT-6e" x="183.398438"/>
     <use xlink:href="#TimesNewRomanPSMT-78" x="233.398438"/>
    </g>
   </g>
   <g id="line2d_17">
    <path d="M 259.748437 14.94 
L 299.348437 14.94 
L 338.948437 14.94 
" style="fill: none; stroke: #000000; stroke-opacity: 0.9; stroke-width: 1.5; stroke-linecap: round"/>
    <g>
     <use xlink:href="#mce5036a9a0" x="299.348437" y="14.94" style="fill-opacity: 0; stroke: #000000; stroke-opacity: 0.9; stroke-linejoin: miter"/>
    </g>
   </g>
   <g id="text_32">
    <!-- Aleph -->
    <g style="fill: #262626" transform="translate(345.284437 28.8) scale(0.396 -0.396)">
     <use xlink:href="#TimesNewRomanPSMT-41"/>
     <use xlink:href="#TimesNewRomanPSMT-6c" x="72.216797"/>
     <use xlink:href="#TimesNewRomanPSMT-65" x="100"/>
     <use xlink:href="#TimesNewRomanPSMT-70" x="144.384766"/>
     <use xlink:href="#TimesNewRomanPSMT-68" x="194.384766"/>
    </g>
   </g>
   <g id="line2d_18">
    <path d="M 465.823125 14.94 
L 505.423125 14.94 
L 545.023125 14.94 
" style="fill: none; stroke: #8b0000; stroke-opacity: 0.9; stroke-width: 1.5; stroke-linecap: round"/>
    <g>
     <use xlink:href="#m59921fa40f" x="505.423125" y="14.94" style="fill-opacity: 0; stroke: #8b0000; stroke-opacity: 0.9; stroke-linejoin: miter"/>
    </g>
   </g>
   <g id="text_33">
    <!-- Adaptive Aleph -->
    <g style="fill: #262626" transform="translate(551.359125 28.8) scale(0.396 -0.396)">
     <use xlink:href="#TimesNewRomanPSMT-41"/>
     <use xlink:href="#TimesNewRomanPSMT-64" x="72.216797"/>
     <use xlink:href="#TimesNewRomanPSMT-61" x="122.216797"/>
     <use xlink:href="#TimesNewRomanPSMT-70" x="166.601562"/>
     <use xlink:href="#TimesNewRomanPSMT-74" x="216.601562"/>
     <use xlink:href="#TimesNewRomanPSMT-69" x="244.384766"/>
     <use xlink:href="#TimesNewRomanPSMT-76" x="272.167969"/>
     <use xlink:href="#TimesNewRomanPSMT-65" x="322.167969"/>
     <use xlink:href="#TimesNewRomanPSMT-20" x="366.552734"/>
     <use xlink:href="#TimesNewRomanPSMT-41" x="386.052734"/>
     <use xlink:href="#TimesNewRomanPSMT-6c" x="458.269531"/>
     <use xlink:href="#TimesNewRomanPSMT-65" x="486.052734"/>
     <use xlink:href="#TimesNewRomanPSMT-70" x="530.4375"/>
     <use xlink:href="#TimesNewRomanPSMT-68" x="580.4375"/>
    </g>
   </g>
   <g id="line2d_19">
    <path d="M 824.778562 14.94 
L 864.378562 14.94 
L 903.978562 14.94 
" style="fill: none; stroke: #4b0082; stroke-opacity: 0.9; stroke-width: 1.5; stroke-linecap: round"/>
    <g>
     <use xlink:href="#m14b8fb4271" x="864.378562" y="14.94" style="fill-opacity: 0; stroke: #4b0082; stroke-opacity: 0.9; stroke-linejoin: miter"/>
    </g>
   </g>
   <g id="text_34">
    <!-- RSQF -->
    <g style="fill: #262626" transform="translate(910.314562 28.8) scale(0.396 -0.396)">
     <use xlink:href="#TimesNewRomanPSMT-52"/>
     <use xlink:href="#TimesNewRomanPSMT-53" x="66.699219"/>
     <use xlink:href="#TimesNewRomanPSMT-51" x="122.314453"/>
     <use xlink:href="#TimesNewRomanPSMT-46" x="194.53125"/>
    </g>
   </g>
  </g>
  <g id="legend_3">
   <g id="line2d_20">
    <path d="M 259.979906 58.14 
L 299.579906 58.14 
L 339.179906 58.14 
" style="fill: none; stroke: #00008b; stroke-opacity: 0.9; stroke-width: 1.5; stroke-linecap: round"/>
    <g>
     <use xlink:href="#m85c1516bdd" x="299.579906" y="58.14" style="fill-opacity: 0; stroke: #00008b; stroke-opacity: 0.9; stroke-linejoin: bevel"/>
    </g>
   </g>
   <g id="text_35">
    <!-- DHT -->
    <g style="fill: #262626" transform="translate(345.515906 72) scale(0.396 -0.396)">
     <defs>
      <path id="TimesNewRomanPSMT-44" d="M 109 0 
L 109 116 
L 269 116 
Q 538 116 650 288 
Q 719 391 719 750 
L 719 3488 
Q 719 3884 631 3984 
Q 509 4122 269 4122 
L 109 4122 
L 109 4238 
L 1834 4238 
Q 2784 4238 3279 4022 
Q 3775 3806 4076 3303 
Q 4378 2800 4378 2141 
Q 4378 1256 3841 663 
Q 3238 0 2003 0 
L 109 0 
z
M 1319 306 
Q 1716 219 1984 219 
Q 2709 219 3187 728 
Q 3666 1238 3666 2109 
Q 3666 2988 3187 3494 
Q 2709 4000 1959 4000 
Q 1678 4000 1319 3909 
L 1319 306 
z
" transform="scale(0.015625)"/>
      <path id="TimesNewRomanPSMT-48" d="M 1316 2272 
L 3284 2272 
L 3284 3484 
Q 3284 3809 3244 3913 
Q 3213 3991 3113 4047 
Q 2978 4122 2828 4122 
L 2678 4122 
L 2678 4238 
L 4491 4238 
L 4491 4122 
L 4341 4122 
Q 4191 4122 4056 4050 
Q 3956 4000 3920 3898 
Q 3884 3797 3884 3484 
L 3884 750 
Q 3884 428 3925 325 
Q 3956 247 4053 191 
Q 4191 116 4341 116 
L 4491 116 
L 4491 0 
L 2678 0 
L 2678 116 
L 2828 116 
Q 3088 116 3206 269 
Q 3284 369 3284 750 
L 3284 2041 
L 1316 2041 
L 1316 750 
Q 1316 428 1356 325 
Q 1388 247 1488 191 
Q 1622 116 1772 116 
L 1925 116 
L 1925 0 
L 109 0 
L 109 116 
L 259 116 
Q 522 116 641 269 
Q 716 369 716 750 
L 716 3484 
Q 716 3809 675 3913 
Q 644 3991 547 4047 
Q 409 4122 259 4122 
L 109 4122 
L 109 4238 
L 1925 4238 
L 1925 4122 
L 1772 4122 
Q 1622 4122 1488 4050 
Q 1391 4000 1353 3898 
Q 1316 3797 1316 3484 
L 1316 2272 
z
" transform="scale(0.015625)"/>
      <path id="TimesNewRomanPSMT-54" d="M 3703 4238 
L 3750 3244 
L 3631 3244 
Q 3597 3506 3538 3619 
Q 3441 3800 3280 3886 
Q 3119 3972 2856 3972 
L 2259 3972 
L 2259 734 
Q 2259 344 2344 247 
Q 2463 116 2709 116 
L 2856 116 
L 2856 0 
L 1059 0 
L 1059 116 
L 1209 116 
Q 1478 116 1591 278 
Q 1659 378 1659 734 
L 1659 3972 
L 1150 3972 
Q 853 3972 728 3928 
Q 566 3869 450 3700 
Q 334 3531 313 3244 
L 194 3244 
L 244 4238 
L 3703 4238 
z
" transform="scale(0.015625)"/>
     </defs>
     <use xlink:href="#TimesNewRomanPSMT-44"/>
     <use xlink:href="#TimesNewRomanPSMT-48" x="72.216797"/>
     <use xlink:href="#TimesNewRomanPSMT-54" x="144.433594"/>
    </g>
   </g>
  </g>
 </g>
 <defs>
  <clipPath id="p381827aeed">
   <rect x="110.16" y="47.52" width="406.969957" height="302.4"/>
  </clipPath>
  <clipPath id="p7505dd4feb">
   <rect x="651.430043" y="47.52" width="406.969957" height="302.4"/>
  </clipPath>
 </defs>
</svg>
