<?xml version="1.0" encoding="utf-8" standalone="no"?>
<!DOCTYPE svg PUBLIC "-//W3C//DTD SVG 1.1//EN"
  "http://www.w3.org/Graphics/SVG/1.1/DTD/svg11.dtd">
<svg xmlns:xlink="http://www.w3.org/1999/xlink" width="936pt" height="338.4pt" viewBox="0 0 936 338.4" xmlns="http://www.w3.org/2000/svg" version="1.1">
 <metadata>
  <rdf:RDF xmlns:dc="http://purl.org/dc/elements/1.1/" xmlns:cc="http://creativecommons.org/ns#" xmlns:rdf="http://www.w3.org/1999/02/22-rdf-syntax-ns#">
   <cc:Work>
    <dc:type rdf:resource="http://purl.org/dc/dcmitype/StillImage"/>
    <dc:date>2025-05-28T11:25:33.276776</dc:date>
    <dc:format>image/svg+xml</dc:format>
    <dc:creator>
     <cc:Agent>
      <dc:title>Matplotlib v3.7.2, https://matplotlib.org/</dc:title>
     </cc:Agent>
    </dc:creator>
   </cc:Work>
  </rdf:RDF>
 </metadata>
 <defs>
  <style type="text/css">*{stroke-linejoin: round; stroke-linecap: butt}</style>
 </defs>
 <g id="figure_1">
  <g id="patch_1">
   <path d="M 0 338.4 
L 936 338.4 
L 936 0 
L 0 0 
z
" style="fill: #ffffff"/>
  </g>
  <g id="axes_1">
   <g id="patch_2">
    <path d="M 95.472 274.104 
L 460.72 274.104 
L 460.72 33.84 
L 95.472 33.84 
z
" style="fill: #ffffff"/>
   </g>
   <g id="matplotlib.axis_1">
    <g id="xtick_1">
     <g id="text_1">
      <!-- 60 -->
      <g style="fill: #262626" transform="translate(93.363106 304.43525) scale(0.3 -0.3)">
       <defs>
        <path id="TimesNewRomanPSMT-36" d="M 2869 4325 
L 2869 4209 
Q 2456 4169 2195 4045 
Q 1934 3922 1679 3669 
Q 1425 3416 1258 3105 
Q 1091 2794 978 2366 
Q 1428 2675 1881 2675 
Q 2316 2675 2634 2325 
Q 2953 1975 2953 1425 
Q 2953 894 2631 456 
Q 2244 -75 1606 -75 
Q 1172 -75 869 213 
Q 275 772 275 1663 
Q 275 2231 503 2743 
Q 731 3256 1154 3653 
Q 1578 4050 1965 4187 
Q 2353 4325 2688 4325 
L 2869 4325 
z
M 925 2138 
Q 869 1716 869 1456 
Q 869 1156 980 804 
Q 1091 453 1309 247 
Q 1469 100 1697 100 
Q 1969 100 2183 356 
Q 2397 613 2397 1088 
Q 2397 1622 2184 2012 
Q 1972 2403 1581 2403 
Q 1463 2403 1327 2353 
Q 1191 2303 925 2138 
z
" transform="scale(0.015625)"/>
        <path id="TimesNewRomanPSMT-30" d="M 231 2094 
Q 231 2819 450 3342 
Q 669 3866 1031 4122 
Q 1313 4325 1613 4325 
Q 2100 4325 2488 3828 
Q 2972 3213 2972 2159 
Q 2972 1422 2759 906 
Q 2547 391 2217 158 
Q 1888 -75 1581 -75 
Q 975 -75 572 641 
Q 231 1244 231 2094 
z
M 844 2016 
Q 844 1141 1059 588 
Q 1238 122 1591 122 
Q 1759 122 1940 273 
Q 2122 425 2216 781 
Q 2359 1319 2359 2297 
Q 2359 3022 2209 3506 
Q 2097 3866 1919 4016 
Q 1791 4119 1609 4119 
Q 1397 4119 1231 3928 
Q 1006 3669 925 3112 
Q 844 2556 844 2016 
z
" transform="scale(0.015625)"/>
       </defs>
       <use xlink:href="#TimesNewRomanPSMT-36"/>
       <use xlink:href="#TimesNewRomanPSMT-30" x="50"/>
      </g>
     </g>
    </g>
    <g id="xtick_2">
     <g id="text_2">
      <!-- 65 -->
      <g style="fill: #262626" transform="translate(136.333459 304.43525) scale(0.3 -0.3)">
       <defs>
        <path id="TimesNewRomanPSMT-35" d="M 2778 4238 
L 2534 3706 
L 1259 3706 
L 981 3138 
Q 1809 3016 2294 2522 
Q 2709 2097 2709 1522 
Q 2709 1188 2573 903 
Q 2438 619 2231 419 
Q 2025 219 1772 97 
Q 1413 -75 1034 -75 
Q 653 -75 479 54 
Q 306 184 306 341 
Q 306 428 378 495 
Q 450 563 559 563 
Q 641 563 702 538 
Q 763 513 909 409 
Q 1144 247 1384 247 
Q 1750 247 2026 523 
Q 2303 800 2303 1197 
Q 2303 1581 2056 1914 
Q 1809 2247 1375 2428 
Q 1034 2569 447 2591 
L 1259 4238 
L 2778 4238 
z
" transform="scale(0.015625)"/>
       </defs>
       <use xlink:href="#TimesNewRomanPSMT-36"/>
       <use xlink:href="#TimesNewRomanPSMT-35" x="50"/>
      </g>
     </g>
    </g>
    <g id="xtick_3">
     <g id="text_3">
      <!-- 70 -->
      <g style="fill: #262626" transform="translate(179.303812 304.43525) scale(0.3 -0.3)">
       <defs>
        <path id="TimesNewRomanPSMT-37" d="M 644 4238 
L 2916 4238 
L 2916 4119 
L 1503 -88 
L 1153 -88 
L 2419 3728 
L 1253 3728 
Q 900 3728 750 3644 
Q 488 3500 328 3200 
L 238 3234 
L 644 4238 
z
" transform="scale(0.015625)"/>
       </defs>
       <use xlink:href="#TimesNewRomanPSMT-37"/>
       <use xlink:href="#TimesNewRomanPSMT-30" x="50"/>
      </g>
     </g>
    </g>
    <g id="xtick_4">
     <g id="text_4">
      <!-- 75 -->
      <g style="fill: #262626" transform="translate(222.274165 304.43525) scale(0.3 -0.3)">
       <use xlink:href="#TimesNewRomanPSMT-37"/>
       <use xlink:href="#TimesNewRomanPSMT-35" x="50"/>
      </g>
     </g>
    </g>
    <g id="xtick_5">
     <g id="text_5">
      <!-- 80 -->
      <g style="fill: #262626" transform="translate(265.244518 304.43525) scale(0.3 -0.3)">
       <defs>
        <path id="TimesNewRomanPSMT-38" d="M 1228 2134 
Q 725 2547 579 2797 
Q 434 3047 434 3316 
Q 434 3728 753 4026 
Q 1072 4325 1600 4325 
Q 2113 4325 2425 4047 
Q 2738 3769 2738 3413 
Q 2738 3175 2569 2928 
Q 2400 2681 1866 2347 
Q 2416 1922 2594 1678 
Q 2831 1359 2831 1006 
Q 2831 559 2490 242 
Q 2150 -75 1597 -75 
Q 994 -75 656 303 
Q 388 606 388 966 
Q 388 1247 577 1523 
Q 766 1800 1228 2134 
z
M 1719 2469 
Q 2094 2806 2194 3001 
Q 2294 3197 2294 3444 
Q 2294 3772 2109 3958 
Q 1925 4144 1606 4144 
Q 1288 4144 1088 3959 
Q 888 3775 888 3528 
Q 888 3366 970 3203 
Q 1053 3041 1206 2894 
L 1719 2469 
z
M 1375 2016 
Q 1116 1797 991 1539 
Q 866 1281 866 981 
Q 866 578 1086 336 
Q 1306 94 1647 94 
Q 1984 94 2187 284 
Q 2391 475 2391 747 
Q 2391 972 2272 1150 
Q 2050 1481 1375 2016 
z
" transform="scale(0.015625)"/>
       </defs>
       <use xlink:href="#TimesNewRomanPSMT-38"/>
       <use xlink:href="#TimesNewRomanPSMT-30" x="50"/>
      </g>
     </g>
    </g>
    <g id="xtick_6">
     <g id="text_6">
      <!-- 85 -->
      <g style="fill: #262626" transform="translate(308.214871 304.43525) scale(0.3 -0.3)">
       <use xlink:href="#TimesNewRomanPSMT-38"/>
       <use xlink:href="#TimesNewRomanPSMT-35" x="50"/>
      </g>
     </g>
    </g>
    <g id="xtick_7">
     <g id="text_7">
      <!-- 90 -->
      <g style="fill: #262626" transform="translate(351.185224 304.43525) scale(0.3 -0.3)">
       <defs>
        <path id="TimesNewRomanPSMT-39" d="M 338 -88 
L 338 28 
Q 744 34 1094 217 
Q 1444 400 1770 856 
Q 2097 1313 2225 1859 
Q 1734 1544 1338 1544 
Q 891 1544 572 1889 
Q 253 2234 253 2806 
Q 253 3363 572 3797 
Q 956 4325 1575 4325 
Q 2097 4325 2469 3894 
Q 2925 3359 2925 2575 
Q 2925 1869 2578 1258 
Q 2231 647 1613 244 
Q 1109 -88 516 -88 
L 338 -88 
z
M 2275 2091 
Q 2331 2497 2331 2741 
Q 2331 3044 2228 3395 
Q 2125 3747 1936 3934 
Q 1747 4122 1506 4122 
Q 1228 4122 1018 3872 
Q 809 3622 809 3128 
Q 809 2469 1088 2097 
Q 1291 1828 1588 1828 
Q 1731 1828 1928 1897 
Q 2125 1966 2275 2091 
z
" transform="scale(0.015625)"/>
       </defs>
       <use xlink:href="#TimesNewRomanPSMT-39"/>
       <use xlink:href="#TimesNewRomanPSMT-30" x="50"/>
      </g>
     </g>
    </g>
    <g id="xtick_8">
     <g id="text_8">
      <!-- 95 -->
      <g style="fill: #262626" transform="translate(394.155576 304.43525) scale(0.3 -0.3)">
       <use xlink:href="#TimesNewRomanPSMT-39"/>
       <use xlink:href="#TimesNewRomanPSMT-35" x="50"/>
      </g>
     </g>
    </g>
    <g id="xtick_9">
     <g id="text_9">
      <!-- 100 -->
      <g style="fill: #262626" transform="translate(429.625929 304.43525) scale(0.3 -0.3)">
       <defs>
        <path id="TimesNewRomanPSMT-31" d="M 750 3822 
L 1781 4325 
L 1884 4325 
L 1884 747 
Q 1884 391 1914 303 
Q 1944 216 2037 169 
Q 2131 122 2419 116 
L 2419 0 
L 825 0 
L 825 116 
Q 1125 122 1212 167 
Q 1300 213 1334 289 
Q 1369 366 1369 747 
L 1369 3034 
Q 1369 3497 1338 3628 
Q 1316 3728 1258 3775 
Q 1200 3822 1119 3822 
Q 1003 3822 797 3725 
L 750 3822 
z
" transform="scale(0.015625)"/>
       </defs>
       <use xlink:href="#TimesNewRomanPSMT-31"/>
       <use xlink:href="#TimesNewRomanPSMT-30" x="50"/>
       <use xlink:href="#TimesNewRomanPSMT-30" x="100"/>
      </g>
     </g>
    </g>
    <g id="text_10">
     <!-- (A) buffer hit (%) -->
     <g style="fill: #262626" transform="translate(171.326469 335.683688) scale(0.3 -0.3)">
      <defs>
       <path id="TimesNewRomanPSMT-28" d="M 1988 -1253 
L 1988 -1369 
Q 1516 -1131 1200 -813 
Q 750 -359 506 256 
Q 263 872 263 1534 
Q 263 2503 741 3301 
Q 1219 4100 1988 4444 
L 1988 4313 
Q 1603 4100 1356 3731 
Q 1109 3363 987 2797 
Q 866 2231 866 1616 
Q 866 947 969 400 
Q 1050 -31 1165 -292 
Q 1281 -553 1476 -793 
Q 1672 -1034 1988 -1253 
z
" transform="scale(0.015625)"/>
       <path id="TimesNewRomanPSMT-41" d="M 2928 1419 
L 1288 1419 
L 1000 750 
Q 894 503 894 381 
Q 894 284 986 211 
Q 1078 138 1384 116 
L 1384 0 
L 50 0 
L 50 116 
Q 316 163 394 238 
Q 553 388 747 847 
L 2238 4334 
L 2347 4334 
L 3822 809 
Q 4000 384 4145 257 
Q 4291 131 4550 116 
L 4550 0 
L 2878 0 
L 2878 116 
Q 3131 128 3220 200 
Q 3309 272 3309 375 
Q 3309 513 3184 809 
L 2928 1419 
z
M 2841 1650 
L 2122 3363 
L 1384 1650 
L 2841 1650 
z
" transform="scale(0.015625)"/>
       <path id="TimesNewRomanPSMT-29" d="M 144 4313 
L 144 4444 
Q 619 4209 934 3891 
Q 1381 3434 1625 2820 
Q 1869 2206 1869 1541 
Q 1869 572 1392 -226 
Q 916 -1025 144 -1369 
L 144 -1253 
Q 528 -1038 776 -670 
Q 1025 -303 1145 264 
Q 1266 831 1266 1447 
Q 1266 2113 1163 2663 
Q 1084 3094 967 3353 
Q 850 3613 656 3853 
Q 463 4094 144 4313 
z
" transform="scale(0.015625)"/>
       <path id="TimesNewRomanPSMT-20" transform="scale(0.015625)"/>
       <path id="TimesNewRomanPSMT-62" d="M 984 2369 
Q 1400 2947 1881 2947 
Q 2322 2947 2650 2570 
Q 2978 2194 2978 1541 
Q 2978 778 2472 313 
Q 2038 -88 1503 -88 
Q 1253 -88 995 3 
Q 738 94 469 275 
L 469 3241 
Q 469 3728 445 3840 
Q 422 3953 372 3993 
Q 322 4034 247 4034 
Q 159 4034 28 3984 
L -16 4094 
L 844 4444 
L 984 4444 
L 984 2369 
z
M 984 2169 
L 984 456 
Q 1144 300 1314 220 
Q 1484 141 1663 141 
Q 1947 141 2192 453 
Q 2438 766 2438 1363 
Q 2438 1913 2192 2208 
Q 1947 2503 1634 2503 
Q 1469 2503 1303 2419 
Q 1178 2356 984 2169 
z
" transform="scale(0.015625)"/>
       <path id="TimesNewRomanPSMT-75" d="M 2709 2863 
L 2709 1128 
Q 2709 631 2732 520 
Q 2756 409 2807 365 
Q 2859 322 2928 322 
Q 3025 322 3147 375 
L 3191 266 
L 2334 -88 
L 2194 -88 
L 2194 519 
Q 1825 119 1631 15 
Q 1438 -88 1222 -88 
Q 981 -88 804 51 
Q 628 191 559 409 
Q 491 628 491 1028 
L 491 2306 
Q 491 2509 447 2587 
Q 403 2666 317 2708 
Q 231 2750 6 2747 
L 6 2863 
L 1009 2863 
L 1009 947 
Q 1009 547 1148 422 
Q 1288 297 1484 297 
Q 1619 297 1789 381 
Q 1959 466 2194 703 
L 2194 2325 
Q 2194 2569 2105 2655 
Q 2016 2741 1734 2747 
L 1734 2863 
L 2709 2863 
z
" transform="scale(0.015625)"/>
       <path id="TimesNewRomanPSMT-66" d="M 1319 2638 
L 1319 756 
Q 1319 356 1406 250 
Q 1522 113 1716 113 
L 1975 113 
L 1975 0 
L 266 0 
L 266 113 
L 394 113 
Q 519 113 622 175 
Q 725 238 764 344 
Q 803 450 803 756 
L 803 2638 
L 247 2638 
L 247 2863 
L 803 2863 
L 803 3050 
Q 803 3478 940 3775 
Q 1078 4072 1361 4255 
Q 1644 4438 1997 4438 
Q 2325 4438 2600 4225 
Q 2781 4084 2781 3909 
Q 2781 3816 2700 3733 
Q 2619 3650 2525 3650 
Q 2453 3650 2373 3701 
Q 2294 3753 2178 3923 
Q 2063 4094 1966 4153 
Q 1869 4213 1750 4213 
Q 1606 4213 1506 4136 
Q 1406 4059 1362 3898 
Q 1319 3738 1319 3069 
L 1319 2863 
L 2056 2863 
L 2056 2638 
L 1319 2638 
z
" transform="scale(0.015625)"/>
       <path id="TimesNewRomanPSMT-65" d="M 681 1784 
Q 678 1147 991 784 
Q 1303 422 1725 422 
Q 2006 422 2214 576 
Q 2422 731 2563 1106 
L 2659 1044 
Q 2594 616 2278 264 
Q 1963 -88 1488 -88 
Q 972 -88 605 314 
Q 238 716 238 1394 
Q 238 2128 614 2539 
Q 991 2950 1559 2950 
Q 2041 2950 2350 2633 
Q 2659 2316 2659 1784 
L 681 1784 
z
M 681 1966 
L 2006 1966 
Q 1991 2241 1941 2353 
Q 1863 2528 1708 2628 
Q 1553 2728 1384 2728 
Q 1125 2728 920 2526 
Q 716 2325 681 1966 
z
" transform="scale(0.015625)"/>
       <path id="TimesNewRomanPSMT-72" d="M 1038 2947 
L 1038 2303 
Q 1397 2947 1775 2947 
Q 1947 2947 2059 2842 
Q 2172 2738 2172 2600 
Q 2172 2478 2090 2393 
Q 2009 2309 1897 2309 
Q 1788 2309 1652 2417 
Q 1516 2525 1450 2525 
Q 1394 2525 1328 2463 
Q 1188 2334 1038 2041 
L 1038 669 
Q 1038 431 1097 309 
Q 1138 225 1241 169 
Q 1344 113 1538 113 
L 1538 0 
L 72 0 
L 72 113 
Q 291 113 397 181 
Q 475 231 506 341 
Q 522 394 522 644 
L 522 1753 
Q 522 2253 501 2348 
Q 481 2444 426 2487 
Q 372 2531 291 2531 
Q 194 2531 72 2484 
L 41 2597 
L 906 2947 
L 1038 2947 
z
" transform="scale(0.015625)"/>
       <path id="TimesNewRomanPSMT-68" d="M 1041 4444 
L 1041 2350 
Q 1388 2731 1591 2839 
Q 1794 2947 1997 2947 
Q 2241 2947 2416 2812 
Q 2591 2678 2675 2391 
Q 2734 2191 2734 1659 
L 2734 647 
Q 2734 375 2778 275 
Q 2809 200 2884 156 
Q 2959 113 3159 113 
L 3159 0 
L 1753 0 
L 1753 113 
L 1819 113 
Q 2019 113 2097 173 
Q 2175 234 2206 353 
Q 2216 403 2216 647 
L 2216 1659 
Q 2216 2128 2167 2275 
Q 2119 2422 2012 2495 
Q 1906 2569 1756 2569 
Q 1603 2569 1437 2487 
Q 1272 2406 1041 2159 
L 1041 647 
Q 1041 353 1073 281 
Q 1106 209 1195 161 
Q 1284 113 1503 113 
L 1503 0 
L 84 0 
L 84 113 
Q 275 113 384 172 
Q 447 203 484 290 
Q 522 378 522 647 
L 522 3238 
Q 522 3728 498 3840 
Q 475 3953 426 3993 
Q 378 4034 297 4034 
Q 231 4034 84 3984 
L 41 4094 
L 897 4444 
L 1041 4444 
z
" transform="scale(0.015625)"/>
       <path id="TimesNewRomanPSMT-69" d="M 928 4444 
Q 1059 4444 1151 4351 
Q 1244 4259 1244 4128 
Q 1244 3997 1151 3903 
Q 1059 3809 928 3809 
Q 797 3809 703 3903 
Q 609 3997 609 4128 
Q 609 4259 701 4351 
Q 794 4444 928 4444 
z
M 1188 2947 
L 1188 647 
Q 1188 378 1227 289 
Q 1266 200 1342 156 
Q 1419 113 1622 113 
L 1622 0 
L 231 0 
L 231 113 
Q 441 113 512 153 
Q 584 194 626 287 
Q 669 381 669 647 
L 669 1750 
Q 669 2216 641 2353 
Q 619 2453 572 2492 
Q 525 2531 444 2531 
Q 356 2531 231 2484 
L 188 2597 
L 1050 2947 
L 1188 2947 
z
" transform="scale(0.015625)"/>
       <path id="TimesNewRomanPSMT-74" d="M 1031 3803 
L 1031 2863 
L 1700 2863 
L 1700 2644 
L 1031 2644 
L 1031 788 
Q 1031 509 1111 412 
Q 1191 316 1316 316 
Q 1419 316 1516 380 
Q 1613 444 1666 569 
L 1788 569 
Q 1678 263 1478 108 
Q 1278 -47 1066 -47 
Q 922 -47 784 33 
Q 647 113 581 261 
Q 516 409 516 719 
L 516 2644 
L 63 2644 
L 63 2747 
Q 234 2816 414 2980 
Q 594 3144 734 3369 
Q 806 3488 934 3803 
L 1031 3803 
z
" transform="scale(0.015625)"/>
       <path id="TimesNewRomanPSMT-25" d="M 4350 4334 
L 1263 -175 
L 984 -175 
L 4072 4334 
L 4350 4334 
z
M 1138 4334 
Q 1559 4334 1792 3984 
Q 2025 3634 2025 3181 
Q 2025 2638 1762 2341 
Q 1500 2044 1131 2044 
Q 884 2044 678 2180 
Q 472 2316 348 2584 
Q 225 2853 225 3181 
Q 225 3509 350 3786 
Q 475 4063 692 4198 
Q 909 4334 1138 4334 
z
M 1128 4159 
Q 969 4159 845 3971 
Q 722 3784 722 3184 
Q 722 2750 791 2522 
Q 844 2350 956 2256 
Q 1022 2200 1119 2200 
Q 1269 2200 1375 2363 
Q 1531 2603 1531 3166 
Q 1531 3759 1378 4000 
Q 1278 4159 1128 4159 
z
M 4206 2103 
Q 4428 2103 4648 1962 
Q 4869 1822 4989 1553 
Q 5109 1284 5109 963 
Q 5109 409 4843 117 
Q 4578 -175 4216 -175 
Q 3988 -175 3773 -34 
Q 3559 106 3436 367 
Q 3313 628 3313 963 
Q 3313 1291 3436 1562 
Q 3559 1834 3773 1968 
Q 3988 2103 4206 2103 
z
M 4209 1938 
Q 4059 1938 3950 1769 
Q 3809 1550 3809 941 
Q 3809 381 3953 159 
Q 4059 0 4209 0 
Q 4353 0 4466 172 
Q 4616 400 4616 956 
Q 4616 1544 4466 1778 
Q 4363 1938 4209 1938 
z
" transform="scale(0.015625)"/>
      </defs>
      <use xlink:href="#TimesNewRomanPSMT-28"/>
      <use xlink:href="#TimesNewRomanPSMT-41" x="33.300781"/>
      <use xlink:href="#TimesNewRomanPSMT-29" x="105.517578"/>
      <use xlink:href="#TimesNewRomanPSMT-20" x="138.818359"/>
      <use xlink:href="#TimesNewRomanPSMT-62" x="163.818359"/>
      <use xlink:href="#TimesNewRomanPSMT-75" x="213.818359"/>
      <use xlink:href="#TimesNewRomanPSMT-66" x="263.818359"/>
      <use xlink:href="#TimesNewRomanPSMT-66" x="295.369141"/>
      <use xlink:href="#TimesNewRomanPSMT-65" x="328.669922"/>
      <use xlink:href="#TimesNewRomanPSMT-72" x="373.054688"/>
      <use xlink:href="#TimesNewRomanPSMT-20" x="406.355469"/>
      <use xlink:href="#TimesNewRomanPSMT-68" x="431.355469"/>
      <use xlink:href="#TimesNewRomanPSMT-69" x="481.355469"/>
      <use xlink:href="#TimesNewRomanPSMT-74" x="509.138672"/>
      <use xlink:href="#TimesNewRomanPSMT-20" x="536.921875"/>
      <use xlink:href="#TimesNewRomanPSMT-28" x="561.921875"/>
      <use xlink:href="#TimesNewRomanPSMT-25" x="595.222656"/>
      <use xlink:href="#TimesNewRomanPSMT-29" x="678.523438"/>
     </g>
    </g>
   </g>
   <g id="matplotlib.axis_2">
    <g id="ytick_1">
     <g id="text_11">
      <!-- 1.00 -->
      <g style="fill: #262626" transform="translate(33.472 284.519625) scale(0.3 -0.3)">
       <defs>
        <path id="TimesNewRomanPSMT-2e" d="M 800 606 
Q 947 606 1047 504 
Q 1147 403 1147 259 
Q 1147 116 1045 14 
Q 944 -88 800 -88 
Q 656 -88 554 14 
Q 453 116 453 259 
Q 453 406 554 506 
Q 656 606 800 606 
z
" transform="scale(0.015625)"/>
       </defs>
       <use xlink:href="#TimesNewRomanPSMT-31"/>
       <use xlink:href="#TimesNewRomanPSMT-2e" x="50"/>
       <use xlink:href="#TimesNewRomanPSMT-30" x="75"/>
       <use xlink:href="#TimesNewRomanPSMT-30" x="125"/>
      </g>
     </g>
    </g>
    <g id="ytick_2">
     <g id="text_12">
      <!-- 1.10 -->
      <g style="fill: #262626" transform="translate(33.472 224.339951) scale(0.3 -0.3)">
       <use xlink:href="#TimesNewRomanPSMT-31"/>
       <use xlink:href="#TimesNewRomanPSMT-2e" x="50"/>
       <use xlink:href="#TimesNewRomanPSMT-31" x="75"/>
       <use xlink:href="#TimesNewRomanPSMT-30" x="125"/>
      </g>
     </g>
    </g>
    <g id="ytick_3">
     <g id="text_13">
      <!-- 1.20 -->
      <g style="fill: #262626" transform="translate(33.472 164.160276) scale(0.3 -0.3)">
       <defs>
        <path id="TimesNewRomanPSMT-32" d="M 2934 816 
L 2638 0 
L 138 0 
L 138 116 
Q 1241 1122 1691 1759 
Q 2141 2397 2141 2925 
Q 2141 3328 1894 3587 
Q 1647 3847 1303 3847 
Q 991 3847 742 3664 
Q 494 3481 375 3128 
L 259 3128 
Q 338 3706 661 4015 
Q 984 4325 1469 4325 
Q 1984 4325 2329 3994 
Q 2675 3663 2675 3213 
Q 2675 2891 2525 2569 
Q 2294 2063 1775 1497 
Q 997 647 803 472 
L 1909 472 
Q 2247 472 2383 497 
Q 2519 522 2628 598 
Q 2738 675 2819 816 
L 2934 816 
z
" transform="scale(0.015625)"/>
       </defs>
       <use xlink:href="#TimesNewRomanPSMT-31"/>
       <use xlink:href="#TimesNewRomanPSMT-2e" x="50"/>
       <use xlink:href="#TimesNewRomanPSMT-32" x="75"/>
       <use xlink:href="#TimesNewRomanPSMT-30" x="125"/>
      </g>
     </g>
    </g>
    <g id="ytick_4">
     <g id="text_14">
      <!-- 1.30 -->
      <g style="fill: #262626" transform="translate(33.472 103.980602) scale(0.3 -0.3)">
       <defs>
        <path id="TimesNewRomanPSMT-33" d="M 325 3431 
Q 506 3859 782 4092 
Q 1059 4325 1472 4325 
Q 1981 4325 2253 3994 
Q 2459 3747 2459 3466 
Q 2459 3003 1878 2509 
Q 2269 2356 2469 2072 
Q 2669 1788 2669 1403 
Q 2669 853 2319 450 
Q 1863 -75 997 -75 
Q 569 -75 414 31 
Q 259 138 259 259 
Q 259 350 332 419 
Q 406 488 509 488 
Q 588 488 669 463 
Q 722 447 909 348 
Q 1097 250 1169 231 
Q 1284 197 1416 197 
Q 1734 197 1970 444 
Q 2206 691 2206 1028 
Q 2206 1275 2097 1509 
Q 2016 1684 1919 1775 
Q 1784 1900 1550 2001 
Q 1316 2103 1072 2103 
L 972 2103 
L 972 2197 
Q 1219 2228 1467 2375 
Q 1716 2522 1828 2728 
Q 1941 2934 1941 3181 
Q 1941 3503 1739 3701 
Q 1538 3900 1238 3900 
Q 753 3900 428 3381 
L 325 3431 
z
" transform="scale(0.015625)"/>
       </defs>
       <use xlink:href="#TimesNewRomanPSMT-31"/>
       <use xlink:href="#TimesNewRomanPSMT-2e" x="50"/>
       <use xlink:href="#TimesNewRomanPSMT-33" x="75"/>
       <use xlink:href="#TimesNewRomanPSMT-30" x="125"/>
      </g>
     </g>
    </g>
    <g id="text_15">
     <!-- Sphinx latency speedup -->
     <g style="fill: #262626" transform="translate(23.322234 297.302508) rotate(-90) scale(0.285 -0.285)">
      <defs>
       <path id="TimesNewRomanPS-BoldMT-53" d="M 3006 4334 
L 3041 2922 
L 2913 2922 
Q 2822 3453 2467 3776 
Q 2113 4100 1700 4100 
Q 1381 4100 1195 3929 
Q 1009 3759 1009 3538 
Q 1009 3397 1075 3288 
Q 1166 3141 1366 2997 
Q 1513 2894 2044 2631 
Q 2788 2266 3047 1941 
Q 3303 1616 3303 1197 
Q 3303 666 2889 283 
Q 2475 -100 1838 -100 
Q 1638 -100 1459 -59 
Q 1281 -19 1013 94 
Q 863 156 766 156 
Q 684 156 593 93 
Q 503 31 447 -97 
L 331 -97 
L 331 1503 
L 447 1503 
Q 584 828 976 473 
Q 1369 119 1822 119 
Q 2172 119 2380 309 
Q 2588 500 2588 753 
Q 2588 903 2508 1043 
Q 2428 1184 2265 1311 
Q 2103 1438 1691 1641 
Q 1113 1925 859 2125 
Q 606 2325 470 2572 
Q 334 2819 334 3116 
Q 334 3622 706 3978 
Q 1078 4334 1644 4334 
Q 1850 4334 2044 4284 
Q 2191 4247 2402 4145 
Q 2613 4044 2697 4044 
Q 2778 4044 2825 4094 
Q 2872 4144 2913 4334 
L 3006 4334 
z
" transform="scale(0.015625)"/>
       <path id="TimesNewRomanPS-BoldMT-70" d="M 1347 297 
L 1347 -791 
Q 1347 -1016 1383 -1097 
Q 1419 -1178 1494 -1215 
Q 1569 -1253 1788 -1253 
L 1788 -1369 
L 122 -1369 
L 122 -1253 
Q 316 -1247 409 -1144 
Q 472 -1072 472 -772 
L 472 2313 
Q 472 2622 400 2708 
Q 328 2794 122 2806 
L 122 2922 
L 1347 2922 
L 1347 2538 
Q 1500 2763 1659 2863 
Q 1888 3009 2156 3009 
Q 2478 3009 2742 2806 
Q 3006 2603 3143 2245 
Q 3281 1888 3281 1475 
Q 3281 1031 3139 664 
Q 2997 297 2726 104 
Q 2456 -88 2125 -88 
Q 1884 -88 1675 19 
Q 1519 100 1347 297 
z
M 1347 613 
Q 1616 231 1922 231 
Q 2091 231 2200 409 
Q 2363 672 2363 1409 
Q 2363 2166 2184 2444 
Q 2066 2628 1866 2628 
Q 1550 2628 1347 2172 
L 1347 613 
z
" transform="scale(0.015625)"/>
       <path id="TimesNewRomanPS-BoldMT-68" d="M 1409 4238 
L 1409 2547 
Q 1650 2800 1850 2904 
Q 2050 3009 2266 3009 
Q 2541 3009 2736 2853 
Q 2931 2697 2995 2486 
Q 3059 2275 3059 1775 
L 3059 634 
Q 3059 300 3121 217 
Q 3184 134 3375 113 
L 3375 0 
L 1894 0 
L 1894 113 
Q 2050 134 2128 238 
Q 2184 319 2184 634 
L 2184 1938 
Q 2184 2300 2156 2392 
Q 2128 2484 2061 2536 
Q 1994 2588 1909 2588 
Q 1784 2588 1665 2502 
Q 1547 2416 1409 2200 
L 1409 634 
Q 1409 322 1456 244 
Q 1516 138 1700 113 
L 1700 0 
L 219 0 
L 219 113 
Q 403 131 481 231 
Q 534 300 534 634 
L 534 3603 
Q 534 3934 473 4015 
Q 413 4097 219 4122 
L 219 4238 
L 1409 4238 
z
" transform="scale(0.015625)"/>
       <path id="TimesNewRomanPS-BoldMT-69" d="M 919 4338 
Q 1122 4338 1262 4195 
Q 1403 4053 1403 3853 
Q 1403 3653 1261 3512 
Q 1119 3372 919 3372 
Q 719 3372 578 3512 
Q 438 3653 438 3853 
Q 438 4053 578 4195 
Q 719 4338 919 4338 
z
M 1356 2922 
L 1356 606 
Q 1356 297 1428 211 
Q 1500 125 1709 113 
L 1709 0 
L 131 0 
L 131 113 
Q 325 119 419 225 
Q 481 297 481 606 
L 481 2313 
Q 481 2622 409 2708 
Q 338 2794 131 2806 
L 131 2922 
L 1356 2922 
z
" transform="scale(0.015625)"/>
       <path id="TimesNewRomanPS-BoldMT-6e" d="M 1409 2922 
L 1409 2544 
Q 1634 2788 1840 2898 
Q 2047 3009 2284 3009 
Q 2569 3009 2756 2851 
Q 2944 2694 3006 2459 
Q 3056 2281 3056 1775 
L 3056 638 
Q 3056 300 3117 217 
Q 3178 134 3372 113 
L 3372 0 
L 1894 0 
L 1894 113 
Q 2059 134 2131 250 
Q 2181 328 2181 638 
L 2181 1938 
Q 2181 2297 2153 2390 
Q 2125 2484 2058 2536 
Q 1991 2588 1909 2588 
Q 1641 2588 1409 2203 
L 1409 638 
Q 1409 309 1470 221 
Q 1531 134 1697 113 
L 1697 0 
L 219 0 
L 219 113 
Q 403 131 481 231 
Q 534 300 534 638 
L 534 2288 
Q 534 2619 473 2700 
Q 413 2781 219 2806 
L 219 2922 
L 1409 2922 
z
" transform="scale(0.015625)"/>
       <path id="TimesNewRomanPS-BoldMT-78" d="M 1944 1791 
L 2450 828 
Q 2713 325 2866 191 
Q 2950 119 3097 113 
L 3097 0 
L 1469 0 
L 1469 113 
Q 1659 128 1704 162 
Q 1750 197 1750 256 
Q 1750 344 1650 531 
L 1397 1006 
L 1181 691 
Q 1034 475 1016 434 
Q 991 375 991 328 
Q 991 256 1020 207 
Q 1050 159 1101 136 
Q 1153 113 1291 113 
L 1291 0 
L 147 0 
L 147 113 
Q 359 113 536 230 
Q 713 347 1050 844 
L 1291 1200 
L 788 2131 
Q 541 2588 419 2691 
Q 297 2794 147 2806 
L 147 2922 
L 1766 2922 
L 1766 2806 
L 1681 2803 
L 1519 2747 
Q 1494 2725 1494 2675 
Q 1494 2628 1509 2578 
Q 1519 2556 1597 2409 
L 1825 1984 
L 1944 2153 
Q 2194 2497 2194 2634 
Q 2194 2700 2139 2745 
Q 2084 2791 1944 2806 
L 1944 2922 
L 2978 2922 
L 2978 2806 
Q 2788 2800 2622 2689 
Q 2456 2578 2250 2259 
L 1944 1791 
z
" transform="scale(0.015625)"/>
       <path id="TimesNewRomanPS-BoldMT-20" transform="scale(0.015625)"/>
       <path id="TimesNewRomanPS-BoldMT-6c" d="M 1359 4238 
L 1359 606 
Q 1359 297 1431 211 
Q 1503 125 1713 113 
L 1713 0 
L 134 0 
L 134 113 
Q 328 119 422 225 
Q 484 297 484 606 
L 484 3631 
Q 484 3938 412 4023 
Q 341 4109 134 4122 
L 134 4238 
L 1359 4238 
z
" transform="scale(0.015625)"/>
       <path id="TimesNewRomanPS-BoldMT-61" d="M 1828 431 
Q 1294 -41 869 -41 
Q 619 -41 453 123 
Q 288 288 288 534 
Q 288 869 575 1136 
Q 863 1403 1828 1847 
L 1828 2141 
Q 1828 2472 1792 2558 
Q 1756 2644 1656 2708 
Q 1556 2772 1431 2772 
Q 1228 2772 1097 2681 
Q 1016 2625 1016 2550 
Q 1016 2484 1103 2388 
Q 1222 2253 1222 2128 
Q 1222 1975 1108 1867 
Q 994 1759 809 1759 
Q 613 1759 480 1878 
Q 347 1997 347 2156 
Q 347 2381 525 2586 
Q 703 2791 1022 2900 
Q 1341 3009 1684 3009 
Q 2100 3009 2342 2832 
Q 2584 2656 2656 2450 
Q 2700 2319 2700 1847 
L 2700 713 
Q 2700 513 2715 461 
Q 2731 409 2762 384 
Q 2794 359 2834 359 
Q 2916 359 3000 475 
L 3094 400 
Q 2938 169 2770 64 
Q 2603 -41 2391 -41 
Q 2141 -41 2000 76 
Q 1859 194 1828 431 
z
M 1828 659 
L 1828 1638 
Q 1450 1416 1266 1163 
Q 1144 994 1144 822 
Q 1144 678 1247 569 
Q 1325 484 1466 484 
Q 1622 484 1828 659 
z
" transform="scale(0.015625)"/>
       <path id="TimesNewRomanPS-BoldMT-74" d="M 1375 3991 
L 1375 2922 
L 2069 2922 
L 2069 2613 
L 1375 2613 
L 1375 809 
Q 1375 556 1398 482 
Q 1422 409 1481 364 
Q 1541 319 1591 319 
Q 1794 319 1975 628 
L 2069 559 
Q 1816 -41 1247 -41 
Q 969 -41 776 114 
Q 584 269 531 459 
Q 500 566 500 1034 
L 500 2613 
L 119 2613 
L 119 2722 
Q 513 3000 789 3306 
Q 1066 3613 1272 3991 
L 1375 3991 
z
" transform="scale(0.015625)"/>
       <path id="TimesNewRomanPS-BoldMT-65" d="M 2691 1566 
L 1088 1566 
Q 1116 984 1397 647 
Q 1613 388 1916 388 
Q 2103 388 2256 492 
Q 2409 597 2584 869 
L 2691 800 
Q 2453 316 2165 114 
Q 1878 -88 1500 -88 
Q 850 -88 516 413 
Q 247 816 247 1413 
Q 247 2144 642 2576 
Q 1038 3009 1569 3009 
Q 2013 3009 2339 2645 
Q 2666 2281 2691 1566 
z
M 1922 1775 
Q 1922 2278 1867 2465 
Q 1813 2653 1697 2750 
Q 1631 2806 1522 2806 
Q 1359 2806 1256 2647 
Q 1072 2369 1072 1884 
L 1072 1775 
L 1922 1775 
z
" transform="scale(0.015625)"/>
       <path id="TimesNewRomanPS-BoldMT-63" d="M 2600 753 
L 2697 678 
Q 2491 291 2183 101 
Q 1875 -88 1528 -88 
Q 944 -88 594 353 
Q 244 794 244 1413 
Q 244 2009 563 2463 
Q 947 3009 1622 3009 
Q 2075 3009 2342 2781 
Q 2609 2553 2609 2272 
Q 2609 2094 2501 1987 
Q 2394 1881 2219 1881 
Q 2034 1881 1914 2003 
Q 1794 2125 1766 2438 
Q 1747 2634 1675 2713 
Q 1603 2791 1506 2791 
Q 1356 2791 1250 2631 
Q 1088 2391 1088 1894 
Q 1088 1481 1219 1104 
Q 1350 728 1578 544 
Q 1750 409 1984 409 
Q 2138 409 2275 481 
Q 2413 553 2600 753 
z
" transform="scale(0.015625)"/>
       <path id="TimesNewRomanPS-BoldMT-79" d="M 1556 -119 
L 613 2047 
Q 400 2538 298 2650 
Q 197 2763 53 2806 
L 53 2922 
L 1606 2922 
L 1606 2806 
Q 1453 2800 1390 2747 
Q 1328 2694 1328 2619 
Q 1328 2500 1484 2150 
L 1984 1006 
L 2325 1891 
Q 2509 2363 2509 2547 
Q 2509 2663 2432 2731 
Q 2356 2800 2163 2806 
L 2163 2922 
L 3141 2922 
L 3141 2806 
Q 2997 2791 2906 2695 
Q 2816 2600 2603 2047 
L 1769 -119 
Q 1453 -931 1300 -1119 
Q 1084 -1381 759 -1381 
Q 500 -1381 339 -1232 
Q 178 -1084 178 -875 
Q 178 -694 289 -575 
Q 400 -456 563 -456 
Q 719 -456 814 -556 
Q 909 -656 913 -866 
Q 916 -984 941 -1019 
Q 966 -1053 1013 -1053 
Q 1088 -1053 1172 -963 
Q 1297 -831 1466 -363 
L 1556 -119 
z
" transform="scale(0.015625)"/>
       <path id="TimesNewRomanPS-BoldMT-73" d="M 2063 3003 
L 2109 2006 
L 2003 2006 
Q 1813 2450 1608 2612 
Q 1403 2775 1200 2775 
Q 1072 2775 981 2689 
Q 891 2603 891 2491 
Q 891 2406 953 2328 
Q 1053 2200 1512 1889 
Q 1972 1578 2117 1361 
Q 2263 1144 2263 875 
Q 2263 631 2141 397 
Q 2019 163 1797 37 
Q 1575 -88 1306 -88 
Q 1097 -88 747 44 
Q 653 78 619 78 
Q 516 78 447 -78 
L 344 -78 
L 294 972 
L 400 972 
Q 541 559 786 353 
Q 1031 147 1250 147 
Q 1400 147 1495 239 
Q 1591 331 1591 463 
Q 1591 613 1497 722 
Q 1403 831 1078 1053 
Q 600 1384 459 1559 
Q 253 1816 253 2125 
Q 253 2463 486 2736 
Q 719 3009 1159 3009 
Q 1397 3009 1619 2894 
Q 1703 2847 1756 2847 
Q 1813 2847 1847 2870 
Q 1881 2894 1956 3003 
L 2063 3003 
z
" transform="scale(0.015625)"/>
       <path id="TimesNewRomanPS-BoldMT-64" d="M 3056 4238 
L 3056 875 
Q 3056 534 3075 472 
Q 3100 369 3170 319 
Q 3241 269 3416 256 
L 3416 153 
L 2181 -88 
L 2181 375 
Q 1959 106 1786 9 
Q 1613 -88 1394 -88 
Q 834 -88 509 413 
Q 247 819 247 1409 
Q 247 1881 409 2254 
Q 572 2628 855 2818 
Q 1138 3009 1463 3009 
Q 1672 3009 1834 2928 
Q 1997 2847 2181 2644 
L 2181 3525 
Q 2181 3859 2153 3928 
Q 2116 4019 2041 4062 
Q 1966 4106 1759 4106 
L 1759 4238 
L 3056 4238 
z
M 2181 2256 
Q 1950 2700 1616 2700 
Q 1500 2700 1425 2638 
Q 1309 2541 1236 2297 
Q 1163 2053 1163 1550 
Q 1163 997 1244 731 
Q 1325 466 1466 347 
Q 1538 288 1663 288 
Q 1938 288 2181 719 
L 2181 2256 
z
" transform="scale(0.015625)"/>
       <path id="TimesNewRomanPS-BoldMT-75" d="M 3038 2922 
L 3038 634 
Q 3038 300 3100 217 
Q 3163 134 3353 113 
L 3353 0 
L 2163 0 
L 2163 391 
Q 1953 141 1743 26 
Q 1534 -88 1275 -88 
Q 1028 -88 836 64 
Q 644 216 578 419 
Q 513 622 513 1128 
L 513 2288 
Q 513 2619 452 2700 
Q 391 2781 197 2806 
L 197 2922 
L 1388 2922 
L 1388 925 
Q 1388 613 1417 522 
Q 1447 431 1511 384 
Q 1575 338 1659 338 
Q 1772 338 1863 397 
Q 1988 478 2163 725 
L 2163 2288 
Q 2163 2619 2102 2700 
Q 2041 2781 1847 2806 
L 1847 2922 
L 3038 2922 
z
" transform="scale(0.015625)"/>
      </defs>
      <use xlink:href="#TimesNewRomanPS-BoldMT-53"/>
      <use xlink:href="#TimesNewRomanPS-BoldMT-70" x="55.615234"/>
      <use xlink:href="#TimesNewRomanPS-BoldMT-68" x="111.230469"/>
      <use xlink:href="#TimesNewRomanPS-BoldMT-69" x="166.845703"/>
      <use xlink:href="#TimesNewRomanPS-BoldMT-6e" x="194.628906"/>
      <use xlink:href="#TimesNewRomanPS-BoldMT-78" x="250.244141"/>
      <use xlink:href="#TimesNewRomanPS-BoldMT-20" x="300.244141"/>
      <use xlink:href="#TimesNewRomanPS-BoldMT-6c" x="325.244141"/>
      <use xlink:href="#TimesNewRomanPS-BoldMT-61" x="353.027344"/>
      <use xlink:href="#TimesNewRomanPS-BoldMT-74" x="403.027344"/>
      <use xlink:href="#TimesNewRomanPS-BoldMT-65" x="436.328125"/>
      <use xlink:href="#TimesNewRomanPS-BoldMT-6e" x="480.712891"/>
      <use xlink:href="#TimesNewRomanPS-BoldMT-63" x="536.328125"/>
      <use xlink:href="#TimesNewRomanPS-BoldMT-79" x="580.712891"/>
      <use xlink:href="#TimesNewRomanPS-BoldMT-20" x="630.712891"/>
      <use xlink:href="#TimesNewRomanPS-BoldMT-73" x="655.712891"/>
      <use xlink:href="#TimesNewRomanPS-BoldMT-70" x="694.628906"/>
      <use xlink:href="#TimesNewRomanPS-BoldMT-65" x="750.244141"/>
      <use xlink:href="#TimesNewRomanPS-BoldMT-65" x="794.628906"/>
      <use xlink:href="#TimesNewRomanPS-BoldMT-64" x="839.013672"/>
      <use xlink:href="#TimesNewRomanPS-BoldMT-75" x="894.628906"/>
      <use xlink:href="#TimesNewRomanPS-BoldMT-70" x="950.244141"/>
     </g>
    </g>
   </g>
   <g id="line2d_1">
    <path d="M 108.363106 259.904905 
L 151.333459 257.332252 
L 194.303812 251.785027 
L 237.274165 242.261561 
L 280.244518 229.652647 
L 323.214871 219.321434 
L 366.185224 209.491207 
L 409.155576 189.33555 
L 417.749647 182.896156 
L 426.343718 168.057586 
L 434.937788 152.387315 
L 443.531859 62.119604 
" clip-path="url(#pdc3603fb8c)" style="fill: none; stroke: #8b0000; stroke-width: 1.5; stroke-linecap: round"/>
    <defs>
     <path id="mee19b8d0a1" d="M 0 8.5 
C 2.254226 8.5 4.416429 7.604386 6.010408 6.010408 
C 7.604386 4.416429 8.5 2.254226 8.5 0 
C 8.5 -2.254226 7.604386 -4.416429 6.010408 -6.010408 
C 4.416429 -7.604386 2.254226 -8.5 0 -8.5 
C -2.254226 -8.5 -4.416429 -7.604386 -6.010408 -6.010408 
C -7.604386 -4.416429 -8.5 -2.254226 -8.5 0 
C -8.5 2.254226 -7.604386 4.416429 -6.010408 6.010408 
C -4.416429 7.604386 -2.254226 8.5 0 8.5 
z
" style="stroke: #8b0000"/>
    </defs>
    <g clip-path="url(#pdc3603fb8c)">
     <use xlink:href="#mee19b8d0a1" x="108.363106" y="259.904905" style="fill-opacity: 0; stroke: #8b0000"/>
     <use xlink:href="#mee19b8d0a1" x="151.333459" y="257.332252" style="fill-opacity: 0; stroke: #8b0000"/>
     <use xlink:href="#mee19b8d0a1" x="194.303812" y="251.785027" style="fill-opacity: 0; stroke: #8b0000"/>
     <use xlink:href="#mee19b8d0a1" x="237.274165" y="242.261561" style="fill-opacity: 0; stroke: #8b0000"/>
     <use xlink:href="#mee19b8d0a1" x="280.244518" y="229.652647" style="fill-opacity: 0; stroke: #8b0000"/>
     <use xlink:href="#mee19b8d0a1" x="323.214871" y="219.321434" style="fill-opacity: 0; stroke: #8b0000"/>
     <use xlink:href="#mee19b8d0a1" x="366.185224" y="209.491207" style="fill-opacity: 0; stroke: #8b0000"/>
     <use xlink:href="#mee19b8d0a1" x="409.155576" y="189.33555" style="fill-opacity: 0; stroke: #8b0000"/>
     <use xlink:href="#mee19b8d0a1" x="417.749647" y="182.896156" style="fill-opacity: 0; stroke: #8b0000"/>
     <use xlink:href="#mee19b8d0a1" x="426.343718" y="168.057586" style="fill-opacity: 0; stroke: #8b0000"/>
     <use xlink:href="#mee19b8d0a1" x="434.937788" y="152.387315" style="fill-opacity: 0; stroke: #8b0000"/>
     <use xlink:href="#mee19b8d0a1" x="443.531859" y="62.119604" style="fill-opacity: 0; stroke: #8b0000"/>
    </g>
   </g>
   <g id="line2d_2">
    <path d="M 108.363106 262.696342 
L 151.333459 259.821655 
L 194.303812 250.60129 
L 237.274165 245.377237 
L 280.244518 231.06423 
L 323.214871 222.959294 
L 366.185224 212.438122 
L 409.155576 193.753457 
L 417.749647 168.965717 
L 426.343718 173.221283 
L 434.937788 110.545881 
L 443.531859 44.737921 
" clip-path="url(#pdc3603fb8c)" style="fill: none; stroke: #006400; stroke-width: 1.5; stroke-linecap: round"/>
    <defs>
     <path id="mdc26f096bc" d="M -8.5 8.5 
L 8.5 8.5 
L 8.5 -8.5 
L -8.5 -8.5 
z
" style="stroke: #006400; stroke-linejoin: miter"/>
    </defs>
    <g clip-path="url(#pdc3603fb8c)">
     <use xlink:href="#mdc26f096bc" x="108.363106" y="262.696342" style="fill-opacity: 0; stroke: #006400; stroke-linejoin: miter"/>
     <use xlink:href="#mdc26f096bc" x="151.333459" y="259.821655" style="fill-opacity: 0; stroke: #006400; stroke-linejoin: miter"/>
     <use xlink:href="#mdc26f096bc" x="194.303812" y="250.60129" style="fill-opacity: 0; stroke: #006400; stroke-linejoin: miter"/>
     <use xlink:href="#mdc26f096bc" x="237.274165" y="245.377237" style="fill-opacity: 0; stroke: #006400; stroke-linejoin: miter"/>
     <use xlink:href="#mdc26f096bc" x="280.244518" y="231.06423" style="fill-opacity: 0; stroke: #006400; stroke-linejoin: miter"/>
     <use xlink:href="#mdc26f096bc" x="323.214871" y="222.959294" style="fill-opacity: 0; stroke: #006400; stroke-linejoin: miter"/>
     <use xlink:href="#mdc26f096bc" x="366.185224" y="212.438122" style="fill-opacity: 0; stroke: #006400; stroke-linejoin: miter"/>
     <use xlink:href="#mdc26f096bc" x="409.155576" y="193.753457" style="fill-opacity: 0; stroke: #006400; stroke-linejoin: miter"/>
     <use xlink:href="#mdc26f096bc" x="417.749647" y="168.965717" style="fill-opacity: 0; stroke: #006400; stroke-linejoin: miter"/>
     <use xlink:href="#mdc26f096bc" x="426.343718" y="173.221283" style="fill-opacity: 0; stroke: #006400; stroke-linejoin: miter"/>
     <use xlink:href="#mdc26f096bc" x="434.937788" y="110.545881" style="fill-opacity: 0; stroke: #006400; stroke-linejoin: miter"/>
     <use xlink:href="#mdc26f096bc" x="443.531859" y="44.737921" style="fill-opacity: 0; stroke: #006400; stroke-linejoin: miter"/>
    </g>
   </g>
   <g id="patch_3">
    <path d="M 95.472 274.104 
L 95.472 33.84 
" style="fill: none; stroke: #cccccc; stroke-width: 1.25; stroke-linejoin: miter; stroke-linecap: square"/>
   </g>
   <g id="patch_4">
    <path d="M 95.472 274.104 
L 460.72 274.104 
" style="fill: none; stroke: #cccccc; stroke-width: 1.25; stroke-linejoin: miter; stroke-linecap: square"/>
   </g>
   <g id="legend_1">
    <g id="line2d_3">
     <path d="M 125.172 22.23192 
L 158.172 22.23192 
L 191.172 22.23192 
" style="fill: none; stroke: #8b0000; stroke-width: 1.5; stroke-linecap: round"/>
     <g>
      <use xlink:href="#mee19b8d0a1" x="158.172" y="22.23192" style="fill-opacity: 0; stroke: #8b0000"/>
     </g>
    </g>
    <g id="text_16">
     <!-- 10% buffer size -->
     <g style="fill: #262626" transform="translate(201.072 33.78192) scale(0.33 -0.33)">
      <defs>
       <path id="TimesNewRomanPSMT-73" d="M 2050 2947 
L 2050 1972 
L 1947 1972 
Q 1828 2431 1642 2597 
Q 1456 2763 1169 2763 
Q 950 2763 815 2647 
Q 681 2531 681 2391 
Q 681 2216 781 2091 
Q 878 1963 1175 1819 
L 1631 1597 
Q 2266 1288 2266 781 
Q 2266 391 1970 151 
Q 1675 -88 1309 -88 
Q 1047 -88 709 6 
Q 606 38 541 38 
Q 469 38 428 -44 
L 325 -44 
L 325 978 
L 428 978 
Q 516 541 762 319 
Q 1009 97 1316 97 
Q 1531 97 1667 223 
Q 1803 350 1803 528 
Q 1803 744 1651 891 
Q 1500 1038 1047 1263 
Q 594 1488 453 1669 
Q 313 1847 313 2119 
Q 313 2472 555 2709 
Q 797 2947 1181 2947 
Q 1350 2947 1591 2875 
Q 1750 2828 1803 2828 
Q 1853 2828 1881 2850 
Q 1909 2872 1947 2947 
L 2050 2947 
z
" transform="scale(0.015625)"/>
       <path id="TimesNewRomanPSMT-7a" d="M 2688 878 
L 2653 0 
L 128 0 
L 128 113 
L 2028 2644 
L 1091 2644 
Q 788 2644 694 2605 
Q 600 2566 541 2456 
Q 456 2300 444 2069 
L 319 2069 
L 338 2863 
L 2738 2863 
L 2738 2747 
L 819 209 
L 1863 209 
Q 2191 209 2308 264 
Q 2425 319 2497 456 
Q 2547 556 2581 878 
L 2688 878 
z
" transform="scale(0.015625)"/>
      </defs>
      <use xlink:href="#TimesNewRomanPSMT-31"/>
      <use xlink:href="#TimesNewRomanPSMT-30" x="50"/>
      <use xlink:href="#TimesNewRomanPSMT-25" x="100"/>
      <use xlink:href="#TimesNewRomanPSMT-20" x="183.300781"/>
      <use xlink:href="#TimesNewRomanPSMT-62" x="208.300781"/>
      <use xlink:href="#TimesNewRomanPSMT-75" x="258.300781"/>
      <use xlink:href="#TimesNewRomanPSMT-66" x="308.300781"/>
      <use xlink:href="#TimesNewRomanPSMT-66" x="339.851562"/>
      <use xlink:href="#TimesNewRomanPSMT-65" x="373.152344"/>
      <use xlink:href="#TimesNewRomanPSMT-72" x="417.537109"/>
      <use xlink:href="#TimesNewRomanPSMT-20" x="450.837891"/>
      <use xlink:href="#TimesNewRomanPSMT-73" x="475.837891"/>
      <use xlink:href="#TimesNewRomanPSMT-69" x="514.753906"/>
      <use xlink:href="#TimesNewRomanPSMT-7a" x="542.537109"/>
      <use xlink:href="#TimesNewRomanPSMT-65" x="586.921875"/>
     </g>
    </g>
    <g id="line2d_4">
     <path d="M 125.172 55.690826 
L 158.172 55.690826 
L 191.172 55.690826 
" style="fill: none; stroke: #006400; stroke-width: 1.5; stroke-linecap: round"/>
     <g>
      <use xlink:href="#mdc26f096bc" x="158.172" y="55.690826" style="fill-opacity: 0; stroke: #006400; stroke-linejoin: miter"/>
     </g>
    </g>
    <g id="text_17">
     <!-- 5% buffer size -->
     <g style="fill: #262626" transform="translate(201.072 67.240826) scale(0.33 -0.33)">
      <use xlink:href="#TimesNewRomanPSMT-35"/>
      <use xlink:href="#TimesNewRomanPSMT-25" x="50"/>
      <use xlink:href="#TimesNewRomanPSMT-20" x="133.300781"/>
      <use xlink:href="#TimesNewRomanPSMT-62" x="158.300781"/>
      <use xlink:href="#TimesNewRomanPSMT-75" x="208.300781"/>
      <use xlink:href="#TimesNewRomanPSMT-66" x="258.300781"/>
      <use xlink:href="#TimesNewRomanPSMT-66" x="289.851562"/>
      <use xlink:href="#TimesNewRomanPSMT-65" x="323.152344"/>
      <use xlink:href="#TimesNewRomanPSMT-72" x="367.537109"/>
      <use xlink:href="#TimesNewRomanPSMT-20" x="400.837891"/>
      <use xlink:href="#TimesNewRomanPSMT-73" x="425.837891"/>
      <use xlink:href="#TimesNewRomanPSMT-69" x="464.753906"/>
      <use xlink:href="#TimesNewRomanPSMT-7a" x="492.537109"/>
      <use xlink:href="#TimesNewRomanPSMT-65" x="536.921875"/>
     </g>
    </g>
   </g>
  </g>
  <g id="axes_2">
   <g id="patch_5">
    <path d="M 552.032 274.104 
L 917.28 274.104 
L 917.28 33.84 
L 552.032 33.84 
z
" style="fill: #ffffff"/>
   </g>
   <g id="matplotlib.axis_3">
    <g id="xtick_10">
     <g id="text_18">
      <!-- 1 -->
      <g style="fill: #262626" transform="translate(547.369208 304.43525) scale(0.3 -0.3)">
       <use xlink:href="#TimesNewRomanPSMT-31"/>
      </g>
     </g>
    </g>
    <g id="xtick_11">
     <g id="text_19">
      <!-- 2 -->
      <g style="fill: #262626" transform="translate(604.798138 304.43525) scale(0.3 -0.3)">
       <use xlink:href="#TimesNewRomanPSMT-32"/>
      </g>
     </g>
    </g>
    <g id="xtick_12">
     <g id="text_20">
      <!-- 4 -->
      <g style="fill: #262626" transform="translate(662.227069 304.43525) scale(0.3 -0.3)">
       <defs>
        <path id="TimesNewRomanPSMT-34" d="M 2978 1563 
L 2978 1119 
L 2409 1119 
L 2409 0 
L 1894 0 
L 1894 1119 
L 100 1119 
L 100 1519 
L 2066 4325 
L 2409 4325 
L 2409 1563 
L 2978 1563 
z
M 1894 1563 
L 1894 3666 
L 406 1563 
L 1894 1563 
z
" transform="scale(0.015625)"/>
       </defs>
       <use xlink:href="#TimesNewRomanPSMT-34"/>
      </g>
     </g>
    </g>
    <g id="xtick_13">
     <g id="text_21">
      <!-- 8 -->
      <g style="fill: #262626" transform="translate(719.656 304.43525) scale(0.3 -0.3)">
       <use xlink:href="#TimesNewRomanPSMT-38"/>
      </g>
     </g>
    </g>
    <g id="xtick_14">
     <g id="text_22">
      <!-- 16 -->
      <g style="fill: #262626" transform="translate(762.084931 304.43525) scale(0.3 -0.3)">
       <use xlink:href="#TimesNewRomanPSMT-31"/>
       <use xlink:href="#TimesNewRomanPSMT-36" x="50"/>
      </g>
     </g>
    </g>
    <g id="xtick_15">
     <g id="text_23">
      <!-- 32 -->
      <g style="fill: #262626" transform="translate(819.513862 304.43525) scale(0.3 -0.3)">
       <use xlink:href="#TimesNewRomanPSMT-33"/>
       <use xlink:href="#TimesNewRomanPSMT-32" x="50"/>
      </g>
     </g>
    </g>
    <g id="xtick_16">
     <g id="text_24">
      <!-- 64 -->
      <g style="fill: #262626" transform="translate(876.942792 304.43525) scale(0.3 -0.3)">
       <use xlink:href="#TimesNewRomanPSMT-36"/>
       <use xlink:href="#TimesNewRomanPSMT-34" x="50"/>
      </g>
     </g>
    </g>
    <g id="xtick_17"/>
    <g id="xtick_18"/>
    <g id="xtick_19"/>
    <g id="xtick_20"/>
    <g id="xtick_21"/>
    <g id="xtick_22"/>
    <g id="xtick_23"/>
    <g id="xtick_24"/>
    <g id="xtick_25"/>
    <g id="xtick_26"/>
    <g id="xtick_27"/>
    <g id="xtick_28"/>
    <g id="text_25">
     <!-- (B) thread count -->
     <g style="fill: #262626" transform="translate(636.356781 335.683688) scale(0.3 -0.3)">
      <defs>
       <path id="TimesNewRomanPSMT-42" d="M 2956 2163 
Q 3397 2069 3616 1863 
Q 3919 1575 3919 1159 
Q 3919 844 3719 555 
Q 3519 266 3170 133 
Q 2822 0 2106 0 
L 106 0 
L 106 116 
L 266 116 
Q 531 116 647 284 
Q 719 394 719 750 
L 719 3488 
Q 719 3881 628 3984 
Q 506 4122 266 4122 
L 106 4122 
L 106 4238 
L 1938 4238 
Q 2450 4238 2759 4163 
Q 3228 4050 3475 3764 
Q 3722 3478 3722 3106 
Q 3722 2788 3528 2536 
Q 3334 2284 2956 2163 
z
M 1319 2331 
Q 1434 2309 1582 2298 
Q 1731 2288 1909 2288 
Q 2366 2288 2595 2386 
Q 2825 2484 2947 2687 
Q 3069 2891 3069 3131 
Q 3069 3503 2766 3765 
Q 2463 4028 1881 4028 
Q 1569 4028 1319 3959 
L 1319 2331 
z
M 1319 306 
Q 1681 222 2034 222 
Q 2600 222 2897 476 
Q 3194 731 3194 1106 
Q 3194 1353 3059 1581 
Q 2925 1809 2622 1940 
Q 2319 2072 1872 2072 
Q 1678 2072 1540 2065 
Q 1403 2059 1319 2044 
L 1319 306 
z
" transform="scale(0.015625)"/>
       <path id="TimesNewRomanPSMT-61" d="M 1822 413 
Q 1381 72 1269 19 
Q 1100 -59 909 -59 
Q 613 -59 420 144 
Q 228 347 228 678 
Q 228 888 322 1041 
Q 450 1253 767 1440 
Q 1084 1628 1822 1897 
L 1822 2009 
Q 1822 2438 1686 2597 
Q 1550 2756 1291 2756 
Q 1094 2756 978 2650 
Q 859 2544 859 2406 
L 866 2225 
Q 866 2081 792 2003 
Q 719 1925 600 1925 
Q 484 1925 411 2006 
Q 338 2088 338 2228 
Q 338 2497 613 2722 
Q 888 2947 1384 2947 
Q 1766 2947 2009 2819 
Q 2194 2722 2281 2516 
Q 2338 2381 2338 1966 
L 2338 994 
Q 2338 584 2353 492 
Q 2369 400 2405 369 
Q 2441 338 2488 338 
Q 2538 338 2575 359 
Q 2641 400 2828 588 
L 2828 413 
Q 2478 -56 2159 -56 
Q 2006 -56 1915 50 
Q 1825 156 1822 413 
z
M 1822 616 
L 1822 1706 
Q 1350 1519 1213 1441 
Q 966 1303 859 1153 
Q 753 1003 753 825 
Q 753 600 887 451 
Q 1022 303 1197 303 
Q 1434 303 1822 616 
z
" transform="scale(0.015625)"/>
       <path id="TimesNewRomanPSMT-64" d="M 2222 322 
Q 2013 103 1813 7 
Q 1613 -88 1381 -88 
Q 913 -88 563 304 
Q 213 697 213 1313 
Q 213 1928 600 2439 
Q 988 2950 1597 2950 
Q 1975 2950 2222 2709 
L 2222 3238 
Q 2222 3728 2198 3840 
Q 2175 3953 2125 3993 
Q 2075 4034 2000 4034 
Q 1919 4034 1784 3984 
L 1744 4094 
L 2597 4444 
L 2738 4444 
L 2738 1134 
Q 2738 631 2761 520 
Q 2784 409 2836 365 
Q 2888 322 2956 322 
Q 3041 322 3181 375 
L 3216 266 
L 2366 -88 
L 2222 -88 
L 2222 322 
z
M 2222 541 
L 2222 2016 
Q 2203 2228 2109 2403 
Q 2016 2578 1861 2667 
Q 1706 2756 1559 2756 
Q 1284 2756 1069 2509 
Q 784 2184 784 1559 
Q 784 928 1059 592 
Q 1334 256 1672 256 
Q 1956 256 2222 541 
z
" transform="scale(0.015625)"/>
       <path id="TimesNewRomanPSMT-63" d="M 2631 1088 
Q 2516 522 2178 217 
Q 1841 -88 1431 -88 
Q 944 -88 581 321 
Q 219 731 219 1428 
Q 219 2103 620 2525 
Q 1022 2947 1584 2947 
Q 2006 2947 2278 2723 
Q 2550 2500 2550 2259 
Q 2550 2141 2473 2067 
Q 2397 1994 2259 1994 
Q 2075 1994 1981 2113 
Q 1928 2178 1911 2362 
Q 1894 2547 1784 2644 
Q 1675 2738 1481 2738 
Q 1169 2738 978 2506 
Q 725 2200 725 1697 
Q 725 1184 976 792 
Q 1228 400 1656 400 
Q 1963 400 2206 609 
Q 2378 753 2541 1131 
L 2631 1088 
z
" transform="scale(0.015625)"/>
       <path id="TimesNewRomanPSMT-6f" d="M 1600 2947 
Q 2250 2947 2644 2453 
Q 2978 2031 2978 1484 
Q 2978 1100 2793 706 
Q 2609 313 2286 112 
Q 1963 -88 1566 -88 
Q 919 -88 538 428 
Q 216 863 216 1403 
Q 216 1797 411 2186 
Q 606 2575 925 2761 
Q 1244 2947 1600 2947 
z
M 1503 2744 
Q 1338 2744 1170 2645 
Q 1003 2547 900 2300 
Q 797 2053 797 1666 
Q 797 1041 1045 587 
Q 1294 134 1700 134 
Q 2003 134 2200 384 
Q 2397 634 2397 1244 
Q 2397 2006 2069 2444 
Q 1847 2744 1503 2744 
z
" transform="scale(0.015625)"/>
       <path id="TimesNewRomanPSMT-6e" d="M 1034 2341 
Q 1538 2947 1994 2947 
Q 2228 2947 2397 2830 
Q 2566 2713 2666 2444 
Q 2734 2256 2734 1869 
L 2734 647 
Q 2734 375 2778 278 
Q 2813 200 2889 156 
Q 2966 113 3172 113 
L 3172 0 
L 1756 0 
L 1756 113 
L 1816 113 
Q 2016 113 2095 173 
Q 2175 234 2206 353 
Q 2219 400 2219 647 
L 2219 1819 
Q 2219 2209 2117 2386 
Q 2016 2563 1775 2563 
Q 1403 2563 1034 2156 
L 1034 647 
Q 1034 356 1069 288 
Q 1113 197 1189 155 
Q 1266 113 1500 113 
L 1500 0 
L 84 0 
L 84 113 
L 147 113 
Q 366 113 442 223 
Q 519 334 519 647 
L 519 1709 
Q 519 2225 495 2337 
Q 472 2450 423 2490 
Q 375 2531 294 2531 
Q 206 2531 84 2484 
L 38 2597 
L 900 2947 
L 1034 2947 
L 1034 2341 
z
" transform="scale(0.015625)"/>
      </defs>
      <use xlink:href="#TimesNewRomanPSMT-28"/>
      <use xlink:href="#TimesNewRomanPSMT-42" x="33.300781"/>
      <use xlink:href="#TimesNewRomanPSMT-29" x="100"/>
      <use xlink:href="#TimesNewRomanPSMT-20" x="133.300781"/>
      <use xlink:href="#TimesNewRomanPSMT-74" x="158.300781"/>
      <use xlink:href="#TimesNewRomanPSMT-68" x="186.083984"/>
      <use xlink:href="#TimesNewRomanPSMT-72" x="236.083984"/>
      <use xlink:href="#TimesNewRomanPSMT-65" x="269.384766"/>
      <use xlink:href="#TimesNewRomanPSMT-61" x="313.769531"/>
      <use xlink:href="#TimesNewRomanPSMT-64" x="358.154297"/>
      <use xlink:href="#TimesNewRomanPSMT-20" x="408.154297"/>
      <use xlink:href="#TimesNewRomanPSMT-63" x="433.154297"/>
      <use xlink:href="#TimesNewRomanPSMT-6f" x="477.539062"/>
      <use xlink:href="#TimesNewRomanPSMT-75" x="527.539062"/>
      <use xlink:href="#TimesNewRomanPSMT-6e" x="577.539062"/>
      <use xlink:href="#TimesNewRomanPSMT-74" x="627.539062"/>
     </g>
    </g>
   </g>
   <g id="matplotlib.axis_4">
    <g id="ytick_5">
     <g id="text_26">
      <!-- $2^{14}$ -->
      <g style="fill: #262626" transform="translate(504.432 276.285225) scale(0.3 -0.3)">
       <use xlink:href="#TimesNewRomanPSMT-32" transform="translate(0 0.001563)"/>
       <use xlink:href="#TimesNewRomanPSMT-31" transform="translate(51.742344 69.695312) scale(0.7)"/>
       <use xlink:href="#TimesNewRomanPSMT-34" transform="translate(86.742344 69.695312) scale(0.7)"/>
      </g>
     </g>
    </g>
    <g id="ytick_6">
     <g id="text_27">
      <!-- $2^{16}$ -->
      <g style="fill: #262626" transform="translate(504.432 209.184668) scale(0.3 -0.3)">
       <use xlink:href="#TimesNewRomanPSMT-32" transform="translate(0 0.001563)"/>
       <use xlink:href="#TimesNewRomanPSMT-31" transform="translate(51.742344 69.695312) scale(0.7)"/>
       <use xlink:href="#TimesNewRomanPSMT-36" transform="translate(86.742344 69.695312) scale(0.7)"/>
      </g>
     </g>
    </g>
    <g id="ytick_7">
     <g id="text_28">
      <!-- $2^{18}$ -->
      <g style="fill: #262626" transform="translate(504.432 142.084112) scale(0.3 -0.3)">
       <use xlink:href="#TimesNewRomanPSMT-32" transform="translate(0 0.001563)"/>
       <use xlink:href="#TimesNewRomanPSMT-31" transform="translate(51.742344 69.695312) scale(0.7)"/>
       <use xlink:href="#TimesNewRomanPSMT-38" transform="translate(86.742344 69.695312) scale(0.7)"/>
      </g>
     </g>
    </g>
    <g id="ytick_8">
     <g id="text_29">
      <!-- $2^{20}$ -->
      <g style="fill: #262626" transform="translate(504.432 74.983555) scale(0.3 -0.3)">
       <use xlink:href="#TimesNewRomanPSMT-32" transform="translate(0 0.001563)"/>
       <use xlink:href="#TimesNewRomanPSMT-32" transform="translate(51.742344 69.695312) scale(0.7)"/>
       <use xlink:href="#TimesNewRomanPSMT-30" transform="translate(86.742344 69.695312) scale(0.7)"/>
      </g>
     </g>
    </g>
    <g id="text_30">
     <!-- throughput (ops/s) -->
     <g style="fill: #262626" transform="translate(494.282234 266.562586) rotate(-90) scale(0.285 -0.285)">
      <defs>
       <path id="TimesNewRomanPS-BoldMT-72" d="M 1428 2922 
L 1428 2259 
Q 1719 2713 1937 2861 
Q 2156 3009 2359 3009 
Q 2534 3009 2639 2901 
Q 2744 2794 2744 2597 
Q 2744 2388 2642 2272 
Q 2541 2156 2397 2156 
Q 2231 2156 2109 2262 
Q 1988 2369 1966 2381 
Q 1934 2400 1894 2400 
Q 1803 2400 1722 2331 
Q 1594 2225 1528 2028 
Q 1428 1725 1428 1359 
L 1428 688 
L 1431 513 
Q 1431 334 1453 284 
Q 1491 200 1564 161 
Q 1638 122 1813 113 
L 1813 0 
L 234 0 
L 234 113 
Q 425 128 492 217 
Q 559 306 559 688 
L 559 2303 
Q 559 2553 534 2622 
Q 503 2709 443 2750 
Q 384 2791 234 2806 
L 234 2922 
L 1428 2922 
z
" transform="scale(0.015625)"/>
       <path id="TimesNewRomanPS-BoldMT-6f" d="M 1594 3009 
Q 1975 3009 2303 2812 
Q 2631 2616 2801 2253 
Q 2972 1891 2972 1459 
Q 2972 838 2656 419 
Q 2275 -88 1603 -88 
Q 944 -88 587 375 
Q 231 838 231 1447 
Q 231 2075 595 2542 
Q 959 3009 1594 3009 
z
M 1606 2788 
Q 1447 2788 1333 2667 
Q 1219 2547 1183 2192 
Q 1147 1838 1147 1206 
Q 1147 872 1191 581 
Q 1225 359 1337 243 
Q 1450 128 1594 128 
Q 1734 128 1828 206 
Q 1950 313 1991 503 
Q 2053 800 2053 1703 
Q 2053 2234 1993 2432 
Q 1934 2631 1819 2722 
Q 1738 2788 1606 2788 
z
" transform="scale(0.015625)"/>
       <path id="TimesNewRomanPS-BoldMT-67" d="M 2091 2888 
L 3075 2888 
L 3075 2544 
L 2516 2544 
Q 2669 2391 2728 2266 
Q 2803 2097 2803 1913 
Q 2803 1600 2629 1370 
Q 2456 1141 2157 1011 
Q 1859 881 1628 881 
Q 1609 881 1253 897 
Q 1113 897 1017 805 
Q 922 713 922 584 
Q 922 472 1008 400 
Q 1094 328 1288 328 
L 1828 334 
Q 2484 334 2731 191 
Q 3084 -9 3084 -425 
Q 3084 -691 2921 -908 
Q 2759 -1125 2494 -1228 
Q 2091 -1381 1566 -1381 
Q 1172 -1381 847 -1304 
Q 522 -1228 381 -1092 
Q 241 -956 241 -806 
Q 241 -663 348 -548 
Q 456 -434 750 -356 
Q 344 -156 344 200 
Q 344 416 509 619 
Q 675 822 1034 972 
Q 616 1125 428 1375 
Q 241 1625 241 1953 
Q 241 2381 591 2695 
Q 941 3009 1491 3009 
Q 1781 3009 2091 2888 
z
M 1550 2816 
Q 1369 2816 1244 2633 
Q 1119 2450 1119 1875 
Q 1119 1409 1242 1236 
Q 1366 1063 1534 1063 
Q 1722 1063 1847 1234 
Q 1972 1406 1972 1903 
Q 1972 2463 1831 2666 
Q 1731 2816 1550 2816 
z
M 1366 -431 
Q 1047 -431 944 -484 
Q 766 -581 766 -747 
Q 766 -906 950 -1036 
Q 1134 -1166 1644 -1166 
Q 2078 -1166 2326 -1050 
Q 2575 -934 2575 -725 
Q 2575 -647 2528 -594 
Q 2444 -500 2273 -465 
Q 2103 -431 1366 -431 
z
" transform="scale(0.015625)"/>
       <path id="TimesNewRomanPS-BoldMT-28" d="M 2056 4334 
L 2056 4191 
Q 1731 3978 1578 3775 
Q 1366 3494 1247 3053 
Q 1097 2506 1097 1525 
Q 1097 600 1233 87 
Q 1369 -425 1603 -741 
Q 1766 -959 2056 -1125 
L 2056 -1281 
Q 1303 -1028 779 -248 
Q 256 531 256 1544 
Q 256 2544 778 3314 
Q 1300 4084 2056 4334 
z
" transform="scale(0.015625)"/>
       <path id="TimesNewRomanPS-BoldMT-2f" d="M 1797 4334 
L 406 -97 
L 6 -97 
L 1403 4334 
L 1797 4334 
z
" transform="scale(0.015625)"/>
       <path id="TimesNewRomanPS-BoldMT-29" d="M 78 -1281 
L 78 -1138 
Q 403 -922 556 -719 
Q 766 -438 888 0 
Q 1038 550 1038 1531 
Q 1038 2456 902 2967 
Q 766 3478 531 3794 
Q 369 4013 78 4178 
L 78 4334 
Q 831 4081 1354 3301 
Q 1878 2522 1878 1509 
Q 1878 513 1354 -257 
Q 831 -1028 78 -1281 
z
" transform="scale(0.015625)"/>
      </defs>
      <use xlink:href="#TimesNewRomanPS-BoldMT-74"/>
      <use xlink:href="#TimesNewRomanPS-BoldMT-68" x="33.300781"/>
      <use xlink:href="#TimesNewRomanPS-BoldMT-72" x="88.916016"/>
      <use xlink:href="#TimesNewRomanPS-BoldMT-6f" x="131.550781"/>
      <use xlink:href="#TimesNewRomanPS-BoldMT-75" x="181.550781"/>
      <use xlink:href="#TimesNewRomanPS-BoldMT-67" x="237.166016"/>
      <use xlink:href="#TimesNewRomanPS-BoldMT-68" x="287.166016"/>
      <use xlink:href="#TimesNewRomanPS-BoldMT-70" x="342.78125"/>
      <use xlink:href="#TimesNewRomanPS-BoldMT-75" x="398.396484"/>
      <use xlink:href="#TimesNewRomanPS-BoldMT-74" x="454.011719"/>
      <use xlink:href="#TimesNewRomanPS-BoldMT-20" x="487.3125"/>
      <use xlink:href="#TimesNewRomanPS-BoldMT-28" x="512.3125"/>
      <use xlink:href="#TimesNewRomanPS-BoldMT-6f" x="545.613281"/>
      <use xlink:href="#TimesNewRomanPS-BoldMT-70" x="595.613281"/>
      <use xlink:href="#TimesNewRomanPS-BoldMT-73" x="651.228516"/>
      <use xlink:href="#TimesNewRomanPS-BoldMT-2f" x="690.144531"/>
      <use xlink:href="#TimesNewRomanPS-BoldMT-73" x="717.927734"/>
      <use xlink:href="#TimesNewRomanPS-BoldMT-29" x="756.84375"/>
     </g>
    </g>
   </g>
   <g id="line2d_5">
    <path d="M 562.369208 186.289953 
L 619.798138 151.625635 
L 677.227069 118.274308 
L 734.656 85.711093 
L 792.084931 57.432307 
L 849.513862 44.761091 
L 906.942792 51.669445 
" clip-path="url(#p353cce33ac)" style="fill: none; stroke: #00000b; stroke-width: 1.5; stroke-linecap: round"/>
    <defs>
     <path id="m4329b137fd" d="M -2.833333 8.5 
L 2.833333 8.5 
L 2.833333 2.833333 
L 8.5 2.833333 
L 8.5 -2.833333 
L 2.833333 -2.833333 
L 2.833333 -8.5 
L -2.833333 -8.5 
L -2.833333 -2.833333 
L -8.5 -2.833333 
L -8.5 2.833333 
L -2.833333 2.833333 
z
" style="stroke: #00000b; stroke-linejoin: miter"/>
    </defs>
    <g clip-path="url(#p353cce33ac)">
     <use xlink:href="#m4329b137fd" x="562.369208" y="186.289953" style="fill-opacity: 0; stroke: #00000b; stroke-linejoin: miter"/>
     <use xlink:href="#m4329b137fd" x="619.798138" y="151.625635" style="fill-opacity: 0; stroke: #00000b; stroke-linejoin: miter"/>
     <use xlink:href="#m4329b137fd" x="677.227069" y="118.274308" style="fill-opacity: 0; stroke: #00000b; stroke-linejoin: miter"/>
     <use xlink:href="#m4329b137fd" x="734.656" y="85.711093" style="fill-opacity: 0; stroke: #00000b; stroke-linejoin: miter"/>
     <use xlink:href="#m4329b137fd" x="792.084931" y="57.432307" style="fill-opacity: 0; stroke: #00000b; stroke-linejoin: miter"/>
     <use xlink:href="#m4329b137fd" x="849.513862" y="44.761091" style="fill-opacity: 0; stroke: #00000b; stroke-linejoin: miter"/>
     <use xlink:href="#m4329b137fd" x="906.942792" y="51.669445" style="fill-opacity: 0; stroke: #00000b; stroke-linejoin: miter"/>
    </g>
   </g>
   <g id="line2d_6">
    <path d="M 562.369208 253.886208 
L 619.798138 220.121052 
L 677.227069 186.951643 
L 734.656 151.313631 
L 792.084931 119.716152 
L 849.513862 104.957951 
L 906.942792 93.5891 
" clip-path="url(#p353cce33ac)" style="fill: none; stroke: #006400; stroke-width: 1.5; stroke-linecap: round"/>
    <defs>
     <path id="m47660cb6f0" d="M 0 -8.5 
L -7.361216 -4.25 
L -7.361216 4.25 
L -0 8.5 
L 7.361216 4.25 
L 7.361216 -4.25 
z
" style="stroke: #006400; stroke-linejoin: miter"/>
    </defs>
    <g clip-path="url(#p353cce33ac)">
     <use xlink:href="#m47660cb6f0" x="562.369208" y="253.886208" style="fill-opacity: 0; stroke: #006400; stroke-linejoin: miter"/>
     <use xlink:href="#m47660cb6f0" x="619.798138" y="220.121052" style="fill-opacity: 0; stroke: #006400; stroke-linejoin: miter"/>
     <use xlink:href="#m47660cb6f0" x="677.227069" y="186.951643" style="fill-opacity: 0; stroke: #006400; stroke-linejoin: miter"/>
     <use xlink:href="#m47660cb6f0" x="734.656" y="151.313631" style="fill-opacity: 0; stroke: #006400; stroke-linejoin: miter"/>
     <use xlink:href="#m47660cb6f0" x="792.084931" y="119.716152" style="fill-opacity: 0; stroke: #006400; stroke-linejoin: miter"/>
     <use xlink:href="#m47660cb6f0" x="849.513862" y="104.957951" style="fill-opacity: 0; stroke: #006400; stroke-linejoin: miter"/>
     <use xlink:href="#m47660cb6f0" x="906.942792" y="93.5891" style="fill-opacity: 0; stroke: #006400; stroke-linejoin: miter"/>
    </g>
   </g>
   <g id="line2d_7">
    <path d="M 562.369208 263.182909 
L 619.798138 232.325611 
L 677.227069 202.370305 
L 734.656 170.013688 
L 792.084931 138.91609 
L 849.513862 120.448265 
L 906.942792 107.380908 
" clip-path="url(#p353cce33ac)" style="fill: none; stroke: #00008b; stroke-width: 1.5; stroke-linecap: round"/>
    <defs>
     <path id="m1a02560cf9" d="M 0 -8.5 
L -8.5 8.5 
L 8.5 8.5 
z
" style="stroke: #00008b; stroke-linejoin: miter"/>
    </defs>
    <g clip-path="url(#p353cce33ac)">
     <use xlink:href="#m1a02560cf9" x="562.369208" y="263.182909" style="fill-opacity: 0; stroke: #00008b; stroke-linejoin: miter"/>
     <use xlink:href="#m1a02560cf9" x="619.798138" y="232.325611" style="fill-opacity: 0; stroke: #00008b; stroke-linejoin: miter"/>
     <use xlink:href="#m1a02560cf9" x="677.227069" y="202.370305" style="fill-opacity: 0; stroke: #00008b; stroke-linejoin: miter"/>
     <use xlink:href="#m1a02560cf9" x="734.656" y="170.013688" style="fill-opacity: 0; stroke: #00008b; stroke-linejoin: miter"/>
     <use xlink:href="#m1a02560cf9" x="792.084931" y="138.91609" style="fill-opacity: 0; stroke: #00008b; stroke-linejoin: miter"/>
     <use xlink:href="#m1a02560cf9" x="849.513862" y="120.448265" style="fill-opacity: 0; stroke: #00008b; stroke-linejoin: miter"/>
     <use xlink:href="#m1a02560cf9" x="906.942792" y="107.380908" style="fill-opacity: 0; stroke: #00008b; stroke-linejoin: miter"/>
    </g>
   </g>
   <g id="line2d_8">
    <path d="M 562.369208 253.571578 
L 619.798138 219.831196 
L 677.227069 186.842463 
L 734.656 151.233168 
L 792.084931 119.675341 
L 849.513862 104.972137 
L 906.942792 93.706679 
" clip-path="url(#p353cce33ac)" style="fill: none; stroke: #8b0000; stroke-width: 1.5; stroke-linecap: round"/>
    <defs>
     <path id="m69e77c7efc" d="M -8.5 8.5 
L 8.5 -8.5 
M -8.5 -8.5 
L 8.5 8.5 
" style="stroke: #8b0000"/>
    </defs>
    <g clip-path="url(#p353cce33ac)">
     <use xlink:href="#m69e77c7efc" x="562.369208" y="253.571578" style="fill-opacity: 0; stroke: #8b0000"/>
     <use xlink:href="#m69e77c7efc" x="619.798138" y="219.831196" style="fill-opacity: 0; stroke: #8b0000"/>
     <use xlink:href="#m69e77c7efc" x="677.227069" y="186.842463" style="fill-opacity: 0; stroke: #8b0000"/>
     <use xlink:href="#m69e77c7efc" x="734.656" y="151.233168" style="fill-opacity: 0; stroke: #8b0000"/>
     <use xlink:href="#m69e77c7efc" x="792.084931" y="119.675341" style="fill-opacity: 0; stroke: #8b0000"/>
     <use xlink:href="#m69e77c7efc" x="849.513862" y="104.972137" style="fill-opacity: 0; stroke: #8b0000"/>
     <use xlink:href="#m69e77c7efc" x="906.942792" y="93.706679" style="fill-opacity: 0; stroke: #8b0000"/>
    </g>
   </g>
   <g id="patch_6">
    <path d="M 552.032 274.104 
L 552.032 33.84 
" style="fill: none; stroke: #cccccc; stroke-width: 1.25; stroke-linejoin: miter; stroke-linecap: square"/>
   </g>
   <g id="patch_7">
    <path d="M 552.032 274.104 
L 917.28 274.104 
" style="fill: none; stroke: #cccccc; stroke-width: 1.25; stroke-linejoin: miter; stroke-linecap: square"/>
   </g>
   <g id="legend_2">
    <g id="line2d_9">
     <path d="M 554.81464 20.35692 
L 586.31464 20.35692 
L 617.81464 20.35692 
" style="fill: none; stroke: #00000b; stroke-width: 1.5; stroke-linecap: round"/>
     <g>
      <use xlink:href="#m4329b137fd" x="586.31464" y="20.35692" style="fill-opacity: 0; stroke: #00000b; stroke-linejoin: miter"/>
     </g>
    </g>
    <g id="text_31">
     <!-- Sphinx-4 Inserts -->
     <g style="fill: #262626" transform="translate(627.26464 31.38192) scale(0.315 -0.315)">
      <defs>
       <path id="TimesNewRomanPSMT-53" d="M 2934 4334 
L 2934 2869 
L 2819 2869 
Q 2763 3291 2617 3541 
Q 2472 3791 2203 3937 
Q 1934 4084 1647 4084 
Q 1322 4084 1109 3886 
Q 897 3688 897 3434 
Q 897 3241 1031 3081 
Q 1225 2847 1953 2456 
Q 2547 2138 2764 1967 
Q 2981 1797 3098 1565 
Q 3216 1334 3216 1081 
Q 3216 600 2842 251 
Q 2469 -97 1881 -97 
Q 1697 -97 1534 -69 
Q 1438 -53 1133 45 
Q 828 144 747 144 
Q 669 144 623 97 
Q 578 50 556 -97 
L 441 -97 
L 441 1356 
L 556 1356 
Q 638 900 775 673 
Q 913 447 1195 297 
Q 1478 147 1816 147 
Q 2206 147 2432 353 
Q 2659 559 2659 841 
Q 2659 997 2573 1156 
Q 2488 1316 2306 1453 
Q 2184 1547 1640 1851 
Q 1097 2156 867 2337 
Q 638 2519 519 2737 
Q 400 2956 400 3219 
Q 400 3675 750 4004 
Q 1100 4334 1641 4334 
Q 1978 4334 2356 4169 
Q 2531 4091 2603 4091 
Q 2684 4091 2736 4139 
Q 2788 4188 2819 4334 
L 2934 4334 
z
" transform="scale(0.015625)"/>
       <path id="TimesNewRomanPSMT-70" d="M -6 2578 
L 875 2934 
L 994 2934 
L 994 2266 
Q 1216 2644 1439 2795 
Q 1663 2947 1909 2947 
Q 2341 2947 2628 2609 
Q 2981 2197 2981 1534 
Q 2981 794 2556 309 
Q 2206 -88 1675 -88 
Q 1444 -88 1275 -22 
Q 1150 25 994 166 
L 994 -706 
Q 994 -1000 1030 -1079 
Q 1066 -1159 1155 -1206 
Q 1244 -1253 1478 -1253 
L 1478 -1369 
L -22 -1369 
L -22 -1253 
L 56 -1253 
Q 228 -1256 350 -1188 
Q 409 -1153 442 -1076 
Q 475 -1000 475 -688 
L 475 2019 
Q 475 2297 450 2372 
Q 425 2447 370 2484 
Q 316 2522 222 2522 
Q 147 2522 31 2478 
L -6 2578 
z
M 994 2081 
L 994 1013 
Q 994 666 1022 556 
Q 1066 375 1236 237 
Q 1406 100 1666 100 
Q 1978 100 2172 344 
Q 2425 663 2425 1241 
Q 2425 1897 2138 2250 
Q 1938 2494 1663 2494 
Q 1513 2494 1366 2419 
Q 1253 2363 994 2081 
z
" transform="scale(0.015625)"/>
       <path id="TimesNewRomanPSMT-78" d="M 84 2863 
L 1431 2863 
L 1431 2747 
Q 1303 2747 1251 2703 
Q 1200 2659 1200 2588 
Q 1200 2513 1309 2356 
Q 1344 2306 1413 2200 
L 1616 1875 
L 1850 2200 
Q 2075 2509 2075 2591 
Q 2075 2656 2022 2701 
Q 1969 2747 1850 2747 
L 1850 2863 
L 2819 2863 
L 2819 2747 
Q 2666 2738 2553 2663 
Q 2400 2556 2134 2200 
L 1744 1678 
L 2456 653 
Q 2719 275 2831 198 
Q 2944 122 3122 113 
L 3122 0 
L 1772 0 
L 1772 113 
Q 1913 113 1991 175 
Q 2050 219 2050 291 
Q 2050 363 1850 653 
L 1431 1266 
L 972 653 
Q 759 369 759 316 
Q 759 241 829 180 
Q 900 119 1041 113 
L 1041 0 
L 106 0 
L 106 113 
Q 219 128 303 191 
Q 422 281 703 653 
L 1303 1450 
L 759 2238 
Q 528 2575 401 2661 
Q 275 2747 84 2747 
L 84 2863 
z
" transform="scale(0.015625)"/>
       <path id="TimesNewRomanPSMT-2d" d="M 259 1672 
L 1875 1672 
L 1875 1200 
L 259 1200 
L 259 1672 
z
" transform="scale(0.015625)"/>
       <path id="TimesNewRomanPSMT-49" d="M 1975 116 
L 1975 0 
L 159 0 
L 159 116 
L 309 116 
Q 572 116 691 269 
Q 766 369 766 750 
L 766 3488 
Q 766 3809 725 3913 
Q 694 3991 597 4047 
Q 459 4122 309 4122 
L 159 4122 
L 159 4238 
L 1975 4238 
L 1975 4122 
L 1822 4122 
Q 1563 4122 1444 3969 
Q 1366 3869 1366 3488 
L 1366 750 
Q 1366 428 1406 325 
Q 1438 247 1538 191 
Q 1672 116 1822 116 
L 1975 116 
z
" transform="scale(0.015625)"/>
      </defs>
      <use xlink:href="#TimesNewRomanPSMT-53"/>
      <use xlink:href="#TimesNewRomanPSMT-70" x="55.615234"/>
      <use xlink:href="#TimesNewRomanPSMT-68" x="105.615234"/>
      <use xlink:href="#TimesNewRomanPSMT-69" x="155.615234"/>
      <use xlink:href="#TimesNewRomanPSMT-6e" x="183.398438"/>
      <use xlink:href="#TimesNewRomanPSMT-78" x="233.398438"/>
      <use xlink:href="#TimesNewRomanPSMT-2d" x="283.398438"/>
      <use xlink:href="#TimesNewRomanPSMT-34" x="316.699219"/>
      <use xlink:href="#TimesNewRomanPSMT-20" x="366.699219"/>
      <use xlink:href="#TimesNewRomanPSMT-49" x="391.699219"/>
      <use xlink:href="#TimesNewRomanPSMT-6e" x="425"/>
      <use xlink:href="#TimesNewRomanPSMT-73" x="475"/>
      <use xlink:href="#TimesNewRomanPSMT-65" x="513.916016"/>
      <use xlink:href="#TimesNewRomanPSMT-72" x="558.300781"/>
      <use xlink:href="#TimesNewRomanPSMT-74" x="591.601562"/>
      <use xlink:href="#TimesNewRomanPSMT-73" x="619.384766"/>
     </g>
    </g>
    <g id="line2d_10">
     <path d="M 554.81464 52.294967 
L 586.31464 52.294967 
L 617.81464 52.294967 
" style="fill: none; stroke: #006400; stroke-width: 1.5; stroke-linecap: round"/>
     <g>
      <use xlink:href="#m47660cb6f0" x="586.31464" y="52.294967" style="fill-opacity: 0; stroke: #006400; stroke-linejoin: miter"/>
     </g>
    </g>
    <g id="text_32">
     <!-- Queries -->
     <g style="fill: #262626" transform="translate(627.26464 63.319967) scale(0.315 -0.315)">
      <defs>
       <path id="TimesNewRomanPSMT-51" d="M 2819 -47 
Q 3138 -597 3508 -856 
Q 3878 -1116 4350 -1153 
L 4350 -1253 
Q 3919 -1238 3428 -1080 
Q 2938 -922 2498 -642 
Q 2059 -363 1741 -47 
Q 1291 134 1028 338 
Q 647 641 436 1083 
Q 225 1525 225 2128 
Q 225 3078 840 3706 
Q 1456 4334 2331 4334 
Q 3163 4334 3770 3704 
Q 4378 3075 4378 2116 
Q 4378 1338 3945 750 
Q 3513 163 2819 -47 
z
M 2294 4094 
Q 1725 4094 1378 3688 
Q 941 3178 941 2128 
Q 941 1100 1384 544 
Q 1728 116 2294 116 
Q 2881 116 3241 544 
Q 3663 1050 3663 2038 
Q 3663 2797 3431 3316 
Q 3253 3716 2958 3905 
Q 2663 4094 2294 4094 
z
" transform="scale(0.015625)"/>
      </defs>
      <use xlink:href="#TimesNewRomanPSMT-51"/>
      <use xlink:href="#TimesNewRomanPSMT-75" x="72.216797"/>
      <use xlink:href="#TimesNewRomanPSMT-65" x="122.216797"/>
      <use xlink:href="#TimesNewRomanPSMT-72" x="166.601562"/>
      <use xlink:href="#TimesNewRomanPSMT-69" x="199.902344"/>
      <use xlink:href="#TimesNewRomanPSMT-65" x="227.685547"/>
      <use xlink:href="#TimesNewRomanPSMT-73" x="272.070312"/>
     </g>
    </g>
   </g>
   <g id="legend_3">
    <g id="line2d_11">
     <path d="M 660.117865 222.481946 
L 691.617865 222.481946 
L 723.117865 222.481946 
" style="fill: none; stroke: #8b0000; stroke-width: 1.5; stroke-linecap: round"/>
     <g>
      <use xlink:href="#m69e77c7efc" x="691.617865" y="222.481946" style="fill-opacity: 0; stroke: #8b0000"/>
     </g>
    </g>
    <g id="text_33">
     <!-- SSD rand. reads -->
     <g style="fill: #262626" transform="translate(732.567865 233.506946) scale(0.315 -0.315)">
      <defs>
       <path id="TimesNewRomanPSMT-44" d="M 109 0 
L 109 116 
L 269 116 
Q 538 116 650 288 
Q 719 391 719 750 
L 719 3488 
Q 719 3884 631 3984 
Q 509 4122 269 4122 
L 109 4122 
L 109 4238 
L 1834 4238 
Q 2784 4238 3279 4022 
Q 3775 3806 4076 3303 
Q 4378 2800 4378 2141 
Q 4378 1256 3841 663 
Q 3238 0 2003 0 
L 109 0 
z
M 1319 306 
Q 1716 219 1984 219 
Q 2709 219 3187 728 
Q 3666 1238 3666 2109 
Q 3666 2988 3187 3494 
Q 2709 4000 1959 4000 
Q 1678 4000 1319 3909 
L 1319 306 
z
" transform="scale(0.015625)"/>
      </defs>
      <use xlink:href="#TimesNewRomanPSMT-53"/>
      <use xlink:href="#TimesNewRomanPSMT-53" x="55.615234"/>
      <use xlink:href="#TimesNewRomanPSMT-44" x="111.230469"/>
      <use xlink:href="#TimesNewRomanPSMT-20" x="183.447266"/>
      <use xlink:href="#TimesNewRomanPSMT-72" x="208.447266"/>
      <use xlink:href="#TimesNewRomanPSMT-61" x="241.748047"/>
      <use xlink:href="#TimesNewRomanPSMT-6e" x="286.132812"/>
      <use xlink:href="#TimesNewRomanPSMT-64" x="336.132812"/>
      <use xlink:href="#TimesNewRomanPSMT-2e" x="386.132812"/>
      <use xlink:href="#TimesNewRomanPSMT-20" x="411.132812"/>
      <use xlink:href="#TimesNewRomanPSMT-72" x="436.132812"/>
      <use xlink:href="#TimesNewRomanPSMT-65" x="469.433594"/>
      <use xlink:href="#TimesNewRomanPSMT-61" x="513.818359"/>
      <use xlink:href="#TimesNewRomanPSMT-64" x="558.203125"/>
      <use xlink:href="#TimesNewRomanPSMT-73" x="608.203125"/>
     </g>
    </g>
    <g id="line2d_12">
     <path d="M 660.117865 254.419993 
L 691.617865 254.419993 
L 723.117865 254.419993 
" style="fill: none; stroke: #00008b; stroke-width: 1.5; stroke-linecap: round"/>
     <g>
      <use xlink:href="#m1a02560cf9" x="691.617865" y="254.419993" style="fill-opacity: 0; stroke: #00008b; stroke-linejoin: miter"/>
     </g>
    </g>
    <g id="text_34">
     <!-- Sphinx Inserts -->
     <g style="fill: #262626" transform="translate(732.567865 265.444993) scale(0.315 -0.315)">
      <use xlink:href="#TimesNewRomanPSMT-53"/>
      <use xlink:href="#TimesNewRomanPSMT-70" x="55.615234"/>
      <use xlink:href="#TimesNewRomanPSMT-68" x="105.615234"/>
      <use xlink:href="#TimesNewRomanPSMT-69" x="155.615234"/>
      <use xlink:href="#TimesNewRomanPSMT-6e" x="183.398438"/>
      <use xlink:href="#TimesNewRomanPSMT-78" x="233.398438"/>
      <use xlink:href="#TimesNewRomanPSMT-20" x="283.398438"/>
      <use xlink:href="#TimesNewRomanPSMT-49" x="308.398438"/>
      <use xlink:href="#TimesNewRomanPSMT-6e" x="341.699219"/>
      <use xlink:href="#TimesNewRomanPSMT-73" x="391.699219"/>
      <use xlink:href="#TimesNewRomanPSMT-65" x="430.615234"/>
      <use xlink:href="#TimesNewRomanPSMT-72" x="475"/>
      <use xlink:href="#TimesNewRomanPSMT-74" x="508.300781"/>
      <use xlink:href="#TimesNewRomanPSMT-73" x="536.083984"/>
     </g>
    </g>
   </g>
  </g>
 </g>
 <defs>
  <clipPath id="pdc3603fb8c">
   <rect x="95.472" y="33.84" width="365.248" height="240.264"/>
  </clipPath>
  <clipPath id="p353cce33ac">
   <rect x="552.032" y="33.84" width="365.248" height="240.264"/>
  </clipPath>
 </defs>
</svg>
