<?xml version="1.0" encoding="utf-8" standalone="no"?>
<!DOCTYPE svg PUBLIC "-//W3C//DTD SVG 1.1//EN"
  "http://www.w3.org/Graphics/SVG/1.1/DTD/svg11.dtd">
<svg xmlns:xlink="http://www.w3.org/1999/xlink" width="864pt" height="360pt" viewBox="0 0 864 360" xmlns="http://www.w3.org/2000/svg" version="1.1">
 <metadata>
  <rdf:RDF xmlns:dc="http://purl.org/dc/elements/1.1/" xmlns:cc="http://creativecommons.org/ns#" xmlns:rdf="http://www.w3.org/1999/02/22-rdf-syntax-ns#">
   <cc:Work>
    <dc:type rdf:resource="http://purl.org/dc/dcmitype/StillImage"/>
    <dc:date>2025-05-27T18:15:30.380160</dc:date>
    <dc:format>image/svg+xml</dc:format>
    <dc:creator>
     <cc:Agent>
      <dc:title>Matplotlib v3.7.2, https://matplotlib.org/</dc:title>
     </cc:Agent>
    </dc:creator>
   </cc:Work>
  </rdf:RDF>
 </metadata>
 <defs>
  <style type="text/css">*{stroke-linejoin: round; stroke-linecap: butt}</style>
 </defs>
 <g id="figure_1">
  <g id="patch_1">
   <path d="M 0 360 
L 864 360 
L 864 0 
L 0 0 
z
" style="fill: #ffffff"/>
  </g>
  <g id="axes_1">
   <g id="patch_2">
    <path d="M 91.47375 277.38 
L 407.209528 277.38 
L 407.209528 53.28 
L 91.47375 53.28 
z
" style="fill: #ffffff"/>
   </g>
   <g id="matplotlib.axis_1">
    <g id="xtick_1">
     <g id="text_1">
      <!-- 0 -->
      <g style="fill: #262626" transform="translate(93.636231 305.5448) scale(0.2688 -0.2688)">
       <defs>
        <path id="TimesNewRomanPSMT-30" d="M 231 2094 
Q 231 2819 450 3342 
Q 669 3866 1031 4122 
Q 1313 4325 1613 4325 
Q 2100 4325 2488 3828 
Q 2972 3213 2972 2159 
Q 2972 1422 2759 906 
Q 2547 391 2217 158 
Q 1888 -75 1581 -75 
Q 975 -75 572 641 
Q 231 1244 231 2094 
z
M 844 2016 
Q 844 1141 1059 588 
Q 1238 122 1591 122 
Q 1759 122 1940 273 
Q 2122 425 2216 781 
Q 2359 1319 2359 2297 
Q 2359 3022 2209 3506 
Q 2097 3866 1919 4016 
Q 1791 4119 1609 4119 
Q 1397 4119 1231 3928 
Q 1006 3669 925 3112 
Q 844 2556 844 2016 
z
" transform="scale(0.015625)"/>
       </defs>
       <use xlink:href="#TimesNewRomanPSMT-30"/>
      </g>
     </g>
    </g>
    <g id="xtick_2">
     <g id="text_2">
      <!-- 50 -->
      <g style="fill: #262626" transform="translate(234.957586 305.5448) scale(0.2688 -0.2688)">
       <defs>
        <path id="TimesNewRomanPSMT-35" d="M 2778 4238 
L 2534 3706 
L 1259 3706 
L 981 3138 
Q 1809 3016 2294 2522 
Q 2709 2097 2709 1522 
Q 2709 1188 2573 903 
Q 2438 619 2231 419 
Q 2025 219 1772 97 
Q 1413 -75 1034 -75 
Q 653 -75 479 54 
Q 306 184 306 341 
Q 306 428 378 495 
Q 450 563 559 563 
Q 641 563 702 538 
Q 763 513 909 409 
Q 1144 247 1384 247 
Q 1750 247 2026 523 
Q 2303 800 2303 1197 
Q 2303 1581 2056 1914 
Q 1809 2247 1375 2428 
Q 1034 2569 447 2591 
L 1259 4238 
L 2778 4238 
z
" transform="scale(0.015625)"/>
       </defs>
       <use xlink:href="#TimesNewRomanPSMT-35"/>
       <use xlink:href="#TimesNewRomanPSMT-30" x="50"/>
      </g>
     </g>
    </g>
    <g id="xtick_3">
     <g id="text_3">
      <!-- 100 -->
      <g style="fill: #262626" transform="translate(376.278941 305.5448) scale(0.2688 -0.2688)">
       <defs>
        <path id="TimesNewRomanPSMT-31" d="M 750 3822 
L 1781 4325 
L 1884 4325 
L 1884 747 
Q 1884 391 1914 303 
Q 1944 216 2037 169 
Q 2131 122 2419 116 
L 2419 0 
L 825 0 
L 825 116 
Q 1125 122 1212 167 
Q 1300 213 1334 289 
Q 1369 366 1369 747 
L 1369 3034 
Q 1369 3497 1338 3628 
Q 1316 3728 1258 3775 
Q 1200 3822 1119 3822 
Q 1003 3822 797 3725 
L 750 3822 
z
" transform="scale(0.015625)"/>
       </defs>
       <use xlink:href="#TimesNewRomanPSMT-31"/>
       <use xlink:href="#TimesNewRomanPSMT-30" x="50"/>
       <use xlink:href="#TimesNewRomanPSMT-30" x="100"/>
      </g>
     </g>
    </g>
    <g id="text_4">
     <!-- inserted keys (%) -->
     <g style="fill: #262626" transform="translate(143.537076 336.2925) scale(0.3024 -0.3024)">
      <defs>
       <path id="TimesNewRomanPSMT-69" d="M 928 4444 
Q 1059 4444 1151 4351 
Q 1244 4259 1244 4128 
Q 1244 3997 1151 3903 
Q 1059 3809 928 3809 
Q 797 3809 703 3903 
Q 609 3997 609 4128 
Q 609 4259 701 4351 
Q 794 4444 928 4444 
z
M 1188 2947 
L 1188 647 
Q 1188 378 1227 289 
Q 1266 200 1342 156 
Q 1419 113 1622 113 
L 1622 0 
L 231 0 
L 231 113 
Q 441 113 512 153 
Q 584 194 626 287 
Q 669 381 669 647 
L 669 1750 
Q 669 2216 641 2353 
Q 619 2453 572 2492 
Q 525 2531 444 2531 
Q 356 2531 231 2484 
L 188 2597 
L 1050 2947 
L 1188 2947 
z
" transform="scale(0.015625)"/>
       <path id="TimesNewRomanPSMT-6e" d="M 1034 2341 
Q 1538 2947 1994 2947 
Q 2228 2947 2397 2830 
Q 2566 2713 2666 2444 
Q 2734 2256 2734 1869 
L 2734 647 
Q 2734 375 2778 278 
Q 2813 200 2889 156 
Q 2966 113 3172 113 
L 3172 0 
L 1756 0 
L 1756 113 
L 1816 113 
Q 2016 113 2095 173 
Q 2175 234 2206 353 
Q 2219 400 2219 647 
L 2219 1819 
Q 2219 2209 2117 2386 
Q 2016 2563 1775 2563 
Q 1403 2563 1034 2156 
L 1034 647 
Q 1034 356 1069 288 
Q 1113 197 1189 155 
Q 1266 113 1500 113 
L 1500 0 
L 84 0 
L 84 113 
L 147 113 
Q 366 113 442 223 
Q 519 334 519 647 
L 519 1709 
Q 519 2225 495 2337 
Q 472 2450 423 2490 
Q 375 2531 294 2531 
Q 206 2531 84 2484 
L 38 2597 
L 900 2947 
L 1034 2947 
L 1034 2341 
z
" transform="scale(0.015625)"/>
       <path id="TimesNewRomanPSMT-73" d="M 2050 2947 
L 2050 1972 
L 1947 1972 
Q 1828 2431 1642 2597 
Q 1456 2763 1169 2763 
Q 950 2763 815 2647 
Q 681 2531 681 2391 
Q 681 2216 781 2091 
Q 878 1963 1175 1819 
L 1631 1597 
Q 2266 1288 2266 781 
Q 2266 391 1970 151 
Q 1675 -88 1309 -88 
Q 1047 -88 709 6 
Q 606 38 541 38 
Q 469 38 428 -44 
L 325 -44 
L 325 978 
L 428 978 
Q 516 541 762 319 
Q 1009 97 1316 97 
Q 1531 97 1667 223 
Q 1803 350 1803 528 
Q 1803 744 1651 891 
Q 1500 1038 1047 1263 
Q 594 1488 453 1669 
Q 313 1847 313 2119 
Q 313 2472 555 2709 
Q 797 2947 1181 2947 
Q 1350 2947 1591 2875 
Q 1750 2828 1803 2828 
Q 1853 2828 1881 2850 
Q 1909 2872 1947 2947 
L 2050 2947 
z
" transform="scale(0.015625)"/>
       <path id="TimesNewRomanPSMT-65" d="M 681 1784 
Q 678 1147 991 784 
Q 1303 422 1725 422 
Q 2006 422 2214 576 
Q 2422 731 2563 1106 
L 2659 1044 
Q 2594 616 2278 264 
Q 1963 -88 1488 -88 
Q 972 -88 605 314 
Q 238 716 238 1394 
Q 238 2128 614 2539 
Q 991 2950 1559 2950 
Q 2041 2950 2350 2633 
Q 2659 2316 2659 1784 
L 681 1784 
z
M 681 1966 
L 2006 1966 
Q 1991 2241 1941 2353 
Q 1863 2528 1708 2628 
Q 1553 2728 1384 2728 
Q 1125 2728 920 2526 
Q 716 2325 681 1966 
z
" transform="scale(0.015625)"/>
       <path id="TimesNewRomanPSMT-72" d="M 1038 2947 
L 1038 2303 
Q 1397 2947 1775 2947 
Q 1947 2947 2059 2842 
Q 2172 2738 2172 2600 
Q 2172 2478 2090 2393 
Q 2009 2309 1897 2309 
Q 1788 2309 1652 2417 
Q 1516 2525 1450 2525 
Q 1394 2525 1328 2463 
Q 1188 2334 1038 2041 
L 1038 669 
Q 1038 431 1097 309 
Q 1138 225 1241 169 
Q 1344 113 1538 113 
L 1538 0 
L 72 0 
L 72 113 
Q 291 113 397 181 
Q 475 231 506 341 
Q 522 394 522 644 
L 522 1753 
Q 522 2253 501 2348 
Q 481 2444 426 2487 
Q 372 2531 291 2531 
Q 194 2531 72 2484 
L 41 2597 
L 906 2947 
L 1038 2947 
z
" transform="scale(0.015625)"/>
       <path id="TimesNewRomanPSMT-74" d="M 1031 3803 
L 1031 2863 
L 1700 2863 
L 1700 2644 
L 1031 2644 
L 1031 788 
Q 1031 509 1111 412 
Q 1191 316 1316 316 
Q 1419 316 1516 380 
Q 1613 444 1666 569 
L 1788 569 
Q 1678 263 1478 108 
Q 1278 -47 1066 -47 
Q 922 -47 784 33 
Q 647 113 581 261 
Q 516 409 516 719 
L 516 2644 
L 63 2644 
L 63 2747 
Q 234 2816 414 2980 
Q 594 3144 734 3369 
Q 806 3488 934 3803 
L 1031 3803 
z
" transform="scale(0.015625)"/>
       <path id="TimesNewRomanPSMT-64" d="M 2222 322 
Q 2013 103 1813 7 
Q 1613 -88 1381 -88 
Q 913 -88 563 304 
Q 213 697 213 1313 
Q 213 1928 600 2439 
Q 988 2950 1597 2950 
Q 1975 2950 2222 2709 
L 2222 3238 
Q 2222 3728 2198 3840 
Q 2175 3953 2125 3993 
Q 2075 4034 2000 4034 
Q 1919 4034 1784 3984 
L 1744 4094 
L 2597 4444 
L 2738 4444 
L 2738 1134 
Q 2738 631 2761 520 
Q 2784 409 2836 365 
Q 2888 322 2956 322 
Q 3041 322 3181 375 
L 3216 266 
L 2366 -88 
L 2222 -88 
L 2222 322 
z
M 2222 541 
L 2222 2016 
Q 2203 2228 2109 2403 
Q 2016 2578 1861 2667 
Q 1706 2756 1559 2756 
Q 1284 2756 1069 2509 
Q 784 2184 784 1559 
Q 784 928 1059 592 
Q 1334 256 1672 256 
Q 1956 256 2222 541 
z
" transform="scale(0.015625)"/>
       <path id="TimesNewRomanPSMT-20" transform="scale(0.015625)"/>
       <path id="TimesNewRomanPSMT-6b" d="M 1047 4444 
L 1047 1594 
L 1775 2259 
Q 2006 2472 2044 2528 
Q 2069 2566 2069 2603 
Q 2069 2666 2017 2711 
Q 1966 2756 1847 2763 
L 1847 2863 
L 3091 2863 
L 3091 2763 
Q 2834 2756 2664 2684 
Q 2494 2613 2291 2428 
L 1556 1750 
L 2291 822 
Q 2597 438 2703 334 
Q 2853 188 2966 144 
Q 3044 113 3238 113 
L 3238 0 
L 1847 0 
L 1847 113 
Q 1966 116 2008 148 
Q 2050 181 2050 241 
Q 2050 313 1925 472 
L 1047 1594 
L 1047 644 
Q 1047 366 1086 278 
Q 1125 191 1197 153 
Q 1269 116 1509 113 
L 1509 0 
L 53 0 
L 53 113 
Q 272 113 381 166 
Q 447 200 481 272 
Q 528 375 528 628 
L 528 3234 
Q 528 3731 506 3842 
Q 484 3953 434 3995 
Q 384 4038 303 4038 
Q 238 4038 106 3984 
L 53 4094 
L 903 4444 
L 1047 4444 
z
" transform="scale(0.015625)"/>
       <path id="TimesNewRomanPSMT-79" d="M 38 2863 
L 1372 2863 
L 1372 2747 
L 1306 2747 
Q 1166 2747 1095 2686 
Q 1025 2625 1025 2534 
Q 1025 2413 1128 2197 
L 1825 753 
L 2466 2334 
Q 2519 2463 2519 2588 
Q 2519 2644 2497 2672 
Q 2472 2706 2419 2726 
Q 2366 2747 2231 2747 
L 2231 2863 
L 3163 2863 
L 3163 2747 
Q 3047 2734 2984 2696 
Q 2922 2659 2847 2556 
Q 2819 2513 2741 2316 
L 1575 -541 
Q 1406 -956 1132 -1168 
Q 859 -1381 606 -1381 
Q 422 -1381 303 -1275 
Q 184 -1169 184 -1031 
Q 184 -900 270 -820 
Q 356 -741 506 -741 
Q 609 -741 788 -809 
Q 913 -856 944 -856 
Q 1038 -856 1148 -759 
Q 1259 -663 1372 -384 
L 1575 113 
L 547 2272 
Q 500 2369 397 2513 
Q 319 2622 269 2659 
Q 197 2709 38 2747 
L 38 2863 
z
" transform="scale(0.015625)"/>
       <path id="TimesNewRomanPSMT-28" d="M 1988 -1253 
L 1988 -1369 
Q 1516 -1131 1200 -813 
Q 750 -359 506 256 
Q 263 872 263 1534 
Q 263 2503 741 3301 
Q 1219 4100 1988 4444 
L 1988 4313 
Q 1603 4100 1356 3731 
Q 1109 3363 987 2797 
Q 866 2231 866 1616 
Q 866 947 969 400 
Q 1050 -31 1165 -292 
Q 1281 -553 1476 -793 
Q 1672 -1034 1988 -1253 
z
" transform="scale(0.015625)"/>
       <path id="TimesNewRomanPSMT-25" d="M 4350 4334 
L 1263 -175 
L 984 -175 
L 4072 4334 
L 4350 4334 
z
M 1138 4334 
Q 1559 4334 1792 3984 
Q 2025 3634 2025 3181 
Q 2025 2638 1762 2341 
Q 1500 2044 1131 2044 
Q 884 2044 678 2180 
Q 472 2316 348 2584 
Q 225 2853 225 3181 
Q 225 3509 350 3786 
Q 475 4063 692 4198 
Q 909 4334 1138 4334 
z
M 1128 4159 
Q 969 4159 845 3971 
Q 722 3784 722 3184 
Q 722 2750 791 2522 
Q 844 2350 956 2256 
Q 1022 2200 1119 2200 
Q 1269 2200 1375 2363 
Q 1531 2603 1531 3166 
Q 1531 3759 1378 4000 
Q 1278 4159 1128 4159 
z
M 4206 2103 
Q 4428 2103 4648 1962 
Q 4869 1822 4989 1553 
Q 5109 1284 5109 963 
Q 5109 409 4843 117 
Q 4578 -175 4216 -175 
Q 3988 -175 3773 -34 
Q 3559 106 3436 367 
Q 3313 628 3313 963 
Q 3313 1291 3436 1562 
Q 3559 1834 3773 1968 
Q 3988 2103 4206 2103 
z
M 4209 1938 
Q 4059 1938 3950 1769 
Q 3809 1550 3809 941 
Q 3809 381 3953 159 
Q 4059 0 4209 0 
Q 4353 0 4466 172 
Q 4616 400 4616 956 
Q 4616 1544 4466 1778 
Q 4363 1938 4209 1938 
z
" transform="scale(0.015625)"/>
       <path id="TimesNewRomanPSMT-29" d="M 144 4313 
L 144 4444 
Q 619 4209 934 3891 
Q 1381 3434 1625 2820 
Q 1869 2206 1869 1541 
Q 1869 572 1392 -226 
Q 916 -1025 144 -1369 
L 144 -1253 
Q 528 -1038 776 -670 
Q 1025 -303 1145 264 
Q 1266 831 1266 1447 
Q 1266 2113 1163 2663 
Q 1084 3094 967 3353 
Q 850 3613 656 3853 
Q 463 4094 144 4313 
z
" transform="scale(0.015625)"/>
      </defs>
      <use xlink:href="#TimesNewRomanPSMT-69"/>
      <use xlink:href="#TimesNewRomanPSMT-6e" x="27.783203"/>
      <use xlink:href="#TimesNewRomanPSMT-73" x="77.783203"/>
      <use xlink:href="#TimesNewRomanPSMT-65" x="116.699219"/>
      <use xlink:href="#TimesNewRomanPSMT-72" x="161.083984"/>
      <use xlink:href="#TimesNewRomanPSMT-74" x="194.384766"/>
      <use xlink:href="#TimesNewRomanPSMT-65" x="222.167969"/>
      <use xlink:href="#TimesNewRomanPSMT-64" x="266.552734"/>
      <use xlink:href="#TimesNewRomanPSMT-20" x="316.552734"/>
      <use xlink:href="#TimesNewRomanPSMT-6b" x="341.552734"/>
      <use xlink:href="#TimesNewRomanPSMT-65" x="391.552734"/>
      <use xlink:href="#TimesNewRomanPSMT-79" x="435.9375"/>
      <use xlink:href="#TimesNewRomanPSMT-73" x="485.9375"/>
      <use xlink:href="#TimesNewRomanPSMT-20" x="524.853516"/>
      <use xlink:href="#TimesNewRomanPSMT-28" x="549.853516"/>
      <use xlink:href="#TimesNewRomanPSMT-25" x="583.154297"/>
      <use xlink:href="#TimesNewRomanPSMT-29" x="666.455078"/>
     </g>
    </g>
   </g>
   <g id="matplotlib.axis_2">
    <g id="ytick_1">
     <g id="text_5">
      <!-- 0 -->
      <g style="fill: #262626" transform="translate(68.53375 286.7124) scale(0.2688 -0.2688)">
       <use xlink:href="#TimesNewRomanPSMT-30"/>
      </g>
     </g>
    </g>
    <g id="ytick_2">
     <g id="text_6">
      <!-- 1 -->
      <g style="fill: #262626" transform="translate(68.53375 179.998114) scale(0.2688 -0.2688)">
       <use xlink:href="#TimesNewRomanPSMT-31"/>
      </g>
     </g>
    </g>
    <g id="ytick_3">
     <g id="text_7">
      <!-- 2 -->
      <g style="fill: #262626" transform="translate(68.53375 73.283829) scale(0.2688 -0.2688)">
       <defs>
        <path id="TimesNewRomanPSMT-32" d="M 2934 816 
L 2638 0 
L 138 0 
L 138 116 
Q 1241 1122 1691 1759 
Q 2141 2397 2141 2925 
Q 2141 3328 1894 3587 
Q 1647 3847 1303 3847 
Q 991 3847 742 3664 
Q 494 3481 375 3128 
L 259 3128 
Q 338 3706 661 4015 
Q 984 4325 1469 4325 
Q 1984 4325 2329 3994 
Q 2675 3663 2675 3213 
Q 2675 2891 2525 2569 
Q 2294 2063 1775 1497 
Q 997 647 803 472 
L 1909 472 
Q 2247 472 2383 497 
Q 2519 522 2628 598 
Q 2738 675 2819 816 
L 2934 816 
z
" transform="scale(0.015625)"/>
       </defs>
       <use xlink:href="#TimesNewRomanPSMT-32"/>
      </g>
     </g>
    </g>
    <g id="text_8">
     <!-- avg. insert lat. (μs) -->
     <g style="fill: #262626" transform="translate(58.008525 285.181988) rotate(-90) scale(0.3024 -0.3024)">
      <defs>
       <path id="TimesNewRomanPS-BoldMT-61" d="M 1828 431 
Q 1294 -41 869 -41 
Q 619 -41 453 123 
Q 288 288 288 534 
Q 288 869 575 1136 
Q 863 1403 1828 1847 
L 1828 2141 
Q 1828 2472 1792 2558 
Q 1756 2644 1656 2708 
Q 1556 2772 1431 2772 
Q 1228 2772 1097 2681 
Q 1016 2625 1016 2550 
Q 1016 2484 1103 2388 
Q 1222 2253 1222 2128 
Q 1222 1975 1108 1867 
Q 994 1759 809 1759 
Q 613 1759 480 1878 
Q 347 1997 347 2156 
Q 347 2381 525 2586 
Q 703 2791 1022 2900 
Q 1341 3009 1684 3009 
Q 2100 3009 2342 2832 
Q 2584 2656 2656 2450 
Q 2700 2319 2700 1847 
L 2700 713 
Q 2700 513 2715 461 
Q 2731 409 2762 384 
Q 2794 359 2834 359 
Q 2916 359 3000 475 
L 3094 400 
Q 2938 169 2770 64 
Q 2603 -41 2391 -41 
Q 2141 -41 2000 76 
Q 1859 194 1828 431 
z
M 1828 659 
L 1828 1638 
Q 1450 1416 1266 1163 
Q 1144 994 1144 822 
Q 1144 678 1247 569 
Q 1325 484 1466 484 
Q 1622 484 1828 659 
z
" transform="scale(0.015625)"/>
       <path id="TimesNewRomanPS-BoldMT-76" d="M 1534 -88 
L 550 2178 
Q 372 2588 272 2697 
Q 200 2778 59 2806 
L 59 2922 
L 1613 2922 
L 1613 2806 
Q 1466 2806 1413 2753 
Q 1338 2684 1338 2591 
Q 1338 2475 1475 2156 
L 1956 1059 
L 2341 2006 
Q 2506 2413 2506 2581 
Q 2506 2678 2436 2739 
Q 2366 2800 2188 2806 
L 2188 2922 
L 3144 2922 
L 3144 2806 
Q 3006 2788 2918 2703 
Q 2831 2619 2656 2206 
L 1681 -88 
L 1534 -88 
z
" transform="scale(0.015625)"/>
       <path id="TimesNewRomanPS-BoldMT-67" d="M 2091 2888 
L 3075 2888 
L 3075 2544 
L 2516 2544 
Q 2669 2391 2728 2266 
Q 2803 2097 2803 1913 
Q 2803 1600 2629 1370 
Q 2456 1141 2157 1011 
Q 1859 881 1628 881 
Q 1609 881 1253 897 
Q 1113 897 1017 805 
Q 922 713 922 584 
Q 922 472 1008 400 
Q 1094 328 1288 328 
L 1828 334 
Q 2484 334 2731 191 
Q 3084 -9 3084 -425 
Q 3084 -691 2921 -908 
Q 2759 -1125 2494 -1228 
Q 2091 -1381 1566 -1381 
Q 1172 -1381 847 -1304 
Q 522 -1228 381 -1092 
Q 241 -956 241 -806 
Q 241 -663 348 -548 
Q 456 -434 750 -356 
Q 344 -156 344 200 
Q 344 416 509 619 
Q 675 822 1034 972 
Q 616 1125 428 1375 
Q 241 1625 241 1953 
Q 241 2381 591 2695 
Q 941 3009 1491 3009 
Q 1781 3009 2091 2888 
z
M 1550 2816 
Q 1369 2816 1244 2633 
Q 1119 2450 1119 1875 
Q 1119 1409 1242 1236 
Q 1366 1063 1534 1063 
Q 1722 1063 1847 1234 
Q 1972 1406 1972 1903 
Q 1972 2463 1831 2666 
Q 1731 2816 1550 2816 
z
M 1366 -431 
Q 1047 -431 944 -484 
Q 766 -581 766 -747 
Q 766 -906 950 -1036 
Q 1134 -1166 1644 -1166 
Q 2078 -1166 2326 -1050 
Q 2575 -934 2575 -725 
Q 2575 -647 2528 -594 
Q 2444 -500 2273 -465 
Q 2103 -431 1366 -431 
z
" transform="scale(0.015625)"/>
       <path id="TimesNewRomanPS-BoldMT-2e" d="M 800 963 
Q 1019 963 1170 809 
Q 1322 656 1322 441 
Q 1322 225 1169 73 
Q 1016 -78 800 -78 
Q 584 -78 432 73 
Q 281 225 281 441 
Q 281 656 432 809 
Q 584 963 800 963 
z
" transform="scale(0.015625)"/>
       <path id="TimesNewRomanPS-BoldMT-20" transform="scale(0.015625)"/>
       <path id="TimesNewRomanPS-BoldMT-69" d="M 919 4338 
Q 1122 4338 1262 4195 
Q 1403 4053 1403 3853 
Q 1403 3653 1261 3512 
Q 1119 3372 919 3372 
Q 719 3372 578 3512 
Q 438 3653 438 3853 
Q 438 4053 578 4195 
Q 719 4338 919 4338 
z
M 1356 2922 
L 1356 606 
Q 1356 297 1428 211 
Q 1500 125 1709 113 
L 1709 0 
L 131 0 
L 131 113 
Q 325 119 419 225 
Q 481 297 481 606 
L 481 2313 
Q 481 2622 409 2708 
Q 338 2794 131 2806 
L 131 2922 
L 1356 2922 
z
" transform="scale(0.015625)"/>
       <path id="TimesNewRomanPS-BoldMT-6e" d="M 1409 2922 
L 1409 2544 
Q 1634 2788 1840 2898 
Q 2047 3009 2284 3009 
Q 2569 3009 2756 2851 
Q 2944 2694 3006 2459 
Q 3056 2281 3056 1775 
L 3056 638 
Q 3056 300 3117 217 
Q 3178 134 3372 113 
L 3372 0 
L 1894 0 
L 1894 113 
Q 2059 134 2131 250 
Q 2181 328 2181 638 
L 2181 1938 
Q 2181 2297 2153 2390 
Q 2125 2484 2058 2536 
Q 1991 2588 1909 2588 
Q 1641 2588 1409 2203 
L 1409 638 
Q 1409 309 1470 221 
Q 1531 134 1697 113 
L 1697 0 
L 219 0 
L 219 113 
Q 403 131 481 231 
Q 534 300 534 638 
L 534 2288 
Q 534 2619 473 2700 
Q 413 2781 219 2806 
L 219 2922 
L 1409 2922 
z
" transform="scale(0.015625)"/>
       <path id="TimesNewRomanPS-BoldMT-73" d="M 2063 3003 
L 2109 2006 
L 2003 2006 
Q 1813 2450 1608 2612 
Q 1403 2775 1200 2775 
Q 1072 2775 981 2689 
Q 891 2603 891 2491 
Q 891 2406 953 2328 
Q 1053 2200 1512 1889 
Q 1972 1578 2117 1361 
Q 2263 1144 2263 875 
Q 2263 631 2141 397 
Q 2019 163 1797 37 
Q 1575 -88 1306 -88 
Q 1097 -88 747 44 
Q 653 78 619 78 
Q 516 78 447 -78 
L 344 -78 
L 294 972 
L 400 972 
Q 541 559 786 353 
Q 1031 147 1250 147 
Q 1400 147 1495 239 
Q 1591 331 1591 463 
Q 1591 613 1497 722 
Q 1403 831 1078 1053 
Q 600 1384 459 1559 
Q 253 1816 253 2125 
Q 253 2463 486 2736 
Q 719 3009 1159 3009 
Q 1397 3009 1619 2894 
Q 1703 2847 1756 2847 
Q 1813 2847 1847 2870 
Q 1881 2894 1956 3003 
L 2063 3003 
z
" transform="scale(0.015625)"/>
       <path id="TimesNewRomanPS-BoldMT-65" d="M 2691 1566 
L 1088 1566 
Q 1116 984 1397 647 
Q 1613 388 1916 388 
Q 2103 388 2256 492 
Q 2409 597 2584 869 
L 2691 800 
Q 2453 316 2165 114 
Q 1878 -88 1500 -88 
Q 850 -88 516 413 
Q 247 816 247 1413 
Q 247 2144 642 2576 
Q 1038 3009 1569 3009 
Q 2013 3009 2339 2645 
Q 2666 2281 2691 1566 
z
M 1922 1775 
Q 1922 2278 1867 2465 
Q 1813 2653 1697 2750 
Q 1631 2806 1522 2806 
Q 1359 2806 1256 2647 
Q 1072 2369 1072 1884 
L 1072 1775 
L 1922 1775 
z
" transform="scale(0.015625)"/>
       <path id="TimesNewRomanPS-BoldMT-72" d="M 1428 2922 
L 1428 2259 
Q 1719 2713 1937 2861 
Q 2156 3009 2359 3009 
Q 2534 3009 2639 2901 
Q 2744 2794 2744 2597 
Q 2744 2388 2642 2272 
Q 2541 2156 2397 2156 
Q 2231 2156 2109 2262 
Q 1988 2369 1966 2381 
Q 1934 2400 1894 2400 
Q 1803 2400 1722 2331 
Q 1594 2225 1528 2028 
Q 1428 1725 1428 1359 
L 1428 688 
L 1431 513 
Q 1431 334 1453 284 
Q 1491 200 1564 161 
Q 1638 122 1813 113 
L 1813 0 
L 234 0 
L 234 113 
Q 425 128 492 217 
Q 559 306 559 688 
L 559 2303 
Q 559 2553 534 2622 
Q 503 2709 443 2750 
Q 384 2791 234 2806 
L 234 2922 
L 1428 2922 
z
" transform="scale(0.015625)"/>
       <path id="TimesNewRomanPS-BoldMT-74" d="M 1375 3991 
L 1375 2922 
L 2069 2922 
L 2069 2613 
L 1375 2613 
L 1375 809 
Q 1375 556 1398 482 
Q 1422 409 1481 364 
Q 1541 319 1591 319 
Q 1794 319 1975 628 
L 2069 559 
Q 1816 -41 1247 -41 
Q 969 -41 776 114 
Q 584 269 531 459 
Q 500 566 500 1034 
L 500 2613 
L 119 2613 
L 119 2722 
Q 513 3000 789 3306 
Q 1066 3613 1272 3991 
L 1375 3991 
z
" transform="scale(0.015625)"/>
       <path id="TimesNewRomanPS-BoldMT-6c" d="M 1359 4238 
L 1359 606 
Q 1359 297 1431 211 
Q 1503 125 1713 113 
L 1713 0 
L 134 0 
L 134 113 
Q 328 119 422 225 
Q 484 297 484 606 
L 484 3631 
Q 484 3938 412 4023 
Q 341 4109 134 4122 
L 134 4238 
L 1359 4238 
z
" transform="scale(0.015625)"/>
       <path id="TimesNewRomanPS-BoldMT-28" d="M 2056 4334 
L 2056 4191 
Q 1731 3978 1578 3775 
Q 1366 3494 1247 3053 
Q 1097 2506 1097 1525 
Q 1097 600 1233 87 
Q 1369 -425 1603 -741 
Q 1766 -959 2056 -1125 
L 2056 -1281 
Q 1303 -1028 779 -248 
Q 256 531 256 1544 
Q 256 2544 778 3314 
Q 1300 4084 2056 4334 
z
" transform="scale(0.015625)"/>
       <path id="TimesNewRomanPS-BoldMT-3bc" d="M 3416 819 
L 3531 819 
Q 3528 350 3318 131 
Q 3109 -88 2806 -88 
Q 2309 -88 2141 391 
Q 1759 -88 1263 -88 
Q 1069 -88 922 34 
Q 963 -219 1059 -544 
Q 1138 -809 1138 -922 
Q 1138 -1119 1034 -1250 
Q 931 -1381 734 -1381 
Q 334 -1381 334 -981 
Q 334 -856 400 -563 
Q 494 -134 494 419 
L 494 2922 
L 1369 2922 
L 1369 925 
Q 1369 572 1426 455 
Q 1484 338 1644 338 
Q 1888 338 2141 725 
L 2141 2922 
L 3016 2922 
L 3016 741 
Q 3016 391 3200 391 
Q 3403 391 3416 819 
z
" transform="scale(0.015625)"/>
       <path id="TimesNewRomanPS-BoldMT-29" d="M 78 -1281 
L 78 -1138 
Q 403 -922 556 -719 
Q 766 -438 888 0 
Q 1038 550 1038 1531 
Q 1038 2456 902 2967 
Q 766 3478 531 3794 
Q 369 4013 78 4178 
L 78 4334 
Q 831 4081 1354 3301 
Q 1878 2522 1878 1509 
Q 1878 513 1354 -257 
Q 831 -1028 78 -1281 
z
" transform="scale(0.015625)"/>
      </defs>
      <use xlink:href="#TimesNewRomanPS-BoldMT-61"/>
      <use xlink:href="#TimesNewRomanPS-BoldMT-76" x="50"/>
      <use xlink:href="#TimesNewRomanPS-BoldMT-67" x="100"/>
      <use xlink:href="#TimesNewRomanPS-BoldMT-2e" x="150"/>
      <use xlink:href="#TimesNewRomanPS-BoldMT-20" x="175"/>
      <use xlink:href="#TimesNewRomanPS-BoldMT-69" x="200"/>
      <use xlink:href="#TimesNewRomanPS-BoldMT-6e" x="227.783203"/>
      <use xlink:href="#TimesNewRomanPS-BoldMT-73" x="283.398438"/>
      <use xlink:href="#TimesNewRomanPS-BoldMT-65" x="322.314453"/>
      <use xlink:href="#TimesNewRomanPS-BoldMT-72" x="366.699219"/>
      <use xlink:href="#TimesNewRomanPS-BoldMT-74" x="411.083984"/>
      <use xlink:href="#TimesNewRomanPS-BoldMT-20" x="444.384766"/>
      <use xlink:href="#TimesNewRomanPS-BoldMT-6c" x="469.384766"/>
      <use xlink:href="#TimesNewRomanPS-BoldMT-61" x="497.167969"/>
      <use xlink:href="#TimesNewRomanPS-BoldMT-74" x="547.167969"/>
      <use xlink:href="#TimesNewRomanPS-BoldMT-2e" x="580.46875"/>
      <use xlink:href="#TimesNewRomanPS-BoldMT-20" x="605.46875"/>
      <use xlink:href="#TimesNewRomanPS-BoldMT-28" x="630.46875"/>
      <use xlink:href="#TimesNewRomanPS-BoldMT-3bc" x="663.769531"/>
      <use xlink:href="#TimesNewRomanPS-BoldMT-73" x="720.458984"/>
      <use xlink:href="#TimesNewRomanPS-BoldMT-29" x="759.375"/>
     </g>
    </g>
   </g>
   <g id="line2d_1">
    <path d="M 103.609093 265.495163 
L 132.52342 266.121353 
L 161.437747 264.859852 
L 190.352074 264.244566 
L 219.266402 264.270809 
L 248.180729 264.396926 
L 277.095056 263.337246 
L 306.009383 258.948154 
L 334.92371 256.796332 
L 363.838037 254.981691 
L 392.752364 249.673464 
" clip-path="url(#p73be7a61f5)" style="fill: none; stroke: #006400; stroke-opacity: 0.9; stroke-width: 1.5; stroke-linecap: round"/>
    <defs>
     <path id="mbb8eba03bb" d="M 0 9 
C 2.386828 9 4.676219 8.051703 6.363961 6.363961 
C 8.051703 4.676219 9 2.386828 9 0 
C 9 -2.386828 8.051703 -4.676219 6.363961 -6.363961 
C 4.676219 -8.051703 2.386828 -9 0 -9 
C -2.386828 -9 -4.676219 -8.051703 -6.363961 -6.363961 
C -8.051703 -4.676219 -9 -2.386828 -9 0 
C -9 2.386828 -8.051703 4.676219 -6.363961 6.363961 
C -4.676219 8.051703 -2.386828 9 0 9 
z
" style="stroke: #006400; stroke-opacity: 0.9"/>
    </defs>
    <g clip-path="url(#p73be7a61f5)">
     <use xlink:href="#mbb8eba03bb" x="103.609093" y="265.495163" style="fill-opacity: 0; stroke: #006400; stroke-opacity: 0.9"/>
     <use xlink:href="#mbb8eba03bb" x="132.52342" y="266.121353" style="fill-opacity: 0; stroke: #006400; stroke-opacity: 0.9"/>
     <use xlink:href="#mbb8eba03bb" x="161.437747" y="264.859852" style="fill-opacity: 0; stroke: #006400; stroke-opacity: 0.9"/>
     <use xlink:href="#mbb8eba03bb" x="190.352074" y="264.244566" style="fill-opacity: 0; stroke: #006400; stroke-opacity: 0.9"/>
     <use xlink:href="#mbb8eba03bb" x="219.266402" y="264.270809" style="fill-opacity: 0; stroke: #006400; stroke-opacity: 0.9"/>
     <use xlink:href="#mbb8eba03bb" x="248.180729" y="264.396926" style="fill-opacity: 0; stroke: #006400; stroke-opacity: 0.9"/>
     <use xlink:href="#mbb8eba03bb" x="277.095056" y="263.337246" style="fill-opacity: 0; stroke: #006400; stroke-opacity: 0.9"/>
     <use xlink:href="#mbb8eba03bb" x="306.009383" y="258.948154" style="fill-opacity: 0; stroke: #006400; stroke-opacity: 0.9"/>
     <use xlink:href="#mbb8eba03bb" x="334.92371" y="256.796332" style="fill-opacity: 0; stroke: #006400; stroke-opacity: 0.9"/>
     <use xlink:href="#mbb8eba03bb" x="363.838037" y="254.981691" style="fill-opacity: 0; stroke: #006400; stroke-opacity: 0.9"/>
     <use xlink:href="#mbb8eba03bb" x="392.752364" y="249.673464" style="fill-opacity: 0; stroke: #006400; stroke-opacity: 0.9"/>
    </g>
   </g>
   <g id="line2d_2">
    <path d="M 103.609093 267.231882 
L 132.52342 268.757287 
L 161.437747 267.027421 
L 190.352074 266.302858 
L 219.266402 260.739785 
L 248.180729 256.215311 
L 277.095056 257.543332 
L 306.009383 255.529773 
L 334.92371 252.479751 
L 363.838037 243.971712 
L 392.752364 71.008419 
" clip-path="url(#p73be7a61f5)" style="fill: none; stroke: #4b0082; stroke-opacity: 0.9; stroke-width: 1.5; stroke-linecap: round"/>
    <defs>
     <path id="m1807f0cd28" d="M -0 9 
L 9 -9 
L -9 -9 
z
" style="stroke: #4b0082; stroke-opacity: 0.9; stroke-linejoin: miter"/>
    </defs>
    <g clip-path="url(#p73be7a61f5)">
     <use xlink:href="#m1807f0cd28" x="103.609093" y="267.231882" style="fill-opacity: 0; stroke: #4b0082; stroke-opacity: 0.9; stroke-linejoin: miter"/>
     <use xlink:href="#m1807f0cd28" x="132.52342" y="268.757287" style="fill-opacity: 0; stroke: #4b0082; stroke-opacity: 0.9; stroke-linejoin: miter"/>
     <use xlink:href="#m1807f0cd28" x="161.437747" y="267.027421" style="fill-opacity: 0; stroke: #4b0082; stroke-opacity: 0.9; stroke-linejoin: miter"/>
     <use xlink:href="#m1807f0cd28" x="190.352074" y="266.302858" style="fill-opacity: 0; stroke: #4b0082; stroke-opacity: 0.9; stroke-linejoin: miter"/>
     <use xlink:href="#m1807f0cd28" x="219.266402" y="260.739785" style="fill-opacity: 0; stroke: #4b0082; stroke-opacity: 0.9; stroke-linejoin: miter"/>
     <use xlink:href="#m1807f0cd28" x="248.180729" y="256.215311" style="fill-opacity: 0; stroke: #4b0082; stroke-opacity: 0.9; stroke-linejoin: miter"/>
     <use xlink:href="#m1807f0cd28" x="277.095056" y="257.543332" style="fill-opacity: 0; stroke: #4b0082; stroke-opacity: 0.9; stroke-linejoin: miter"/>
     <use xlink:href="#m1807f0cd28" x="306.009383" y="255.529773" style="fill-opacity: 0; stroke: #4b0082; stroke-opacity: 0.9; stroke-linejoin: miter"/>
     <use xlink:href="#m1807f0cd28" x="334.92371" y="252.479751" style="fill-opacity: 0; stroke: #4b0082; stroke-opacity: 0.9; stroke-linejoin: miter"/>
     <use xlink:href="#m1807f0cd28" x="363.838037" y="243.971712" style="fill-opacity: 0; stroke: #4b0082; stroke-opacity: 0.9; stroke-linejoin: miter"/>
     <use xlink:href="#m1807f0cd28" x="392.752364" y="71.008419" style="fill-opacity: 0; stroke: #4b0082; stroke-opacity: 0.9; stroke-linejoin: miter"/>
    </g>
   </g>
   <g id="line2d_3">
    <path d="M 103.609093 252.622286 
L 132.52342 266.381464 
L 161.437747 263.457641 
L 190.352074 264.327359 
L 219.266402 259.954643 
L 248.180729 257.111251 
L 277.095056 255.119002 
L 306.009383 250.96411 
L 334.92371 250.791145 
L 363.838037 240.055621 
L 392.752364 68.440145 
" clip-path="url(#p73be7a61f5)" style="fill: none; stroke: #8b0000; stroke-opacity: 0.9; stroke-width: 1.5; stroke-linecap: round"/>
    <defs>
     <path id="m239c2fabf6" d="M -0 12.727922 
L 12.727922 0 
L 0 -12.727922 
L -12.727922 -0 
z
" style="stroke: #8b0000; stroke-opacity: 0.9; stroke-linejoin: miter"/>
    </defs>
    <g clip-path="url(#p73be7a61f5)">
     <use xlink:href="#m239c2fabf6" x="103.609093" y="252.622286" style="fill-opacity: 0; stroke: #8b0000; stroke-opacity: 0.9; stroke-linejoin: miter"/>
     <use xlink:href="#m239c2fabf6" x="132.52342" y="266.381464" style="fill-opacity: 0; stroke: #8b0000; stroke-opacity: 0.9; stroke-linejoin: miter"/>
     <use xlink:href="#m239c2fabf6" x="161.437747" y="263.457641" style="fill-opacity: 0; stroke: #8b0000; stroke-opacity: 0.9; stroke-linejoin: miter"/>
     <use xlink:href="#m239c2fabf6" x="190.352074" y="264.327359" style="fill-opacity: 0; stroke: #8b0000; stroke-opacity: 0.9; stroke-linejoin: miter"/>
     <use xlink:href="#m239c2fabf6" x="219.266402" y="259.954643" style="fill-opacity: 0; stroke: #8b0000; stroke-opacity: 0.9; stroke-linejoin: miter"/>
     <use xlink:href="#m239c2fabf6" x="248.180729" y="257.111251" style="fill-opacity: 0; stroke: #8b0000; stroke-opacity: 0.9; stroke-linejoin: miter"/>
     <use xlink:href="#m239c2fabf6" x="277.095056" y="255.119002" style="fill-opacity: 0; stroke: #8b0000; stroke-opacity: 0.9; stroke-linejoin: miter"/>
     <use xlink:href="#m239c2fabf6" x="306.009383" y="250.96411" style="fill-opacity: 0; stroke: #8b0000; stroke-opacity: 0.9; stroke-linejoin: miter"/>
     <use xlink:href="#m239c2fabf6" x="334.92371" y="250.791145" style="fill-opacity: 0; stroke: #8b0000; stroke-opacity: 0.9; stroke-linejoin: miter"/>
     <use xlink:href="#m239c2fabf6" x="363.838037" y="240.055621" style="fill-opacity: 0; stroke: #8b0000; stroke-opacity: 0.9; stroke-linejoin: miter"/>
     <use xlink:href="#m239c2fabf6" x="392.752364" y="68.440145" style="fill-opacity: 0; stroke: #8b0000; stroke-opacity: 0.9; stroke-linejoin: miter"/>
    </g>
   </g>
   <g id="line2d_4">
    <path d="M 103.609093 245.752085 
L 132.52342 240.067381 
L 161.437747 234.046738 
L 190.352074 227.690156 
L 219.266402 220.997634 
L 248.180729 213.969173 
L 277.095056 206.657727 
L 306.009383 199.081143 
L 334.92371 191.187631 
L 363.838037 182.97719 
L 392.752364 174.44982 
" clip-path="url(#p73be7a61f5)" style="fill: none; stroke: #00008b; stroke-opacity: 0.9; stroke-width: 1.5; stroke-linecap: round"/>
    <defs>
     <path id="m55dff10f90" d="M 0 -9 
L -2.020626 -2.781153 
L -8.559509 -2.781153 
L -3.269441 1.062306 
L -5.290067 7.281153 
L -0 3.437694 
L 5.290067 7.281153 
L 3.269441 1.062306 
L 8.559509 -2.781153 
L 2.020626 -2.781153 
z
" style="stroke: #00008b; stroke-opacity: 0.9; stroke-linejoin: bevel"/>
    </defs>
    <g clip-path="url(#p73be7a61f5)">
     <use xlink:href="#m55dff10f90" x="103.609093" y="245.752085" style="fill-opacity: 0; stroke: #00008b; stroke-opacity: 0.9; stroke-linejoin: bevel"/>
     <use xlink:href="#m55dff10f90" x="132.52342" y="240.067381" style="fill-opacity: 0; stroke: #00008b; stroke-opacity: 0.9; stroke-linejoin: bevel"/>
     <use xlink:href="#m55dff10f90" x="161.437747" y="234.046738" style="fill-opacity: 0; stroke: #00008b; stroke-opacity: 0.9; stroke-linejoin: bevel"/>
     <use xlink:href="#m55dff10f90" x="190.352074" y="227.690156" style="fill-opacity: 0; stroke: #00008b; stroke-opacity: 0.9; stroke-linejoin: bevel"/>
     <use xlink:href="#m55dff10f90" x="219.266402" y="220.997634" style="fill-opacity: 0; stroke: #00008b; stroke-opacity: 0.9; stroke-linejoin: bevel"/>
     <use xlink:href="#m55dff10f90" x="248.180729" y="213.969173" style="fill-opacity: 0; stroke: #00008b; stroke-opacity: 0.9; stroke-linejoin: bevel"/>
     <use xlink:href="#m55dff10f90" x="277.095056" y="206.657727" style="fill-opacity: 0; stroke: #00008b; stroke-opacity: 0.9; stroke-linejoin: bevel"/>
     <use xlink:href="#m55dff10f90" x="306.009383" y="199.081143" style="fill-opacity: 0; stroke: #00008b; stroke-opacity: 0.9; stroke-linejoin: bevel"/>
     <use xlink:href="#m55dff10f90" x="334.92371" y="191.187631" style="fill-opacity: 0; stroke: #00008b; stroke-opacity: 0.9; stroke-linejoin: bevel"/>
     <use xlink:href="#m55dff10f90" x="363.838037" y="182.97719" style="fill-opacity: 0; stroke: #00008b; stroke-opacity: 0.9; stroke-linejoin: bevel"/>
     <use xlink:href="#m55dff10f90" x="392.752364" y="174.44982" style="fill-opacity: 0; stroke: #00008b; stroke-opacity: 0.9; stroke-linejoin: bevel"/>
    </g>
   </g>
   <g id="patch_3">
    <path d="M 91.47375 277.38 
L 91.47375 53.28 
" style="fill: none; stroke: #cccccc; stroke-width: 1.25; stroke-linejoin: miter; stroke-linecap: square"/>
   </g>
   <g id="patch_4">
    <path d="M 91.47375 277.38 
L 407.209528 277.38 
" style="fill: none; stroke: #cccccc; stroke-width: 1.25; stroke-linejoin: miter; stroke-linecap: square"/>
   </g>
  </g>
  <g id="axes_2">
   <g id="patch_5">
    <path d="M 521.251875 277.38 
L 836.987653 277.38 
L 836.987653 53.28 
L 521.251875 53.28 
z
" style="fill: #ffffff"/>
   </g>
   <g id="matplotlib.axis_3">
    <g id="xtick_4">
     <g id="text_9">
      <!-- 0 -->
      <g style="fill: #262626" transform="translate(523.414356 305.5448) scale(0.2688 -0.2688)">
       <use xlink:href="#TimesNewRomanPSMT-30"/>
      </g>
     </g>
    </g>
    <g id="xtick_5">
     <g id="text_10">
      <!-- 50 -->
      <g style="fill: #262626" transform="translate(664.735711 305.5448) scale(0.2688 -0.2688)">
       <use xlink:href="#TimesNewRomanPSMT-35"/>
       <use xlink:href="#TimesNewRomanPSMT-30" x="50"/>
      </g>
     </g>
    </g>
    <g id="xtick_6">
     <g id="text_11">
      <!-- 100 -->
      <g style="fill: #262626" transform="translate(806.057066 305.5448) scale(0.2688 -0.2688)">
       <use xlink:href="#TimesNewRomanPSMT-31"/>
       <use xlink:href="#TimesNewRomanPSMT-30" x="50"/>
       <use xlink:href="#TimesNewRomanPSMT-30" x="100"/>
      </g>
     </g>
    </g>
    <g id="text_12">
     <!-- inserted keys (%) -->
     <g style="fill: #262626" transform="translate(573.315201 336.2925) scale(0.3024 -0.3024)">
      <use xlink:href="#TimesNewRomanPSMT-69"/>
      <use xlink:href="#TimesNewRomanPSMT-6e" x="27.783203"/>
      <use xlink:href="#TimesNewRomanPSMT-73" x="77.783203"/>
      <use xlink:href="#TimesNewRomanPSMT-65" x="116.699219"/>
      <use xlink:href="#TimesNewRomanPSMT-72" x="161.083984"/>
      <use xlink:href="#TimesNewRomanPSMT-74" x="194.384766"/>
      <use xlink:href="#TimesNewRomanPSMT-65" x="222.167969"/>
      <use xlink:href="#TimesNewRomanPSMT-64" x="266.552734"/>
      <use xlink:href="#TimesNewRomanPSMT-20" x="316.552734"/>
      <use xlink:href="#TimesNewRomanPSMT-6b" x="341.552734"/>
      <use xlink:href="#TimesNewRomanPSMT-65" x="391.552734"/>
      <use xlink:href="#TimesNewRomanPSMT-79" x="435.9375"/>
      <use xlink:href="#TimesNewRomanPSMT-73" x="485.9375"/>
      <use xlink:href="#TimesNewRomanPSMT-20" x="524.853516"/>
      <use xlink:href="#TimesNewRomanPSMT-28" x="549.853516"/>
      <use xlink:href="#TimesNewRomanPSMT-25" x="583.154297"/>
      <use xlink:href="#TimesNewRomanPSMT-29" x="666.455078"/>
     </g>
    </g>
   </g>
   <g id="matplotlib.axis_4">
    <g id="ytick_4">
     <g id="text_13">
      <!-- 0.0 -->
      <g style="fill: #262626" transform="translate(478.151875 278.681727) scale(0.2688 -0.2688)">
       <defs>
        <path id="TimesNewRomanPSMT-2e" d="M 800 606 
Q 947 606 1047 504 
Q 1147 403 1147 259 
Q 1147 116 1045 14 
Q 944 -88 800 -88 
Q 656 -88 554 14 
Q 453 116 453 259 
Q 453 406 554 506 
Q 656 606 800 606 
z
" transform="scale(0.015625)"/>
       </defs>
       <use xlink:href="#TimesNewRomanPSMT-30"/>
       <use xlink:href="#TimesNewRomanPSMT-2e" x="50"/>
       <use xlink:href="#TimesNewRomanPSMT-30" x="75"/>
      </g>
     </g>
    </g>
    <g id="ytick_5">
     <g id="text_14">
      <!-- 0.5 -->
      <g style="fill: #262626" transform="translate(478.151875 174.442361) scale(0.2688 -0.2688)">
       <use xlink:href="#TimesNewRomanPSMT-30"/>
       <use xlink:href="#TimesNewRomanPSMT-2e" x="50"/>
       <use xlink:href="#TimesNewRomanPSMT-35" x="75"/>
      </g>
     </g>
    </g>
    <g id="ytick_6">
     <g id="text_15">
      <!-- 1.0 -->
      <g style="fill: #262626" transform="translate(478.151875 70.202995) scale(0.2688 -0.2688)">
       <use xlink:href="#TimesNewRomanPSMT-31"/>
       <use xlink:href="#TimesNewRomanPSMT-2e" x="50"/>
       <use xlink:href="#TimesNewRomanPSMT-30" x="75"/>
      </g>
     </g>
    </g>
    <g id="text_16">
     <!-- load factor -->
     <g style="fill: #262626" transform="translate(467.68335 235.451363) rotate(-90) scale(0.3024 -0.3024)">
      <defs>
       <path id="TimesNewRomanPS-BoldMT-6f" d="M 1594 3009 
Q 1975 3009 2303 2812 
Q 2631 2616 2801 2253 
Q 2972 1891 2972 1459 
Q 2972 838 2656 419 
Q 2275 -88 1603 -88 
Q 944 -88 587 375 
Q 231 838 231 1447 
Q 231 2075 595 2542 
Q 959 3009 1594 3009 
z
M 1606 2788 
Q 1447 2788 1333 2667 
Q 1219 2547 1183 2192 
Q 1147 1838 1147 1206 
Q 1147 872 1191 581 
Q 1225 359 1337 243 
Q 1450 128 1594 128 
Q 1734 128 1828 206 
Q 1950 313 1991 503 
Q 2053 800 2053 1703 
Q 2053 2234 1993 2432 
Q 1934 2631 1819 2722 
Q 1738 2788 1606 2788 
z
" transform="scale(0.015625)"/>
       <path id="TimesNewRomanPS-BoldMT-64" d="M 3056 4238 
L 3056 875 
Q 3056 534 3075 472 
Q 3100 369 3170 319 
Q 3241 269 3416 256 
L 3416 153 
L 2181 -88 
L 2181 375 
Q 1959 106 1786 9 
Q 1613 -88 1394 -88 
Q 834 -88 509 413 
Q 247 819 247 1409 
Q 247 1881 409 2254 
Q 572 2628 855 2818 
Q 1138 3009 1463 3009 
Q 1672 3009 1834 2928 
Q 1997 2847 2181 2644 
L 2181 3525 
Q 2181 3859 2153 3928 
Q 2116 4019 2041 4062 
Q 1966 4106 1759 4106 
L 1759 4238 
L 3056 4238 
z
M 2181 2256 
Q 1950 2700 1616 2700 
Q 1500 2700 1425 2638 
Q 1309 2541 1236 2297 
Q 1163 2053 1163 1550 
Q 1163 997 1244 731 
Q 1325 466 1466 347 
Q 1538 288 1663 288 
Q 1938 288 2181 719 
L 2181 2256 
z
" transform="scale(0.015625)"/>
       <path id="TimesNewRomanPS-BoldMT-66" d="M 1497 2616 
L 1497 588 
Q 1497 294 1559 219 
Q 1659 103 1928 113 
L 1928 0 
L 206 0 
L 206 113 
Q 403 116 486 158 
Q 569 200 600 275 
Q 631 350 631 588 
L 631 2616 
L 206 2616 
L 206 2922 
L 631 2922 
L 631 3138 
L 628 3284 
Q 628 3734 958 4034 
Q 1288 4334 1850 4334 
Q 2234 4334 2420 4190 
Q 2606 4047 2606 3872 
Q 2606 3731 2490 3628 
Q 2375 3525 2184 3525 
Q 2022 3525 1926 3609 
Q 1831 3694 1831 3797 
Q 1831 3825 1850 3913 
Q 1863 3966 1863 4013 
Q 1863 4078 1825 4109 
Q 1775 4156 1703 4156 
Q 1613 4156 1552 4081 
Q 1491 4006 1491 3841 
L 1497 3294 
L 1497 2922 
L 1928 2922 
L 1928 2616 
L 1497 2616 
z
" transform="scale(0.015625)"/>
       <path id="TimesNewRomanPS-BoldMT-63" d="M 2600 753 
L 2697 678 
Q 2491 291 2183 101 
Q 1875 -88 1528 -88 
Q 944 -88 594 353 
Q 244 794 244 1413 
Q 244 2009 563 2463 
Q 947 3009 1622 3009 
Q 2075 3009 2342 2781 
Q 2609 2553 2609 2272 
Q 2609 2094 2501 1987 
Q 2394 1881 2219 1881 
Q 2034 1881 1914 2003 
Q 1794 2125 1766 2438 
Q 1747 2634 1675 2713 
Q 1603 2791 1506 2791 
Q 1356 2791 1250 2631 
Q 1088 2391 1088 1894 
Q 1088 1481 1219 1104 
Q 1350 728 1578 544 
Q 1750 409 1984 409 
Q 2138 409 2275 481 
Q 2413 553 2600 753 
z
" transform="scale(0.015625)"/>
      </defs>
      <use xlink:href="#TimesNewRomanPS-BoldMT-6c"/>
      <use xlink:href="#TimesNewRomanPS-BoldMT-6f" x="27.783203"/>
      <use xlink:href="#TimesNewRomanPS-BoldMT-61" x="77.783203"/>
      <use xlink:href="#TimesNewRomanPS-BoldMT-64" x="127.783203"/>
      <use xlink:href="#TimesNewRomanPS-BoldMT-20" x="183.398438"/>
      <use xlink:href="#TimesNewRomanPS-BoldMT-66" x="208.398438"/>
      <use xlink:href="#TimesNewRomanPS-BoldMT-61" x="241.699219"/>
      <use xlink:href="#TimesNewRomanPS-BoldMT-63" x="291.699219"/>
      <use xlink:href="#TimesNewRomanPS-BoldMT-74" x="336.083984"/>
      <use xlink:href="#TimesNewRomanPS-BoldMT-6f" x="369.384766"/>
      <use xlink:href="#TimesNewRomanPS-BoldMT-72" x="419.384766"/>
     </g>
    </g>
   </g>
   <g id="line2d_5">
    <path d="M 533.387218 267.193636 
L 562.301545 248.03196 
L 591.215872 228.870263 
L 620.130199 209.708774 
L 649.044527 190.547077 
L 677.958854 171.385379 
L 706.873181 152.223682 
L 735.787508 133.062193 
L 764.701835 113.900496 
L 793.616162 94.738799 
L 822.530489 75.577102 
" clip-path="url(#pcad7ed240c)" style="fill: none; stroke: #006400; stroke-opacity: 0.9; stroke-width: 1.5; stroke-linecap: round"/>
    <g clip-path="url(#pcad7ed240c)">
     <use xlink:href="#mbb8eba03bb" x="533.387218" y="267.193636" style="fill-opacity: 0; stroke: #006400; stroke-opacity: 0.9"/>
     <use xlink:href="#mbb8eba03bb" x="562.301545" y="248.03196" style="fill-opacity: 0; stroke: #006400; stroke-opacity: 0.9"/>
     <use xlink:href="#mbb8eba03bb" x="591.215872" y="228.870263" style="fill-opacity: 0; stroke: #006400; stroke-opacity: 0.9"/>
     <use xlink:href="#mbb8eba03bb" x="620.130199" y="209.708774" style="fill-opacity: 0; stroke: #006400; stroke-opacity: 0.9"/>
     <use xlink:href="#mbb8eba03bb" x="649.044527" y="190.547077" style="fill-opacity: 0; stroke: #006400; stroke-opacity: 0.9"/>
     <use xlink:href="#mbb8eba03bb" x="677.958854" y="171.385379" style="fill-opacity: 0; stroke: #006400; stroke-opacity: 0.9"/>
     <use xlink:href="#mbb8eba03bb" x="706.873181" y="152.223682" style="fill-opacity: 0; stroke: #006400; stroke-opacity: 0.9"/>
     <use xlink:href="#mbb8eba03bb" x="735.787508" y="133.062193" style="fill-opacity: 0; stroke: #006400; stroke-opacity: 0.9"/>
     <use xlink:href="#mbb8eba03bb" x="764.701835" y="113.900496" style="fill-opacity: 0; stroke: #006400; stroke-opacity: 0.9"/>
     <use xlink:href="#mbb8eba03bb" x="793.616162" y="94.738799" style="fill-opacity: 0; stroke: #006400; stroke-opacity: 0.9"/>
     <use xlink:href="#mbb8eba03bb" x="822.530489" y="75.577102" style="fill-opacity: 0; stroke: #006400; stroke-opacity: 0.9"/>
    </g>
   </g>
   <g id="line2d_6">
    <path d="M 533.387218 267.058917 
L 562.301545 246.699572 
L 591.215872 226.340373 
L 620.130199 205.981174 
L 649.044527 185.621975 
L 677.958854 165.262568 
L 706.873181 144.903368 
L 735.787508 124.544169 
L 764.701835 104.18497 
L 793.616162 83.825563 
L 822.530489 63.466364 
" clip-path="url(#pcad7ed240c)" style="fill: none; stroke: #4b0082; stroke-opacity: 0.9; stroke-width: 1.5; stroke-linecap: round"/>
    <g clip-path="url(#pcad7ed240c)">
     <use xlink:href="#m1807f0cd28" x="533.387218" y="267.058917" style="fill-opacity: 0; stroke: #4b0082; stroke-opacity: 0.9; stroke-linejoin: miter"/>
     <use xlink:href="#m1807f0cd28" x="562.301545" y="246.699572" style="fill-opacity: 0; stroke: #4b0082; stroke-opacity: 0.9; stroke-linejoin: miter"/>
     <use xlink:href="#m1807f0cd28" x="591.215872" y="226.340373" style="fill-opacity: 0; stroke: #4b0082; stroke-opacity: 0.9; stroke-linejoin: miter"/>
     <use xlink:href="#m1807f0cd28" x="620.130199" y="205.981174" style="fill-opacity: 0; stroke: #4b0082; stroke-opacity: 0.9; stroke-linejoin: miter"/>
     <use xlink:href="#m1807f0cd28" x="649.044527" y="185.621975" style="fill-opacity: 0; stroke: #4b0082; stroke-opacity: 0.9; stroke-linejoin: miter"/>
     <use xlink:href="#m1807f0cd28" x="677.958854" y="165.262568" style="fill-opacity: 0; stroke: #4b0082; stroke-opacity: 0.9; stroke-linejoin: miter"/>
     <use xlink:href="#m1807f0cd28" x="706.873181" y="144.903368" style="fill-opacity: 0; stroke: #4b0082; stroke-opacity: 0.9; stroke-linejoin: miter"/>
     <use xlink:href="#m1807f0cd28" x="735.787508" y="124.544169" style="fill-opacity: 0; stroke: #4b0082; stroke-opacity: 0.9; stroke-linejoin: miter"/>
     <use xlink:href="#m1807f0cd28" x="764.701835" y="104.18497" style="fill-opacity: 0; stroke: #4b0082; stroke-opacity: 0.9; stroke-linejoin: miter"/>
     <use xlink:href="#m1807f0cd28" x="793.616162" y="83.825563" style="fill-opacity: 0; stroke: #4b0082; stroke-opacity: 0.9; stroke-linejoin: miter"/>
     <use xlink:href="#m1807f0cd28" x="822.530489" y="63.466364" style="fill-opacity: 0; stroke: #4b0082; stroke-opacity: 0.9; stroke-linejoin: miter"/>
    </g>
   </g>
   <g id="line2d_7">
    <path d="M 533.387218 267.07005 
L 562.301545 246.809649 
L 591.215872 226.549477 
L 620.130199 206.289097 
L 649.044527 186.028717 
L 677.958854 165.768337 
L 706.873181 145.508165 
L 735.787508 125.247785 
L 764.701835 105.940361 
L 793.616162 87.901113 
L 822.530489 67.989101 
" clip-path="url(#pcad7ed240c)" style="fill: none; stroke: #8b0000; stroke-opacity: 0.9; stroke-width: 1.5; stroke-linecap: round"/>
    <g clip-path="url(#pcad7ed240c)">
     <use xlink:href="#m239c2fabf6" x="533.387218" y="267.07005" style="fill-opacity: 0; stroke: #8b0000; stroke-opacity: 0.9; stroke-linejoin: miter"/>
     <use xlink:href="#m239c2fabf6" x="562.301545" y="246.809649" style="fill-opacity: 0; stroke: #8b0000; stroke-opacity: 0.9; stroke-linejoin: miter"/>
     <use xlink:href="#m239c2fabf6" x="591.215872" y="226.549477" style="fill-opacity: 0; stroke: #8b0000; stroke-opacity: 0.9; stroke-linejoin: miter"/>
     <use xlink:href="#m239c2fabf6" x="620.130199" y="206.289097" style="fill-opacity: 0; stroke: #8b0000; stroke-opacity: 0.9; stroke-linejoin: miter"/>
     <use xlink:href="#m239c2fabf6" x="649.044527" y="186.028717" style="fill-opacity: 0; stroke: #8b0000; stroke-opacity: 0.9; stroke-linejoin: miter"/>
     <use xlink:href="#m239c2fabf6" x="677.958854" y="165.768337" style="fill-opacity: 0; stroke: #8b0000; stroke-opacity: 0.9; stroke-linejoin: miter"/>
     <use xlink:href="#m239c2fabf6" x="706.873181" y="145.508165" style="fill-opacity: 0; stroke: #8b0000; stroke-opacity: 0.9; stroke-linejoin: miter"/>
     <use xlink:href="#m239c2fabf6" x="735.787508" y="125.247785" style="fill-opacity: 0; stroke: #8b0000; stroke-opacity: 0.9; stroke-linejoin: miter"/>
     <use xlink:href="#m239c2fabf6" x="764.701835" y="105.940361" style="fill-opacity: 0; stroke: #8b0000; stroke-opacity: 0.9; stroke-linejoin: miter"/>
     <use xlink:href="#m239c2fabf6" x="793.616162" y="87.901113" style="fill-opacity: 0; stroke: #8b0000; stroke-opacity: 0.9; stroke-linejoin: miter"/>
     <use xlink:href="#m239c2fabf6" x="822.530489" y="67.989101" style="fill-opacity: 0; stroke: #8b0000; stroke-opacity: 0.9; stroke-linejoin: miter"/>
    </g>
   </g>
   <g id="line2d_8">
    <path d="M 533.387218 267.058917 
L 562.301545 246.699572 
L 591.215872 226.340373 
L 620.130199 205.981174 
L 649.044527 185.621975 
L 677.958854 165.262568 
L 706.873181 144.903368 
L 735.787508 124.544169 
L 764.701835 111.580336 
L 793.616162 99.727695 
L 822.530489 121.298781 
" clip-path="url(#pcad7ed240c)" style="fill: none; stroke: #00008b; stroke-opacity: 0.9; stroke-width: 1.5; stroke-linecap: round"/>
    <g clip-path="url(#pcad7ed240c)">
     <use xlink:href="#m55dff10f90" x="533.387218" y="267.058917" style="fill-opacity: 0; stroke: #00008b; stroke-opacity: 0.9; stroke-linejoin: bevel"/>
     <use xlink:href="#m55dff10f90" x="562.301545" y="246.699572" style="fill-opacity: 0; stroke: #00008b; stroke-opacity: 0.9; stroke-linejoin: bevel"/>
     <use xlink:href="#m55dff10f90" x="591.215872" y="226.340373" style="fill-opacity: 0; stroke: #00008b; stroke-opacity: 0.9; stroke-linejoin: bevel"/>
     <use xlink:href="#m55dff10f90" x="620.130199" y="205.981174" style="fill-opacity: 0; stroke: #00008b; stroke-opacity: 0.9; stroke-linejoin: bevel"/>
     <use xlink:href="#m55dff10f90" x="649.044527" y="185.621975" style="fill-opacity: 0; stroke: #00008b; stroke-opacity: 0.9; stroke-linejoin: bevel"/>
     <use xlink:href="#m55dff10f90" x="677.958854" y="165.262568" style="fill-opacity: 0; stroke: #00008b; stroke-opacity: 0.9; stroke-linejoin: bevel"/>
     <use xlink:href="#m55dff10f90" x="706.873181" y="144.903368" style="fill-opacity: 0; stroke: #00008b; stroke-opacity: 0.9; stroke-linejoin: bevel"/>
     <use xlink:href="#m55dff10f90" x="735.787508" y="124.544169" style="fill-opacity: 0; stroke: #00008b; stroke-opacity: 0.9; stroke-linejoin: bevel"/>
     <use xlink:href="#m55dff10f90" x="764.701835" y="111.580336" style="fill-opacity: 0; stroke: #00008b; stroke-opacity: 0.9; stroke-linejoin: bevel"/>
     <use xlink:href="#m55dff10f90" x="793.616162" y="99.727695" style="fill-opacity: 0; stroke: #00008b; stroke-opacity: 0.9; stroke-linejoin: bevel"/>
     <use xlink:href="#m55dff10f90" x="822.530489" y="121.298781" style="fill-opacity: 0; stroke: #00008b; stroke-opacity: 0.9; stroke-linejoin: bevel"/>
    </g>
   </g>
   <g id="patch_6">
    <path d="M 521.251875 277.38 
L 521.251875 53.28 
" style="fill: none; stroke: #cccccc; stroke-width: 1.25; stroke-linejoin: miter; stroke-linecap: square"/>
   </g>
   <g id="patch_7">
    <path d="M 521.251875 277.38 
L 836.987653 277.38 
" style="fill: none; stroke: #cccccc; stroke-width: 1.25; stroke-linejoin: miter; stroke-linecap: square"/>
   </g>
  </g>
  <g id="legend_1">
   <g id="line2d_9">
    <path d="M 19.2996 12.6 
L 49.5396 12.6 
L 79.7796 12.6 
" style="fill: none; stroke: #006400; stroke-opacity: 0.9; stroke-width: 1.5; stroke-linecap: round"/>
    <g>
     <use xlink:href="#mbb8eba03bb" x="49.5396" y="12.6" style="fill-opacity: 0; stroke: #006400; stroke-opacity: 0.9"/>
    </g>
   </g>
   <g id="text_17">
    <!-- Sphinx -->
    <g style="fill: #262626" transform="translate(103.9716 23.184) scale(0.3024 -0.3024)">
     <defs>
      <path id="TimesNewRomanPSMT-53" d="M 2934 4334 
L 2934 2869 
L 2819 2869 
Q 2763 3291 2617 3541 
Q 2472 3791 2203 3937 
Q 1934 4084 1647 4084 
Q 1322 4084 1109 3886 
Q 897 3688 897 3434 
Q 897 3241 1031 3081 
Q 1225 2847 1953 2456 
Q 2547 2138 2764 1967 
Q 2981 1797 3098 1565 
Q 3216 1334 3216 1081 
Q 3216 600 2842 251 
Q 2469 -97 1881 -97 
Q 1697 -97 1534 -69 
Q 1438 -53 1133 45 
Q 828 144 747 144 
Q 669 144 623 97 
Q 578 50 556 -97 
L 441 -97 
L 441 1356 
L 556 1356 
Q 638 900 775 673 
Q 913 447 1195 297 
Q 1478 147 1816 147 
Q 2206 147 2432 353 
Q 2659 559 2659 841 
Q 2659 997 2573 1156 
Q 2488 1316 2306 1453 
Q 2184 1547 1640 1851 
Q 1097 2156 867 2337 
Q 638 2519 519 2737 
Q 400 2956 400 3219 
Q 400 3675 750 4004 
Q 1100 4334 1641 4334 
Q 1978 4334 2356 4169 
Q 2531 4091 2603 4091 
Q 2684 4091 2736 4139 
Q 2788 4188 2819 4334 
L 2934 4334 
z
" transform="scale(0.015625)"/>
      <path id="TimesNewRomanPSMT-70" d="M -6 2578 
L 875 2934 
L 994 2934 
L 994 2266 
Q 1216 2644 1439 2795 
Q 1663 2947 1909 2947 
Q 2341 2947 2628 2609 
Q 2981 2197 2981 1534 
Q 2981 794 2556 309 
Q 2206 -88 1675 -88 
Q 1444 -88 1275 -22 
Q 1150 25 994 166 
L 994 -706 
Q 994 -1000 1030 -1079 
Q 1066 -1159 1155 -1206 
Q 1244 -1253 1478 -1253 
L 1478 -1369 
L -22 -1369 
L -22 -1253 
L 56 -1253 
Q 228 -1256 350 -1188 
Q 409 -1153 442 -1076 
Q 475 -1000 475 -688 
L 475 2019 
Q 475 2297 450 2372 
Q 425 2447 370 2484 
Q 316 2522 222 2522 
Q 147 2522 31 2478 
L -6 2578 
z
M 994 2081 
L 994 1013 
Q 994 666 1022 556 
Q 1066 375 1236 237 
Q 1406 100 1666 100 
Q 1978 100 2172 344 
Q 2425 663 2425 1241 
Q 2425 1897 2138 2250 
Q 1938 2494 1663 2494 
Q 1513 2494 1366 2419 
Q 1253 2363 994 2081 
z
" transform="scale(0.015625)"/>
      <path id="TimesNewRomanPSMT-68" d="M 1041 4444 
L 1041 2350 
Q 1388 2731 1591 2839 
Q 1794 2947 1997 2947 
Q 2241 2947 2416 2812 
Q 2591 2678 2675 2391 
Q 2734 2191 2734 1659 
L 2734 647 
Q 2734 375 2778 275 
Q 2809 200 2884 156 
Q 2959 113 3159 113 
L 3159 0 
L 1753 0 
L 1753 113 
L 1819 113 
Q 2019 113 2097 173 
Q 2175 234 2206 353 
Q 2216 403 2216 647 
L 2216 1659 
Q 2216 2128 2167 2275 
Q 2119 2422 2012 2495 
Q 1906 2569 1756 2569 
Q 1603 2569 1437 2487 
Q 1272 2406 1041 2159 
L 1041 647 
Q 1041 353 1073 281 
Q 1106 209 1195 161 
Q 1284 113 1503 113 
L 1503 0 
L 84 0 
L 84 113 
Q 275 113 384 172 
Q 447 203 484 290 
Q 522 378 522 647 
L 522 3238 
Q 522 3728 498 3840 
Q 475 3953 426 3993 
Q 378 4034 297 4034 
Q 231 4034 84 3984 
L 41 4094 
L 897 4444 
L 1041 4444 
z
" transform="scale(0.015625)"/>
      <path id="TimesNewRomanPSMT-78" d="M 84 2863 
L 1431 2863 
L 1431 2747 
Q 1303 2747 1251 2703 
Q 1200 2659 1200 2588 
Q 1200 2513 1309 2356 
Q 1344 2306 1413 2200 
L 1616 1875 
L 1850 2200 
Q 2075 2509 2075 2591 
Q 2075 2656 2022 2701 
Q 1969 2747 1850 2747 
L 1850 2863 
L 2819 2863 
L 2819 2747 
Q 2666 2738 2553 2663 
Q 2400 2556 2134 2200 
L 1744 1678 
L 2456 653 
Q 2719 275 2831 198 
Q 2944 122 3122 113 
L 3122 0 
L 1772 0 
L 1772 113 
Q 1913 113 1991 175 
Q 2050 219 2050 291 
Q 2050 363 1850 653 
L 1431 1266 
L 972 653 
Q 759 369 759 316 
Q 759 241 829 180 
Q 900 119 1041 113 
L 1041 0 
L 106 0 
L 106 113 
Q 219 128 303 191 
Q 422 281 703 653 
L 1303 1450 
L 759 2238 
Q 528 2575 401 2661 
Q 275 2747 84 2747 
L 84 2863 
z
" transform="scale(0.015625)"/>
     </defs>
     <use xlink:href="#TimesNewRomanPSMT-53"/>
     <use xlink:href="#TimesNewRomanPSMT-70" x="55.615234"/>
     <use xlink:href="#TimesNewRomanPSMT-68" x="105.615234"/>
     <use xlink:href="#TimesNewRomanPSMT-69" x="155.615234"/>
     <use xlink:href="#TimesNewRomanPSMT-6e" x="183.398438"/>
     <use xlink:href="#TimesNewRomanPSMT-78" x="233.398438"/>
    </g>
   </g>
   <g id="line2d_10">
    <path d="M 213.860925 12.6 
L 244.100925 12.6 
L 274.340925 12.6 
" style="fill: none; stroke: #4b0082; stroke-opacity: 0.9; stroke-width: 1.5; stroke-linecap: round"/>
    <g>
     <use xlink:href="#m1807f0cd28" x="244.100925" y="12.6" style="fill-opacity: 0; stroke: #4b0082; stroke-opacity: 0.9; stroke-linejoin: miter"/>
    </g>
   </g>
   <g id="text_18">
    <!-- RSQF -->
    <g style="fill: #262626" transform="translate(298.532925 23.184) scale(0.3024 -0.3024)">
     <defs>
      <path id="TimesNewRomanPSMT-52" d="M 4325 0 
L 3194 0 
L 1759 1981 
Q 1600 1975 1500 1975 
Q 1459 1975 1412 1976 
Q 1366 1978 1316 1981 
L 1316 750 
Q 1316 350 1403 253 
Q 1522 116 1759 116 
L 1925 116 
L 1925 0 
L 109 0 
L 109 116 
L 269 116 
Q 538 116 653 291 
Q 719 388 719 750 
L 719 3488 
Q 719 3888 631 3984 
Q 509 4122 269 4122 
L 109 4122 
L 109 4238 
L 1653 4238 
Q 2328 4238 2648 4139 
Q 2969 4041 3192 3777 
Q 3416 3513 3416 3147 
Q 3416 2756 3161 2468 
Q 2906 2181 2372 2063 
L 3247 847 
Q 3547 428 3762 290 
Q 3978 153 4325 116 
L 4325 0 
z
M 1316 2178 
Q 1375 2178 1419 2176 
Q 1463 2175 1491 2175 
Q 2097 2175 2405 2437 
Q 2713 2700 2713 3106 
Q 2713 3503 2464 3751 
Q 2216 4000 1806 4000 
Q 1625 4000 1316 3941 
L 1316 2178 
z
" transform="scale(0.015625)"/>
      <path id="TimesNewRomanPSMT-51" d="M 2819 -47 
Q 3138 -597 3508 -856 
Q 3878 -1116 4350 -1153 
L 4350 -1253 
Q 3919 -1238 3428 -1080 
Q 2938 -922 2498 -642 
Q 2059 -363 1741 -47 
Q 1291 134 1028 338 
Q 647 641 436 1083 
Q 225 1525 225 2128 
Q 225 3078 840 3706 
Q 1456 4334 2331 4334 
Q 3163 4334 3770 3704 
Q 4378 3075 4378 2116 
Q 4378 1338 3945 750 
Q 3513 163 2819 -47 
z
M 2294 4094 
Q 1725 4094 1378 3688 
Q 941 3178 941 2128 
Q 941 1100 1384 544 
Q 1728 116 2294 116 
Q 2881 116 3241 544 
Q 3663 1050 3663 2038 
Q 3663 2797 3431 3316 
Q 3253 3716 2958 3905 
Q 2663 4094 2294 4094 
z
" transform="scale(0.015625)"/>
      <path id="TimesNewRomanPSMT-46" d="M 1309 4006 
L 1309 2341 
L 2081 2341 
Q 2347 2341 2470 2458 
Q 2594 2575 2634 2922 
L 2750 2922 
L 2750 1488 
L 2634 1488 
Q 2631 1734 2570 1850 
Q 2509 1966 2401 2023 
Q 2294 2081 2081 2081 
L 1309 2081 
L 1309 750 
Q 1309 428 1350 325 
Q 1381 247 1481 191 
Q 1619 116 1769 116 
L 1922 116 
L 1922 0 
L 103 0 
L 103 116 
L 253 116 
Q 516 116 634 269 
Q 709 369 709 750 
L 709 3488 
Q 709 3809 669 3913 
Q 638 3991 541 4047 
Q 406 4122 253 4122 
L 103 4122 
L 103 4238 
L 3256 4238 
L 3297 3306 
L 3188 3306 
Q 3106 3603 2998 3742 
Q 2891 3881 2733 3943 
Q 2575 4006 2244 4006 
L 1309 4006 
z
" transform="scale(0.015625)"/>
     </defs>
     <use xlink:href="#TimesNewRomanPSMT-52"/>
     <use xlink:href="#TimesNewRomanPSMT-53" x="66.699219"/>
     <use xlink:href="#TimesNewRomanPSMT-51" x="122.314453"/>
     <use xlink:href="#TimesNewRomanPSMT-46" x="194.53125"/>
    </g>
   </g>
   <g id="line2d_11">
    <path d="M 398.36745 12.6 
L 428.60745 12.6 
L 458.84745 12.6 
" style="fill: none; stroke: #8b0000; stroke-opacity: 0.9; stroke-width: 1.5; stroke-linecap: round"/>
    <g>
     <use xlink:href="#m239c2fabf6" x="428.60745" y="12.6" style="fill-opacity: 0; stroke: #8b0000; stroke-opacity: 0.9; stroke-linejoin: miter"/>
    </g>
   </g>
   <g id="text_19">
    <!-- Adaptive Aleph -->
    <g style="fill: #262626" transform="translate(483.03945 23.184) scale(0.3024 -0.3024)">
     <defs>
      <path id="TimesNewRomanPSMT-41" d="M 2928 1419 
L 1288 1419 
L 1000 750 
Q 894 503 894 381 
Q 894 284 986 211 
Q 1078 138 1384 116 
L 1384 0 
L 50 0 
L 50 116 
Q 316 163 394 238 
Q 553 388 747 847 
L 2238 4334 
L 2347 4334 
L 3822 809 
Q 4000 384 4145 257 
Q 4291 131 4550 116 
L 4550 0 
L 2878 0 
L 2878 116 
Q 3131 128 3220 200 
Q 3309 272 3309 375 
Q 3309 513 3184 809 
L 2928 1419 
z
M 2841 1650 
L 2122 3363 
L 1384 1650 
L 2841 1650 
z
" transform="scale(0.015625)"/>
      <path id="TimesNewRomanPSMT-61" d="M 1822 413 
Q 1381 72 1269 19 
Q 1100 -59 909 -59 
Q 613 -59 420 144 
Q 228 347 228 678 
Q 228 888 322 1041 
Q 450 1253 767 1440 
Q 1084 1628 1822 1897 
L 1822 2009 
Q 1822 2438 1686 2597 
Q 1550 2756 1291 2756 
Q 1094 2756 978 2650 
Q 859 2544 859 2406 
L 866 2225 
Q 866 2081 792 2003 
Q 719 1925 600 1925 
Q 484 1925 411 2006 
Q 338 2088 338 2228 
Q 338 2497 613 2722 
Q 888 2947 1384 2947 
Q 1766 2947 2009 2819 
Q 2194 2722 2281 2516 
Q 2338 2381 2338 1966 
L 2338 994 
Q 2338 584 2353 492 
Q 2369 400 2405 369 
Q 2441 338 2488 338 
Q 2538 338 2575 359 
Q 2641 400 2828 588 
L 2828 413 
Q 2478 -56 2159 -56 
Q 2006 -56 1915 50 
Q 1825 156 1822 413 
z
M 1822 616 
L 1822 1706 
Q 1350 1519 1213 1441 
Q 966 1303 859 1153 
Q 753 1003 753 825 
Q 753 600 887 451 
Q 1022 303 1197 303 
Q 1434 303 1822 616 
z
" transform="scale(0.015625)"/>
      <path id="TimesNewRomanPSMT-76" d="M 53 2863 
L 1400 2863 
L 1400 2747 
L 1313 2747 
Q 1191 2747 1127 2687 
Q 1063 2628 1063 2528 
Q 1063 2419 1128 2269 
L 1794 688 
L 2463 2328 
Q 2534 2503 2534 2594 
Q 2534 2638 2509 2666 
Q 2475 2713 2422 2730 
Q 2369 2747 2206 2747 
L 2206 2863 
L 3141 2863 
L 3141 2747 
Q 2978 2734 2916 2681 
Q 2806 2588 2719 2369 
L 1703 -88 
L 1575 -88 
L 553 2328 
Q 484 2497 421 2570 
Q 359 2644 263 2694 
Q 209 2722 53 2747 
L 53 2863 
z
" transform="scale(0.015625)"/>
      <path id="TimesNewRomanPSMT-6c" d="M 1184 4444 
L 1184 647 
Q 1184 378 1223 290 
Q 1263 203 1344 158 
Q 1425 113 1647 113 
L 1647 0 
L 244 0 
L 244 113 
Q 441 113 512 153 
Q 584 194 625 287 
Q 666 381 666 647 
L 666 3247 
Q 666 3731 644 3842 
Q 622 3953 573 3993 
Q 525 4034 450 4034 
Q 369 4034 244 3984 
L 191 4094 
L 1044 4444 
L 1184 4444 
z
" transform="scale(0.015625)"/>
     </defs>
     <use xlink:href="#TimesNewRomanPSMT-41"/>
     <use xlink:href="#TimesNewRomanPSMT-64" x="72.216797"/>
     <use xlink:href="#TimesNewRomanPSMT-61" x="122.216797"/>
     <use xlink:href="#TimesNewRomanPSMT-70" x="166.601562"/>
     <use xlink:href="#TimesNewRomanPSMT-74" x="216.601562"/>
     <use xlink:href="#TimesNewRomanPSMT-69" x="244.384766"/>
     <use xlink:href="#TimesNewRomanPSMT-76" x="272.167969"/>
     <use xlink:href="#TimesNewRomanPSMT-65" x="322.167969"/>
     <use xlink:href="#TimesNewRomanPSMT-20" x="366.552734"/>
     <use xlink:href="#TimesNewRomanPSMT-41" x="386.052734"/>
     <use xlink:href="#TimesNewRomanPSMT-6c" x="458.269531"/>
     <use xlink:href="#TimesNewRomanPSMT-65" x="486.052734"/>
     <use xlink:href="#TimesNewRomanPSMT-70" x="530.4375"/>
     <use xlink:href="#TimesNewRomanPSMT-68" x="580.4375"/>
    </g>
   </g>
   <g id="line2d_12">
    <path d="M 697.880475 12.6 
L 728.120475 12.6 
L 758.360475 12.6 
" style="fill: none; stroke: #00008b; stroke-opacity: 0.9; stroke-width: 1.5; stroke-linecap: round"/>
    <g>
     <use xlink:href="#m55dff10f90" x="728.120475" y="12.6" style="fill-opacity: 0; stroke: #00008b; stroke-opacity: 0.9; stroke-linejoin: bevel"/>
    </g>
   </g>
   <g id="text_20">
    <!-- DHT -->
    <g style="fill: #262626" transform="translate(782.552475 23.184) scale(0.3024 -0.3024)">
     <defs>
      <path id="TimesNewRomanPSMT-44" d="M 109 0 
L 109 116 
L 269 116 
Q 538 116 650 288 
Q 719 391 719 750 
L 719 3488 
Q 719 3884 631 3984 
Q 509 4122 269 4122 
L 109 4122 
L 109 4238 
L 1834 4238 
Q 2784 4238 3279 4022 
Q 3775 3806 4076 3303 
Q 4378 2800 4378 2141 
Q 4378 1256 3841 663 
Q 3238 0 2003 0 
L 109 0 
z
M 1319 306 
Q 1716 219 1984 219 
Q 2709 219 3187 728 
Q 3666 1238 3666 2109 
Q 3666 2988 3187 3494 
Q 2709 4000 1959 4000 
Q 1678 4000 1319 3909 
L 1319 306 
z
" transform="scale(0.015625)"/>
      <path id="TimesNewRomanPSMT-48" d="M 1316 2272 
L 3284 2272 
L 3284 3484 
Q 3284 3809 3244 3913 
Q 3213 3991 3113 4047 
Q 2978 4122 2828 4122 
L 2678 4122 
L 2678 4238 
L 4491 4238 
L 4491 4122 
L 4341 4122 
Q 4191 4122 4056 4050 
Q 3956 4000 3920 3898 
Q 3884 3797 3884 3484 
L 3884 750 
Q 3884 428 3925 325 
Q 3956 247 4053 191 
Q 4191 116 4341 116 
L 4491 116 
L 4491 0 
L 2678 0 
L 2678 116 
L 2828 116 
Q 3088 116 3206 269 
Q 3284 369 3284 750 
L 3284 2041 
L 1316 2041 
L 1316 750 
Q 1316 428 1356 325 
Q 1388 247 1488 191 
Q 1622 116 1772 116 
L 1925 116 
L 1925 0 
L 109 0 
L 109 116 
L 259 116 
Q 522 116 641 269 
Q 716 369 716 750 
L 716 3484 
Q 716 3809 675 3913 
Q 644 3991 547 4047 
Q 409 4122 259 4122 
L 109 4122 
L 109 4238 
L 1925 4238 
L 1925 4122 
L 1772 4122 
Q 1622 4122 1488 4050 
Q 1391 4000 1353 3898 
Q 1316 3797 1316 3484 
L 1316 2272 
z
" transform="scale(0.015625)"/>
      <path id="TimesNewRomanPSMT-54" d="M 3703 4238 
L 3750 3244 
L 3631 3244 
Q 3597 3506 3538 3619 
Q 3441 3800 3280 3886 
Q 3119 3972 2856 3972 
L 2259 3972 
L 2259 734 
Q 2259 344 2344 247 
Q 2463 116 2709 116 
L 2856 116 
L 2856 0 
L 1059 0 
L 1059 116 
L 1209 116 
Q 1478 116 1591 278 
Q 1659 378 1659 734 
L 1659 3972 
L 1150 3972 
Q 853 3972 728 3928 
Q 566 3869 450 3700 
Q 334 3531 313 3244 
L 194 3244 
L 244 4238 
L 3703 4238 
z
" transform="scale(0.015625)"/>
     </defs>
     <use xlink:href="#TimesNewRomanPSMT-44"/>
     <use xlink:href="#TimesNewRomanPSMT-48" x="72.216797"/>
     <use xlink:href="#TimesNewRomanPSMT-54" x="144.433594"/>
    </g>
   </g>
  </g>
 </g>
 <defs>
  <clipPath id="p73be7a61f5">
   <rect x="91.47375" y="53.28" width="315.735778" height="224.1"/>
  </clipPath>
  <clipPath id="pcad7ed240c">
   <rect x="521.251875" y="53.28" width="315.735778" height="224.1"/>
  </clipPath>
 </defs>
</svg>
